0
SECTION
2
HEADER
9
$INSUNITS
70
4
9
$ACADVER
1
AC1014
9
$HANDSEED
5
FFFF
0
ENDSEC
0
SECTION
2
TABLES
0
TABLE
2
VPORT
5
8
100
AcDbSymbolTable
0
ENDTAB
0
TABLE
2
LTYPE
5
5
100
AcDbSymbolTable
0
LTYPE
5
14
100
AcDbSymbolTableRecord
100
AcDbLinetypeTableRecord
2
BYBLOCK
70
0
0
LTYPE
5
15
100
AcDbSymbolTableRecord
100
AcDbLinetypeTableRecord
2
BYLAYER
70
0
0
ENDTAB
0
TABLE
2
LAYER
5
2
100
AcDbSymbolTable
70
2
0
LAYER
5
50
100
AcDbSymbolTableRecord
100
AcDbLayerTableRecord
2
0
70
0
6
CONTINUOUS
0
ENDTAB
0
TABLE
2
STYLE
5
3
100
AcDbSymbolTable
70
1
0
STYLE
5
11
100
AcDbSymbolTableRecord
100
AcDbTextStyleTableRecord
2
STANDARD
70
0
0
ENDTAB
0
TABLE
2
VIEW
5
6
100
AcDbSymbolTable
70
0
0
ENDTAB
0
TABLE
2
UCS
5
7
100
AcDbSymbolTable
70
0
0
ENDTAB
0
TABLE
2
APPID
5
9
100
AcDbSymbolTable
70
2
0
APPID
5
12
100
AcDbSymbolTableRecord
100
AcDbRegAppTableRecord
2
ACAD
70
0
0
ENDTAB
0
TABLE
2
DIMSTYLE
5
A
100
AcDbSymbolTable
70
1
0
ENDTAB
0
TABLE
2
BLOCK_RECORD
5
1
100
AcDbSymbolTable
70
1
0
BLOCK_RECORD
5
1F
100
AcDbSymbolTableRecord
100
AcDbBlockTableRecord
2
*MODEL_SPACE
0
BLOCK_RECORD
5
1B
100
AcDbSymbolTableRecord
100
AcDbBlockTableRecord
2
*PAPER_SPACE
0
ENDTAB
0
ENDSEC
0
SECTION
2
BLOCKS
0
BLOCK
5
20
100
AcDbEntity
100
AcDbBlockBegin
2
*MODEL_SPACE
0
ENDBLK
5
21
100
AcDbEntity
100
AcDbBlockEnd
0
BLOCK
5
1C
100
AcDbEntity
100
AcDbBlockBegin
2
*PAPER_SPACE
0
ENDBLK
5
1D
100
AcDbEntity
100
AcDbBlockEnd
0
ENDSEC
0
SECTION
2
ENTITIES
0
LINE
5
100
100
AcDbEntity
8
0
100
AcDbLine
10
-37.901270189221933
20
-6.499999999999897
30
0
11
-37.901270189221911
21
-21.882308546376031
31
0
0
LINE
5
101
100
AcDbEntity
8
0
100
AcDbLine
10
-43.301270189222009
20
-6.4999999999998836
30
0
11
-37.901270189221933
21
-6.499999999999897
31
0
0
LINE
5
102
100
AcDbEntity
8
0
100
AcDbLine
10
-43.301270189222024
20
6.4999999999997682
30
0
11
-43.301270189222009
21
-6.4999999999998836
31
0
0
LINE
5
103
100
AcDbEntity
8
0
100
AcDbLine
10
-37.901270189221947
20
6.4999999999997957
30
0
11
-43.301270189222024
21
6.4999999999997682
31
0
0
LINE
5
104
100
AcDbEntity
8
0
100
AcDbLine
10
-37.901270189221947
20
6.4999999999997957
30
0
11
-37.901270189221975
21
21.882308546375931
31
0
0
LINE
5
105
100
AcDbEntity
8
0
100
AcDbLine
10
-21.250000357627869
20
-3.6499999999999932
30
0
11
-26.750000357627869
21
-3.6499999999999932
31
0
0
LINE
5
106
100
AcDbEntity
8
0
100
AcDbLine
10
-26.750000357627869
20
-3.6499999999999932
30
0
11
-26.750000357627869
21
3.6500000000000066
31
0
0
LINE
5
107
100
AcDbEntity
8
0
100
AcDbLine
10
-26.750000357627869
20
3.6500000000000066
30
0
11
-21.250000357627869
21
3.6500000000000066
31
0
0
LINE
5
108
100
AcDbEntity
8
0
100
AcDbLine
10
-21.250000357627869
20
3.6500000000000066
30
0
11
-21.250000357627869
21
-3.6499999999999932
31
0
0
LINE
5
109
100
AcDbEntity
8
0
100
AcDbLine
10
-21.250000357627869
20
-3.6499999999999932
30
0
11
-26.750000357627869
21
3.6500000000000066
31
0
0
LINE
5
110
100
AcDbEntity
8
0
100
AcDbLine
10
-26.750000357627869
20
-3.6499999999999932
30
0
11
-21.250000357627869
21
3.6500000000000066
31
0
0
LINE
5
111
100
AcDbEntity
8
0
100
AcDbLine
10
-24.579800219209655
20
-29.573462819564146
30
0
11
-37.901270189221876
21
-21.882308546376095
31
0
0
LINE
5
112
100
AcDbEntity
8
0
100
AcDbLine
10
-16.021469970012259
20
-40.75
30
0
11
-13.32146997001221
21
-36.073462819563979
31
0
0
LINE
5
113
100
AcDbEntity
8
0
100
AcDbLine
10
-13.32146997001221
20
-36.073462819563979
30
0
11
1.3322676295501878e-14
21
-43.764617092752033
31
0
0
LINE
5
114
100
AcDbEntity
8
0
100
AcDbLine
10
-7.4640074550007416
20
-20.228040140134137
30
0
11
-10.21400745500074
21
-24.991179860948549
31
0
0
LINE
5
115
100
AcDbEntity
8
0
100
AcDbLine
10
-27.279800219209669
20
-34.250000000000192
30
0
11
-16.021469970012259
21
-40.75
31
0
0
LINE
5
116
100
AcDbEntity
8
0
100
AcDbLine
10
-16.535992902627143
20
-21.341179860948543
30
0
11
-13.785992902627145
21
-16.578040140134135
31
0
0
LINE
5
117
100
AcDbEntity
8
0
100
AcDbLine
10
-10.21400745500074
20
-24.991179860948549
30
0
11
-13.785992902627145
21
-16.578040140134135
31
0
0
LINE
5
118
100
AcDbEntity
8
0
100
AcDbLine
10
-7.4640074550007416
20
-20.228040140134137
30
0
11
-16.535992902627143
21
-21.341179860948543
31
0
0
LINE
5
119
100
AcDbEntity
8
0
100
AcDbLine
10
-13.785992902627145
20
-16.578040140134135
30
0
11
-7.4640074550007416
21
-20.228040140134137
31
0
0
LINE
5
120
100
AcDbEntity
8
0
100
AcDbLine
10
-24.579800219209655
20
-29.573462819564146
30
0
11
-27.279800219209669
21
-34.250000000000192
31
0
0
LINE
5
121
100
AcDbEntity
8
0
100
AcDbLine
10
-10.21400745500074
20
-24.991179860948549
30
0
11
-16.535992902627143
21
-21.341179860948543
31
0
0
LINE
5
122
100
AcDbEntity
8
0
100
AcDbLine
10
13.32146997001229
20
-36.07346281956395
30
0
11
8.4376949871511897e-14
21
-43.764617092752033
31
0
0
LINE
5
123
100
AcDbEntity
8
0
100
AcDbLine
10
27.279800219209747
20
-34.250000000000128
30
0
11
24.579800219209716
21
-29.573462819564085
31
0
0
LINE
5
124
100
AcDbEntity
8
0
100
AcDbLine
10
24.579800219209716
20
-29.573462819564085
30
0
11
37.901270189221925
21
-21.882308546376009
31
0
0
LINE
5
125
100
AcDbEntity
8
0
100
AcDbLine
10
13.785992902627127
20
-16.578040140134149
30
0
11
16.535992902627122
21
-21.341179860948564
31
0
0
LINE
5
126
100
AcDbEntity
8
0
100
AcDbLine
10
16.021469970012351
20
-40.749999999999972
30
0
11
27.279800219209747
21
-34.250000000000128
31
0
0
LINE
5
127
100
AcDbEntity
8
0
100
AcDbLine
10
10.21400745500072
20
-24.991179860948559
30
0
11
7.4640074550007229
21
-20.228040140134148
31
0
0
LINE
5
128
100
AcDbEntity
8
0
100
AcDbLine
10
16.535992902627122
20
-21.341179860948564
30
0
11
7.4640074550007229
21
-20.228040140134148
31
0
0
LINE
5
129
100
AcDbEntity
8
0
100
AcDbLine
10
13.785992902627127
20
-16.578040140134149
30
0
11
10.21400745500072
21
-24.991179860948559
31
0
0
LINE
5
130
100
AcDbEntity
8
0
100
AcDbLine
10
7.4640074550007229
20
-20.228040140134148
30
0
11
13.785992902627127
21
-16.578040140134149
31
0
0
LINE
5
131
100
AcDbEntity
8
0
100
AcDbLine
10
13.32146997001229
20
-36.07346281956395
30
0
11
16.021469970012351
21
-40.749999999999972
31
0
0
LINE
5
132
100
AcDbEntity
8
0
100
AcDbLine
10
16.535992902627122
20
-21.341179860948564
30
0
11
10.21400745500072
21
-24.991179860948559
31
0
0
LINE
5
133
100
AcDbEntity
8
0
100
AcDbLine
10
37.901270189221947
20
-6.4999999999998002
30
0
11
37.901270189221968
21
-21.882308546375935
31
0
0
LINE
5
134
100
AcDbEntity
8
0
100
AcDbLine
10
43.301270189222009
20
6.4999999999998783
30
0
11
37.901270189221933
21
6.4999999999998925
31
0
0
LINE
5
135
100
AcDbEntity
8
0
100
AcDbLine
10
37.901270189221933
20
6.4999999999998925
30
0
11
37.901270189221918
21
21.882308546376027
31
0
0
LINE
5
136
100
AcDbEntity
8
0
100
AcDbLine
10
21.250000357627869
20
3.6499999999999906
30
0
11
26.750000357627869
21
3.6499999999999897
31
0
0
LINE
5
137
100
AcDbEntity
8
0
100
AcDbLine
10
43.301270189222024
20
-6.4999999999997735
30
0
11
43.301270189222009
21
6.4999999999998783
31
0
0
LINE
5
138
100
AcDbEntity
8
0
100
AcDbLine
10
26.750000357627869
20
-3.6500000000000101
30
0
11
21.250000357627869
21
-3.6500000000000092
31
0
0
LINE
5
139
100
AcDbEntity
8
0
100
AcDbLine
10
26.750000357627869
20
3.6499999999999897
30
0
11
21.250000357627869
21
-3.6500000000000092
31
0
0
LINE
5
140
100
AcDbEntity
8
0
100
AcDbLine
10
21.250000357627869
20
3.6499999999999906
30
0
11
26.750000357627869
21
-3.6500000000000101
31
0
0
LINE
5
141
100
AcDbEntity
8
0
100
AcDbLine
10
21.250000357627869
20
-3.6500000000000092
30
0
11
21.250000357627869
21
3.6499999999999906
31
0
0
LINE
5
142
100
AcDbEntity
8
0
100
AcDbLine
10
37.901270189221947
20
-6.4999999999998002
30
0
11
43.301270189222024
21
-6.4999999999997735
31
0
0
LINE
5
143
100
AcDbEntity
8
0
100
AcDbLine
10
26.750000357627869
20
3.6499999999999897
30
0
11
26.750000357627869
21
-3.6500000000000101
31
0
0
LINE
5
144
100
AcDbEntity
8
0
100
AcDbLine
10
24.579800219209655
20
29.573462819564135
30
0
11
37.901270189221876
21
21.882308546376088
31
0
0
LINE
5
145
100
AcDbEntity
8
0
100
AcDbLine
10
16.021469970012262
20
40.749999999999993
30
0
11
13.321469970012213
21
36.073462819563971
31
0
0
LINE
5
146
100
AcDbEntity
8
0
100
AcDbLine
10
13.321469970012213
20
36.073462819563971
30
0
11
-4.4408920985006262e-15
21
43.764617092752033
31
0
0
LINE
5
147
100
AcDbEntity
8
0
100
AcDbLine
10
7.4640074550007451
20
20.228040140134134
30
0
11
10.214007455000747
21
24.991179860948542
31
0
0
LINE
5
148
100
AcDbEntity
8
0
100
AcDbLine
10
27.279800219209669
20
34.250000000000178
30
0
11
16.021469970012262
21
40.749999999999993
31
0
0
LINE
5
149
100
AcDbEntity
8
0
100
AcDbLine
10
16.535992902627147
20
21.341179860948539
30
0
11
13.785992902627145
21
16.578040140134132
31
0
0
LINE
5
150
100
AcDbEntity
8
0
100
AcDbLine
10
10.214007455000747
20
24.991179860948542
30
0
11
13.785992902627145
21
16.578040140134132
31
0
0
LINE
5
151
100
AcDbEntity
8
0
100
AcDbLine
10
7.4640074550007451
20
20.228040140134134
30
0
11
16.535992902627147
21
21.341179860948539
31
0
0
LINE
5
152
100
AcDbEntity
8
0
100
AcDbLine
10
13.785992902627145
20
16.578040140134132
30
0
11
7.4640074550007451
21
20.228040140134134
31
0
0
LINE
5
153
100
AcDbEntity
8
0
100
AcDbLine
10
24.579800219209655
20
29.573462819564135
30
0
11
27.279800219209669
21
34.250000000000178
31
0
0
LINE
5
154
100
AcDbEntity
8
0
100
AcDbLine
10
10.214007455000747
20
24.991179860948542
30
0
11
16.535992902627147
21
21.341179860948539
31
0
0
LINE
5
155
100
AcDbEntity
8
0
100
AcDbLine
10
-13.321469970012272
20
36.073462819563957
30
0
11
-6.4392935428259079e-14
21
43.764617092752033
31
0
0
LINE
5
156
100
AcDbEntity
8
0
100
AcDbLine
10
-27.279800219209733
20
34.250000000000149
30
0
11
-24.579800219209709
21
29.573462819564099
31
0
0
LINE
5
157
100
AcDbEntity
8
0
100
AcDbLine
10
-24.579800219209709
20
29.573462819564099
30
0
11
-37.901270189221918
21
21.882308546376031
31
0
0
LINE
5
158
100
AcDbEntity
8
0
100
AcDbLine
10
-13.785992902627118
20
16.578040140134156
30
0
11
-16.535992902627111
21
21.341179860948571
31
0
0
LINE
5
159
100
AcDbEntity
8
0
100
AcDbLine
10
-16.021469970012333
20
40.749999999999972
30
0
11
-27.279800219209733
21
34.250000000000149
31
0
0
LINE
5
160
100
AcDbEntity
8
0
100
AcDbLine
10
-10.214007455000708
20
24.991179860948563
30
0
11
-7.4640074550007141
21
20.228040140134151
31
0
0
LINE
5
161
100
AcDbEntity
8
0
100
AcDbLine
10
-16.535992902627111
20
21.341179860948571
30
0
11
-7.4640074550007141
21
20.228040140134151
31
0
0
LINE
5
162
100
AcDbEntity
8
0
100
AcDbLine
10
-13.785992902627118
20
16.578040140134156
30
0
11
-10.214007455000708
21
24.991179860948563
31
0
0
LINE
5
163
100
AcDbEntity
8
0
100
AcDbLine
10
-7.4640074550007141
20
20.228040140134151
30
0
11
-13.785992902627118
21
16.578040140134156
31
0
0
LINE
5
164
100
AcDbEntity
8
0
100
AcDbLine
10
-13.321469970012272
20
36.073462819563957
30
0
11
-16.021469970012333
21
40.749999999999972
31
0
0
LINE
5
165
100
AcDbEntity
8
0
100
AcDbLine
10
-16.535992902627111
20
21.341179860948571
30
0
11
-10.214007455000708
21
24.991179860948563
31
0
0
LINE
5
166
100
AcDbEntity
8
0
100
AcDbLine
10
70.581070408431799
20
-40.749999999999901
30
0
11
59.322740159234385
21
-34.250000000000085
31
0
0
LINE
5
167
100
AcDbEntity
8
0
100
AcDbLine
10
72.816547475816947
20
-16.578040140134071
30
0
11
70.066547475816975
21
-21.341179860948493
31
0
0
LINE
5
168
100
AcDbEntity
8
0
100
AcDbLine
10
73.281070408431844
20
-36.073462819563872
30
0
11
70.581070408431799
21
-40.749999999999901
31
0
0
LINE
5
169
100
AcDbEntity
8
0
100
AcDbLine
10
62.022740159234395
20
-29.573462819564035
30
0
11
48.701270189222171
21
-21.882308546375995
31
0
0
LINE
5
170
100
AcDbEntity
8
0
100
AcDbLine
10
103.13853328107109
20
21.341179860948735
30
0
11
94.066547833444673
21
20.22804014013429
31
0
0
LINE
5
171
100
AcDbEntity
8
0
100
AcDbLine
10
129.90381056766606
20
-6.4999999999996474
30
0
11
124.50381056766599
21
-6.4999999999996749
31
0
0
LINE
5
172
100
AcDbEntity
8
0
100
AcDbLine
10
107.85254073607189
20
3.6500000000001807
30
0
11
107.85254073607192
21
-3.6499999999998165
31
0
0
LINE
5
173
100
AcDbEntity
8
0
100
AcDbLine
10
73.281070408431717
20
36.073462819564057
30
0
11
86.602540378443933
21
43.764617092752147
31
0
0
LINE
5
174
100
AcDbEntity
8
0
100
AcDbLine
10
113.88234059765379
20
-34.25
30
0
11
102.62401034845639
21
-40.749999999999844
31
0
0
LWPOLYLINE
5
175
100
AcDbEntity
8
0
100
AcDbPolyline
90
6
70
1
43
0.0
10
76.388532923443208
20
24.99117986094863
10
79.138532923443236
20
20.228040140134233
10
72.816547475816847
20
16.578040140134213
10
70.066547475816833
20
21.341179860948611
10
76.388532923443208
20
24.99117986094863
10
72.816547475816847
20
16.578040140134213
0
LINE
5
176
100
AcDbEntity
8
0
100
AcDbLine
10
94.066547833444815
20
-20.228040140133999
30
0
11
103.13853328107122
21
-21.34117986094838
31
0
0
LINE
5
177
100
AcDbEntity
8
0
100
AcDbLine
10
62.022740159234296
20
29.573462819564188
30
0
11
59.322740159234272
21
34.250000000000227
31
0
0
LINE
5
178
100
AcDbEntity
8
0
100
AcDbLine
10
70.581070408431657
20
40.750000000000064
30
0
11
73.281070408431717
21
36.073462819564057
31
0
0
LINE
5
179
100
AcDbEntity
8
0
100
AcDbLine
10
111.18234059765378
20
-29.573462819563957
30
0
11
124.50381056766595
21
-21.882308546375874
31
0
0
LINE
5
180
100
AcDbEntity
8
0
100
AcDbLine
10
99.924010348456207
20
36.073462819564106
30
0
11
86.602540378443962
21
43.764617092752147
31
0
0
LINE
5
181
100
AcDbEntity
8
0
100
AcDbLine
10
107.85254073607192
20
-3.6499999999998165
30
0
11
113.35254073607192
21
-3.6499999999998018
31
0
0
LINE
5
182
100
AcDbEntity
8
0
100
AcDbLine
10
129.90381056766606
20
6.5000000000000044
30
0
11
129.90381056766606
21
-6.4999999999996474
31
0
0
LINE
5
183
100
AcDbEntity
8
0
100
AcDbLine
10
62.022740159234296
20
29.573462819564188
30
0
11
48.7012701892221
21
21.882308546376098
31
0
0
LINE
5
184
100
AcDbEntity
8
0
100
AcDbLine
10
59.322740159234385
20
-34.250000000000085
30
0
11
62.022740159234395
21
-29.573462819564035
31
0
0
LINE
5
185
100
AcDbEntity
8
0
100
AcDbLine
10
70.066547475816975
20
-21.341179860948493
30
0
11
76.388532923443378
21
-24.991179860948471
31
0
0
LINE
5
186
100
AcDbEntity
8
0
100
AcDbLine
10
76.388532923443378
20
-24.991179860948471
30
0
11
79.138532923443364
21
-20.228040140134048
31
0
0
LWPOLYLINE
5
187
100
AcDbEntity
8
0
100
AcDbPolyline
90
6
70
1
43
0.0
10
59.852540020816164
20
3.6500000000000341
10
65.35254002081615
20
3.6500000000000501
10
65.352540020816164
20
-3.6499999999999488
10
59.852540020816178
20
-3.6499999999999657
10
59.852540020816164
20
3.6500000000000341
10
65.352540020816164
20
-3.6499999999999488
0
LINE
5
188
100
AcDbEntity
8
0
100
AcDbLine
10
100.38853328107109
20
16.578040140134313
30
0
11
96.816547833444673
21
24.991179860948712
31
0
0
LINE
5
189
100
AcDbEntity
8
0
100
AcDbLine
10
73.281070408431844
20
-36.073462819563872
30
0
11
86.602540378444075
21
-43.764617092751912
31
0
0
LINE
5
190
100
AcDbEntity
8
0
100
AcDbLine
10
43.301270189222009
20
6.4999999999998783
30
0
11
48.701270189222079
21
6.4999999999999067
31
0
0
LINE
5
191
100
AcDbEntity
8
0
100
AcDbLine
10
79.138532923443364
20
-20.228040140134048
30
0
11
72.816547475816947
21
-16.578040140134071
31
0
0
LINE
5
192
100
AcDbEntity
8
0
100
AcDbLine
10
124.50381056766595
20
6.5000000000000178
30
0
11
124.50381056766595
21
21.882308546376152
31
0
0
LINE
5
193
100
AcDbEntity
8
0
100
AcDbLine
10
100.38853328107109
20
16.578040140134313
30
0
11
103.13853328107109
21
21.341179860948735
31
0
0
LINE
5
194
100
AcDbEntity
8
0
100
AcDbLine
10
99.924010348456349
20
-36.073462819563822
30
0
11
86.602540378444132
21
-43.764617092751912
31
0
0
LINE
5
195
100
AcDbEntity
8
0
100
AcDbLine
10
94.066547833444673
20
20.22804014013429
30
0
11
100.38853328107109
21
16.578040140134313
31
0
0
LINE
5
196
100
AcDbEntity
8
0
100
AcDbLine
10
70.066547475816975
20
-21.341179860948493
30
0
11
79.138532923443364
21
-20.228040140134048
31
0
0
LINE
5
197
100
AcDbEntity
8
0
100
AcDbLine
10
111.18234059765378
20
-29.573462819563957
30
0
11
113.88234059765379
21
-34.25
31
0
0
LINE
5
198
100
AcDbEntity
8
0
100
AcDbLine
10
103.13853328107122
20
-21.34117986094838
30
0
11
100.38853328107123
21
-16.578040140133979
31
0
0
LINE
5
199
100
AcDbEntity
8
0
100
AcDbLine
10
100.38853328107123
20
-16.578040140133979
30
0
11
94.066547833444815
21
-20.228040140133999
31
0
0
LINE
5
200
100
AcDbEntity
8
0
100
AcDbLine
10
96.816547833444844
20
-24.991179860948399
30
0
11
103.13853328107122
21
-21.34117986094838
31
0
0
LINE
5
201
100
AcDbEntity
8
0
100
AcDbLine
10
102.62401034845627
20
40.750000000000135
30
0
11
113.88234059765367
21
34.250000000000341
31
0
0
LINE
5
202
100
AcDbEntity
8
0
100
AcDbLine
10
96.816547833444673
20
24.991179860948712
30
0
11
94.066547833444673
21
20.22804014013429
31
0
0
LINE
5
203
100
AcDbEntity
8
0
100
AcDbLine
10
96.816547833444844
20
-24.991179860948399
30
0
11
100.38853328107123
21
-16.578040140133979
31
0
0
LINE
5
204
100
AcDbEntity
8
0
100
AcDbLine
10
94.066547833444815
20
-20.228040140133999
30
0
11
96.816547833444844
21
-24.991179860948399
31
0
0
LINE
5
205
100
AcDbEntity
8
0
100
AcDbLine
10
103.13853328107109
20
21.341179860948735
30
0
11
96.816547833444673
21
24.991179860948712
31
0
0
LINE
5
206
100
AcDbEntity
8
0
100
AcDbLine
10
113.35254073607189
20
3.6500000000001966
30
0
11
107.85254073607189
21
3.6500000000001807
31
0
0
LINE
5
207
100
AcDbEntity
8
0
100
AcDbLine
10
124.50381056766599
20
-6.4999999999996749
30
0
11
124.50381056766599
21
-21.88230854637581
31
0
0
LINE
5
208
100
AcDbEntity
8
0
100
AcDbLine
10
113.88234059765367
20
34.250000000000341
30
0
11
111.18234059765365
21
29.573462819564288
31
0
0
LINE
5
209
100
AcDbEntity
8
0
100
AcDbLine
10
102.62401034845639
20
-40.749999999999844
30
0
11
99.924010348456349
21
-36.073462819563822
31
0
0
LINE
5
210
100
AcDbEntity
8
0
100
AcDbLine
10
111.18234059765365
20
29.573462819564288
30
0
11
124.50381056766588
21
21.882308546376255
31
0
0
LINE
5
211
100
AcDbEntity
8
0
100
AcDbLine
10
59.322740159234272
20
34.250000000000227
30
0
11
70.581070408431657
21
40.750000000000064
31
0
0
LINE
5
212
100
AcDbEntity
8
0
100
AcDbLine
10
99.924010348456207
20
36.073462819564106
30
0
11
102.62401034845627
21
40.750000000000135
31
0
0
LINE
5
213
100
AcDbEntity
8
0
100
AcDbLine
10
113.35254073607192
20
-3.6499999999998018
30
0
11
107.85254073607189
21
3.6500000000001807
31
0
0
LINE
5
214
100
AcDbEntity
8
0
100
AcDbLine
10
124.50381056766595
20
6.5000000000000178
30
0
11
129.90381056766606
21
6.5000000000000044
31
0
0
LINE
5
215
100
AcDbEntity
8
0
100
AcDbLine
10
107.85254073607192
20
-3.6499999999998165
30
0
11
113.35254073607189
21
3.6500000000001966
31
0
0
LINE
5
216
100
AcDbEntity
8
0
100
AcDbLine
10
113.35254073607192
20
-3.6499999999998018
30
0
11
113.35254073607189
21
3.6500000000001966
31
0
0
LINE
5
217
100
AcDbEntity
8
0
100
AcDbLine
10
48.7012701892221
20
-6.4999999999997859
30
0
11
43.301270189222024
21
-6.4999999999997735
31
0
0
LINE
5
218
100
AcDbEntity
8
0
100
AcDbLine
10
48.7012701892221
20
-6.4999999999997859
30
0
11
48.701270189222122
21
-21.882308546375921
31
0
0
LINE
5
219
100
AcDbEntity
8
0
100
AcDbLine
10
48.701270189222079
20
6.4999999999999067
30
0
11
48.701270189222051
21
21.882308546376041
31
0
0
LINE
5
220
100
AcDbEntity
8
0
100
AcDbLine
10
72.816547475816947
20
-16.578040140134071
30
0
11
76.388532923443378
21
-24.991179860948471
31
0
0
ENDSEC
0
SECTION
2
OBJECTS
0
DICTIONARY
5
C
100
AcDbDictionary
3
ACAD_GROUP
350
D
3
ACAD_MLINESTYLE
350
17
0
DICTIONARY
5
D
100
AcDbDictionary
0
DICTIONARY
5
1A
330
C
100
AcDbDictionary
0
DICTIONARY
5
17
100
AcDbDictionary
0
ENDSEC
0
EOF
