0
SECTION
2
HEADER
9
$INSUNITS
70
4
9
$ACADVER
1
AC1014
9
$HANDSEED
5
FFFF
0
ENDSEC
0
SECTION
2
TABLES
0
TABLE
2
VPORT
5
8
100
AcDbSymbolTable
0
ENDTAB
0
TABLE
2
LTYPE
5
5
100
AcDbSymbolTable
0
LTYPE
5
14
100
AcDbSymbolTableRecord
100
AcDbLinetypeTableRecord
2
BYBLOCK
70
0
0
LTYPE
5
15
100
AcDbSymbolTableRecord
100
AcDbLinetypeTableRecord
2
BYLAYER
70
0
0
ENDTAB
0
TABLE
2
LAYER
5
2
100
AcDbSymbolTable
70
2
0
LAYER
5
50
100
AcDbSymbolTableRecord
100
AcDbLayerTableRecord
2
0
70
0
6
CONTINUOUS
0
ENDTAB
0
TABLE
2
STYLE
5
3
100
AcDbSymbolTable
70
1
0
STYLE
5
11
100
AcDbSymbolTableRecord
100
AcDbTextStyleTableRecord
2
STANDARD
70
0
0
ENDTAB
0
TABLE
2
VIEW
5
6
100
AcDbSymbolTable
70
0
0
ENDTAB
0
TABLE
2
UCS
5
7
100
AcDbSymbolTable
70
0
0
ENDTAB
0
TABLE
2
APPID
5
9
100
AcDbSymbolTable
70
2
0
APPID
5
12
100
AcDbSymbolTableRecord
100
AcDbRegAppTableRecord
2
ACAD
70
0
0
ENDTAB
0
TABLE
2
DIMSTYLE
5
A
100
AcDbSymbolTable
70
1
0
ENDTAB
0
TABLE
2
BLOCK_RECORD
5
1
100
AcDbSymbolTable
70
1
0
BLOCK_RECORD
5
1F
100
AcDbSymbolTableRecord
100
AcDbBlockTableRecord
2
*MODEL_SPACE
0
BLOCK_RECORD
5
1B
100
AcDbSymbolTableRecord
100
AcDbBlockTableRecord
2
*PAPER_SPACE
0
ENDTAB
0
ENDSEC
0
SECTION
2
BLOCKS
0
BLOCK
5
20
100
AcDbEntity
100
AcDbBlockBegin
2
*MODEL_SPACE
0
ENDBLK
5
21
100
AcDbEntity
100
AcDbBlockEnd
0
BLOCK
5
1C
100
AcDbEntity
100
AcDbBlockBegin
2
*PAPER_SPACE
0
ENDBLK
5
1D
100
AcDbEntity
100
AcDbBlockEnd
0
ENDSEC
0
SECTION
2
ENTITIES
0
LINE
5
100
100
AcDbEntity
8
0
100
AcDbLine
10
-37.901270189221975
20
21.882308546375931
30
0
11
-24.579800219209709
21
29.573462819564099
31
0
0
LINE
5
101
100
AcDbEntity
8
0
100
AcDbLine
10
-13.321469970012272
20
36.073462819563957
30
0
11
-6.4392935428259079e-14
21
43.764617092752033
31
0
0
LINE
5
102
100
AcDbEntity
8
0
100
AcDbLine
10
-6.4392935428259079e-14
20
43.764617092752033
30
0
11
13.321469970012224
21
36.073462819563979
31
0
0
LINE
5
103
100
AcDbEntity
8
0
100
AcDbLine
10
24.579800219209666
20
29.573462819564142
30
0
11
37.901270189221918
21
21.882308546376027
31
0
0
LINE
5
104
100
AcDbEntity
8
0
100
AcDbLine
10
-37.901270189221947
20
6.4999999999997957
30
0
11
-37.901270189221975
21
21.882308546375931
31
0
0
LINE
5
105
100
AcDbEntity
8
0
100
AcDbLine
10
37.901270189221918
20
21.882308546376027
30
0
11
37.901270189221933
21
6.4999999999998925
31
0
0
LINE
5
106
100
AcDbEntity
8
0
100
AcDbLine
10
37.901270189221947
20
-6.4999999999998002
30
0
11
37.901270189221925
21
-21.882308546376009
31
0
0
LINE
5
107
100
AcDbEntity
8
0
100
AcDbLine
10
37.901270189221925
20
-21.882308546376009
30
0
11
24.579800219209723
21
-29.573462819564085
31
0
0
LINE
5
108
100
AcDbEntity
8
0
100
AcDbLine
10
13.321469970012295
20
-36.07346281956395
30
0
11
1.3322676295501878e-14
21
-43.764617092752033
31
0
0
LINE
5
109
100
AcDbEntity
8
0
100
AcDbLine
10
1.3322676295501878e-14
20
-43.764617092752033
30
0
11
-13.32146997001221
21
-36.073462819563979
31
0
0
LINE
5
110
100
AcDbEntity
8
0
100
AcDbLine
10
-24.579800219209655
20
-29.573462819564146
30
0
11
-37.901270189221911
21
-21.882308546376031
31
0
0
LINE
5
111
100
AcDbEntity
8
0
100
AcDbLine
10
-37.901270189221933
20
-6.499999999999897
30
0
11
-37.901270189221911
21
-21.882308546376031
31
0
0
LINE
5
112
100
AcDbEntity
8
0
100
AcDbLine
10
37.901270189221947
20
-6.4999999999998002
30
0
11
48.701270189222008
21
-6.4999999999998295
31
0
0
LINE
5
113
100
AcDbEntity
8
0
100
AcDbLine
10
48.701270189222008
20
-6.4999999999998295
30
0
11
48.701270189221958
21
-21.882308546376038
31
0
0
LINE
5
114
100
AcDbEntity
8
0
100
AcDbLine
10
48.701270189221958
20
-21.882308546376038
30
0
11
62.022740159234118
21
-29.573462819564185
31
0
0
LINE
5
115
100
AcDbEntity
8
0
100
AcDbLine
10
62.022740159234118
20
-29.573462819564185
30
0
11
59.322740159234073
21
-34.250000000000213
31
0
0
LINE
5
116
100
AcDbEntity
8
0
100
AcDbLine
10
59.322740159234073
20
-34.250000000000213
30
0
11
70.58107040843143
21
-40.750000000000114
31
0
0
LINE
5
117
100
AcDbEntity
8
0
100
AcDbLine
10
70.58107040843143
20
-40.750000000000114
30
0
11
73.281070408431518
21
-36.073462819564106
31
0
0
LINE
5
118
100
AcDbEntity
8
0
100
AcDbLine
10
73.281070408431518
20
-36.073462819564106
30
0
11
86.602540378443749
21
-43.76461709275226
31
0
0
LINE
5
119
100
AcDbEntity
8
0
100
AcDbLine
10
86.602540378443749
20
-43.76461709275226
30
0
11
99.924010348456008
21
-36.073462819564277
31
0
0
LINE
5
120
100
AcDbEntity
8
0
100
AcDbLine
10
99.924010348456008
20
-36.073462819564277
30
0
11
102.62401034845604
21
-40.750000000000313
31
0
0
LINE
5
121
100
AcDbEntity
8
0
100
AcDbLine
10
102.62401034845604
20
-40.750000000000313
30
0
11
113.8823405976535
21
-34.250000000000561
31
0
0
LINE
5
122
100
AcDbEntity
8
0
100
AcDbLine
10
113.8823405976535
20
-34.250000000000561
30
0
11
111.18234059765349
21
-29.573462819564501
31
0
0
LINE
5
123
100
AcDbEntity
8
0
100
AcDbLine
10
111.18234059765349
20
-29.573462819564501
30
0
11
124.50381056766579
21
-21.882308546376457
31
0
0
LINE
5
124
100
AcDbEntity
8
0
100
AcDbLine
10
124.50381056766579
20
-21.882308546376457
30
0
11
124.50381056766589
21
-6.5000000000003215
31
0
0
LINE
5
125
100
AcDbEntity
8
0
100
AcDbLine
10
124.50381056766589
20
-6.5000000000003215
30
0
11
129.90381056766597
21
-6.5000000000003366
31
0
0
LINE
5
126
100
AcDbEntity
8
0
100
AcDbLine
10
129.90381056766597
20
-6.5000000000003366
30
0
11
129.90381056766606
21
6.4999999999993152
31
0
0
LINE
5
127
100
AcDbEntity
8
0
100
AcDbLine
10
129.90381056766606
20
6.4999999999993152
30
0
11
124.50381056766599
21
6.4999999999993721
31
0
0
LINE
5
128
100
AcDbEntity
8
0
100
AcDbLine
10
124.50381056766599
20
6.4999999999993721
30
0
11
124.50381056766609
21
21.882308546375505
31
0
0
LINE
5
129
100
AcDbEntity
8
0
100
AcDbLine
10
124.50381056766609
20
21.882308546375505
30
0
11
111.18234059765386
21
29.573462819563744
31
0
0
LINE
5
130
100
AcDbEntity
8
0
100
AcDbLine
10
111.18234059765386
20
29.573462819563744
30
0
11
113.88234059765392
21
34.24999999999978
31
0
0
LINE
5
131
100
AcDbEntity
8
0
100
AcDbLine
10
113.88234059765392
20
34.24999999999978
30
0
11
102.62401034845654
21
40.749999999999673
31
0
0
LINE
5
132
100
AcDbEntity
8
0
100
AcDbLine
10
102.62401034845654
20
40.749999999999673
30
0
11
99.924010348456449
21
36.073462819563659
31
0
0
LINE
5
133
100
AcDbEntity
8
0
100
AcDbLine
10
99.924010348456449
20
36.073462819563659
30
0
11
86.602540378444274
21
43.764617092751799
31
0
0
LINE
5
134
100
AcDbEntity
8
0
100
AcDbLine
10
86.602540378444274
20
43.764617092751799
30
0
11
73.281070408431958
21
36.073462819563822
31
0
0
LINE
5
135
100
AcDbEntity
8
0
100
AcDbLine
10
73.281070408431958
20
36.073462819563822
30
0
11
70.581070408431941
21
40.749999999999851
31
0
0
LINE
5
136
100
AcDbEntity
8
0
100
AcDbLine
10
70.581070408431941
20
40.749999999999851
30
0
11
59.322740159234499
21
34.250000000000107
31
0
0
LINE
5
137
100
AcDbEntity
8
0
100
AcDbLine
10
59.322740159234499
20
34.250000000000107
30
0
11
62.022740159234488
21
29.573462819564043
31
0
0
LINE
5
138
100
AcDbEntity
8
0
100
AcDbLine
10
62.022740159234488
20
29.573462819564043
30
0
11
48.701270189222193
21
21.882308546376002
31
0
0
LINE
5
139
100
AcDbEntity
8
0
100
AcDbLine
10
48.701270189222193
20
21.882308546376002
30
0
11
48.7012701892221
21
6.4999999999998632
31
0
0
LINE
5
140
100
AcDbEntity
8
0
100
AcDbLine
10
48.7012701892221
20
6.4999999999998632
30
0
11
37.901270189221933
21
6.4999999999998925
31
0
0
LINE
5
141
100
AcDbEntity
8
0
100
AcDbLine
10
24.579800219209666
20
29.573462819564142
30
0
11
27.279800219209676
21
34.250000000000192
31
0
0
LINE
5
142
100
AcDbEntity
8
0
100
AcDbLine
10
27.279800219209676
20
34.250000000000192
30
0
11
16.021469970012273
21
40.75
31
0
0
LINE
5
143
100
AcDbEntity
8
0
100
AcDbLine
10
-13.321469970012272
20
36.073462819563957
30
0
11
-16.021469970012333
21
40.749999999999972
31
0
0
LINE
5
144
100
AcDbEntity
8
0
100
AcDbLine
10
-16.021469970012333
20
40.749999999999972
30
0
11
-27.279800219209733
21
34.250000000000149
31
0
0
LINE
5
145
100
AcDbEntity
8
0
100
AcDbLine
10
-27.279800219209733
20
34.250000000000149
30
0
11
-24.579800219209709
21
29.573462819564099
31
0
0
LINE
5
146
100
AcDbEntity
8
0
100
AcDbLine
10
16.021469970012273
20
40.75
30
0
11
13.321469970012224
21
36.073462819563979
31
0
0
LINE
5
147
100
AcDbEntity
8
0
100
AcDbLine
10
-37.901270189221947
20
6.4999999999997957
30
0
11
-43.301270189222024
21
6.4999999999997682
31
0
0
LINE
5
148
100
AcDbEntity
8
0
100
AcDbLine
10
-43.301270189222024
20
6.4999999999997682
30
0
11
-43.301270189222009
21
-6.4999999999998836
31
0
0
LINE
5
149
100
AcDbEntity
8
0
100
AcDbLine
10
-43.301270189222009
20
-6.4999999999998836
30
0
11
-37.901270189221933
21
-6.499999999999897
31
0
0
LINE
5
150
100
AcDbEntity
8
0
100
AcDbLine
10
-24.579800219209655
20
-29.573462819564146
30
0
11
-27.279800219209669
21
-34.250000000000192
31
0
0
LINE
5
151
100
AcDbEntity
8
0
100
AcDbLine
10
-27.279800219209669
20
-34.250000000000192
30
0
11
-16.021469970012259
21
-40.75
31
0
0
LINE
5
152
100
AcDbEntity
8
0
100
AcDbLine
10
-16.021469970012259
20
-40.75
30
0
11
-13.32146997001221
21
-36.073462819563979
31
0
0
LINE
5
153
100
AcDbEntity
8
0
100
AcDbLine
10
13.321469970012295
20
-36.07346281956395
30
0
11
16.021469970012351
21
-40.749999999999972
31
0
0
LINE
5
154
100
AcDbEntity
8
0
100
AcDbLine
10
16.021469970012351
20
-40.749999999999972
30
0
11
27.279800219209747
21
-34.250000000000128
31
0
0
LINE
5
155
100
AcDbEntity
8
0
100
AcDbLine
10
27.279800219209747
20
-34.250000000000128
30
0
11
24.579800219209723
21
-29.573462819564085
31
0
0
ENDSEC
0
SECTION
2
OBJECTS
0
DICTIONARY
5
C
100
AcDbDictionary
3
ACAD_GROUP
350
D
3
ACAD_MLINESTYLE
350
17
0
DICTIONARY
5
D
100
AcDbDictionary
0
DICTIONARY
5
1A
330
C
100
AcDbDictionary
0
DICTIONARY
5
17
100
AcDbDictionary
0
ENDSEC
0
EOF
