%TF.GenerationSoftware,KiCad,Pcbnew,(5.1.9)-1*%
%TF.CreationDate,2021-06-09T00:59:48-05:00*%
%TF.ProjectId,neopixel_hexigons,6e656f70-6978-4656-9c5f-68657869676f,rev?*%
%TF.SameCoordinates,Original*%
%TF.FileFunction,Copper,L2,Bot*%
%TF.FilePolarity,Positive*%
%FSLAX46Y46*%
G04 Gerber Fmt 4.6, Leading zero omitted, Abs format (unit mm)*
G04 Created by KiCad (PCBNEW (5.1.9)-1) date 2021-06-09 00:59:48*
%MOMM*%
%LPD*%
G01*
G04 APERTURE LIST*
%TA.AperFunction,ViaPad*%
%ADD10C,0.800000*%
%TD*%
%TA.AperFunction,Conductor*%
%ADD11C,0.250000*%
%TD*%
G04 APERTURE END LIST*
%TO.P,HP19,1*%
%TO.N,+5V*%
%TA.AperFunction,ComponentPad*%
G36*
G01*
X88872207Y-136622138D02*
X88322207Y-137574766D01*
G75*
G02*
X87980701Y-137666272I-216506J125000D01*
G01*
X87028073Y-137116272D01*
G75*
G02*
X86936567Y-136774766I125000J216506D01*
G01*
X87486567Y-135822138D01*
G75*
G02*
X87828073Y-135730632I216506J-125000D01*
G01*
X88780701Y-136280632D01*
G75*
G02*
X88872207Y-136622138I-125000J-216506D01*
G01*
G37*
%TD.AperFunction*%
%TD*%
%TO.P,HG19,1*%
%TO.N,GND*%
%TA.AperFunction,ComponentPad*%
G36*
G01*
X86617510Y-135320388D02*
X86067510Y-136273016D01*
G75*
G02*
X85726004Y-136364522I-216506J125000D01*
G01*
X84773376Y-135814522D01*
G75*
G02*
X84681870Y-135473016I125000J216506D01*
G01*
X85231870Y-134520388D01*
G75*
G02*
X85573376Y-134428882I216506J-125000D01*
G01*
X86526004Y-134978882D01*
G75*
G02*
X86617510Y-135320388I-125000J-216506D01*
G01*
G37*
%TD.AperFunction*%
%TD*%
%TO.P,HG20,1*%
%TO.N,GND*%
%TA.AperFunction,ComponentPad*%
G36*
G01*
X82108116Y-132716889D02*
X81558116Y-133669517D01*
G75*
G02*
X81216610Y-133761023I-216506J125000D01*
G01*
X80263982Y-133211023D01*
G75*
G02*
X80172476Y-132869517I125000J216506D01*
G01*
X80722476Y-131916889D01*
G75*
G02*
X81063982Y-131825383I216506J-125000D01*
G01*
X82016610Y-132375383D01*
G75*
G02*
X82108116Y-132716889I-125000J-216506D01*
G01*
G37*
%TD.AperFunction*%
%TD*%
%TO.P,HP20,1*%
%TO.N,+5V*%
%TA.AperFunction,ComponentPad*%
G36*
G01*
X79853418Y-131415139D02*
X79303418Y-132367767D01*
G75*
G02*
X78961912Y-132459273I-216506J125000D01*
G01*
X78009284Y-131909273D01*
G75*
G02*
X77917778Y-131567767I125000J216506D01*
G01*
X78467778Y-130615139D01*
G75*
G02*
X78809284Y-130523633I216506J-125000D01*
G01*
X79761912Y-131073633D01*
G75*
G02*
X79853418Y-131415139I-125000J-216506D01*
G01*
G37*
%TD.AperFunction*%
%TD*%
%TO.P,HG17,1*%
%TO.N,GND*%
%TA.AperFunction,ComponentPad*%
G36*
G01*
X128056578Y-131877117D02*
X128606578Y-132829745D01*
G75*
G02*
X128515072Y-133171251I-216506J-125000D01*
G01*
X127562444Y-133721251D01*
G75*
G02*
X127220938Y-133629745I-125000J216506D01*
G01*
X126670938Y-132677117D01*
G75*
G02*
X126762444Y-132335611I216506J125000D01*
G01*
X127715072Y-131785611D01*
G75*
G02*
X128056578Y-131877117I125000J-216506D01*
G01*
G37*
%TD.AperFunction*%
%TD*%
%TO.P,HG18,1*%
%TO.N,GND*%
%TA.AperFunction,ComponentPad*%
G36*
G01*
X123547184Y-134480618D02*
X124097184Y-135433246D01*
G75*
G02*
X124005678Y-135774752I-216506J-125000D01*
G01*
X123053050Y-136324752D01*
G75*
G02*
X122711544Y-136233246I-125000J216506D01*
G01*
X122161544Y-135280618D01*
G75*
G02*
X122253050Y-134939112I216506J125000D01*
G01*
X123205678Y-134389112D01*
G75*
G02*
X123547184Y-134480618I125000J-216506D01*
G01*
G37*
%TD.AperFunction*%
%TD*%
%TO.P,HS10,1*%
%TO.N,Net-(HS10-Pad1)*%
%TA.AperFunction,ComponentPad*%
G36*
G01*
X84362813Y-134018639D02*
X83812813Y-134971267D01*
G75*
G02*
X83471307Y-135062773I-216506J125000D01*
G01*
X82518679Y-134512773D01*
G75*
G02*
X82427173Y-134171267I125000J216506D01*
G01*
X82977173Y-133218639D01*
G75*
G02*
X83318679Y-133127133I216506J-125000D01*
G01*
X84271307Y-133677133D01*
G75*
G02*
X84362813Y-134018639I-125000J-216506D01*
G01*
G37*
%TD.AperFunction*%
%TD*%
%TO.P,HP17,1*%
%TO.N,+5V*%
%TA.AperFunction,ComponentPad*%
G36*
G01*
X130311275Y-130575366D02*
X130861275Y-131527994D01*
G75*
G02*
X130769769Y-131869500I-216506J-125000D01*
G01*
X129817141Y-132419500D01*
G75*
G02*
X129475635Y-132327994I-125000J216506D01*
G01*
X128925635Y-131375366D01*
G75*
G02*
X129017141Y-131033860I216506J125000D01*
G01*
X129969769Y-130483860D01*
G75*
G02*
X130311275Y-130575366I125000J-216506D01*
G01*
G37*
%TD.AperFunction*%
%TD*%
%TO.P,HP18,1*%
%TO.N,+5V*%
%TA.AperFunction,ComponentPad*%
G36*
G01*
X121292487Y-135782368D02*
X121842487Y-136734996D01*
G75*
G02*
X121750981Y-137076502I-216506J-125000D01*
G01*
X120798353Y-137626502D01*
G75*
G02*
X120456847Y-137534996I-125000J216506D01*
G01*
X119906847Y-136582368D01*
G75*
G02*
X119998353Y-136240862I216506J125000D01*
G01*
X120950981Y-135690862D01*
G75*
G02*
X121292487Y-135782368I125000J-216506D01*
G01*
G37*
%TD.AperFunction*%
%TD*%
%TO.P,HS9,1*%
%TO.N,Net-(HS9-Pad1)*%
%TA.AperFunction,ComponentPad*%
G36*
G01*
X125801881Y-133178868D02*
X126351881Y-134131496D01*
G75*
G02*
X126260375Y-134473002I-216506J-125000D01*
G01*
X125307747Y-135023002D01*
G75*
G02*
X124966241Y-134931496I-125000J216506D01*
G01*
X124416241Y-133978868D01*
G75*
G02*
X124507747Y-133637362I216506J125000D01*
G01*
X125460375Y-133087362D01*
G75*
G02*
X125801881Y-133178868I125000J-216506D01*
G01*
G37*
%TD.AperFunction*%
%TD*%
%TO.P,HG15,1*%
%TO.N,GND*%
%TA.AperFunction,ComponentPad*%
G36*
G01*
X173212284Y-135295233D02*
X172662284Y-136247861D01*
G75*
G02*
X172320778Y-136339367I-216506J125000D01*
G01*
X171368150Y-135789367D01*
G75*
G02*
X171276644Y-135447861I125000J216506D01*
G01*
X171826644Y-134495233D01*
G75*
G02*
X172168150Y-134403727I216506J-125000D01*
G01*
X173120778Y-134953727D01*
G75*
G02*
X173212284Y-135295233I-125000J-216506D01*
G01*
G37*
%TD.AperFunction*%
%TD*%
%TO.P,HG16,1*%
%TO.N,GND*%
%TA.AperFunction,ComponentPad*%
G36*
G01*
X168702889Y-132691733D02*
X168152889Y-133644361D01*
G75*
G02*
X167811383Y-133735867I-216506J125000D01*
G01*
X166858755Y-133185867D01*
G75*
G02*
X166767249Y-132844361I125000J216506D01*
G01*
X167317249Y-131891733D01*
G75*
G02*
X167658755Y-131800227I216506J-125000D01*
G01*
X168611383Y-132350227D01*
G75*
G02*
X168702889Y-132691733I-125000J-216506D01*
G01*
G37*
%TD.AperFunction*%
%TD*%
%TO.P,HP15,1*%
%TO.N,+5V*%
%TA.AperFunction,ComponentPad*%
G36*
G01*
X175466980Y-136596982D02*
X174916980Y-137549610D01*
G75*
G02*
X174575474Y-137641116I-216506J125000D01*
G01*
X173622846Y-137091116D01*
G75*
G02*
X173531340Y-136749610I125000J216506D01*
G01*
X174081340Y-135796982D01*
G75*
G02*
X174422846Y-135705476I216506J-125000D01*
G01*
X175375474Y-136255476D01*
G75*
G02*
X175466980Y-136596982I-125000J-216506D01*
G01*
G37*
%TD.AperFunction*%
%TD*%
%TO.P,HP16,1*%
%TO.N,+5V*%
%TA.AperFunction,ComponentPad*%
G36*
G01*
X166448192Y-131389983D02*
X165898192Y-132342611D01*
G75*
G02*
X165556686Y-132434117I-216506J125000D01*
G01*
X164604058Y-131884117D01*
G75*
G02*
X164512552Y-131542611I125000J216506D01*
G01*
X165062552Y-130589983D01*
G75*
G02*
X165404058Y-130498477I216506J-125000D01*
G01*
X166356686Y-131048477D01*
G75*
G02*
X166448192Y-131389983I-125000J-216506D01*
G01*
G37*
%TD.AperFunction*%
%TD*%
%TO.P,HS8,1*%
%TO.N,Net-(HS8-Pad1)*%
%TA.AperFunction,ComponentPad*%
G36*
G01*
X170957586Y-133993483D02*
X170407586Y-134946111D01*
G75*
G02*
X170066080Y-135037617I-216506J125000D01*
G01*
X169113452Y-134487617D01*
G75*
G02*
X169021946Y-134146111I125000J216506D01*
G01*
X169571946Y-133193483D01*
G75*
G02*
X169913452Y-133101977I216506J-125000D01*
G01*
X170866080Y-133651977D01*
G75*
G02*
X170957586Y-133993483I-125000J-216506D01*
G01*
G37*
%TD.AperFunction*%
%TD*%
%TO.P,HG13,1*%
%TO.N,GND*%
%TA.AperFunction,ComponentPad*%
G36*
G01*
X214661743Y-131879056D02*
X215211743Y-132831684D01*
G75*
G02*
X215120237Y-133173190I-216506J-125000D01*
G01*
X214167609Y-133723190D01*
G75*
G02*
X213826103Y-133631684I-125000J216506D01*
G01*
X213276103Y-132679056D01*
G75*
G02*
X213367609Y-132337550I216506J125000D01*
G01*
X214320237Y-131787550D01*
G75*
G02*
X214661743Y-131879056I125000J-216506D01*
G01*
G37*
%TD.AperFunction*%
%TD*%
%TO.P,HP13,1*%
%TO.N,+5V*%
%TA.AperFunction,ComponentPad*%
G36*
G01*
X216916440Y-130577306D02*
X217466440Y-131529934D01*
G75*
G02*
X217374934Y-131871440I-216506J-125000D01*
G01*
X216422306Y-132421440D01*
G75*
G02*
X216080800Y-132329934I-125000J216506D01*
G01*
X215530800Y-131377306D01*
G75*
G02*
X215622306Y-131035800I216506J125000D01*
G01*
X216574934Y-130485800D01*
G75*
G02*
X216916440Y-130577306I125000J-216506D01*
G01*
G37*
%TD.AperFunction*%
%TD*%
%TO.P,HG14,1*%
%TO.N,GND*%
%TA.AperFunction,ComponentPad*%
G36*
G01*
X210152350Y-134482556D02*
X210702350Y-135435184D01*
G75*
G02*
X210610844Y-135776690I-216506J-125000D01*
G01*
X209658216Y-136326690D01*
G75*
G02*
X209316710Y-136235184I-125000J216506D01*
G01*
X208766710Y-135282556D01*
G75*
G02*
X208858216Y-134941050I216506J125000D01*
G01*
X209810844Y-134391050D01*
G75*
G02*
X210152350Y-134482556I125000J-216506D01*
G01*
G37*
%TD.AperFunction*%
%TD*%
%TO.P,HP14,1*%
%TO.N,+5V*%
%TA.AperFunction,ComponentPad*%
G36*
G01*
X207897652Y-135784307D02*
X208447652Y-136736935D01*
G75*
G02*
X208356146Y-137078441I-216506J-125000D01*
G01*
X207403518Y-137628441D01*
G75*
G02*
X207062012Y-137536935I-125000J216506D01*
G01*
X206512012Y-136584307D01*
G75*
G02*
X206603518Y-136242801I216506J125000D01*
G01*
X207556146Y-135692801D01*
G75*
G02*
X207897652Y-135784307I125000J-216506D01*
G01*
G37*
%TD.AperFunction*%
%TD*%
%TO.P,HS7,1*%
%TO.N,Net-(HS7-Pad1)*%
%TA.AperFunction,ComponentPad*%
G36*
G01*
X212407047Y-133180807D02*
X212957047Y-134133435D01*
G75*
G02*
X212865541Y-134474941I-216506J-125000D01*
G01*
X211912913Y-135024941D01*
G75*
G02*
X211571407Y-134933435I-125000J216506D01*
G01*
X211021407Y-133980807D01*
G75*
G02*
X211112913Y-133639301I216506J125000D01*
G01*
X212065541Y-133089301D01*
G75*
G02*
X212407047Y-133180807I125000J-216506D01*
G01*
G37*
%TD.AperFunction*%
%TD*%
%TO.P,HS4,1*%
%TO.N,Net-(HS4-Pad1)*%
%TA.AperFunction,ComponentPad*%
G36*
G01*
X169558981Y-62205657D02*
X169008981Y-61253029D01*
G75*
G02*
X169100487Y-60911523I216506J125000D01*
G01*
X170053115Y-60361523D01*
G75*
G02*
X170394621Y-60453029I125000J-216506D01*
G01*
X170944621Y-61405657D01*
G75*
G02*
X170853115Y-61747163I-216506J-125000D01*
G01*
X169900487Y-62297163D01*
G75*
G02*
X169558981Y-62205657I-125000J216506D01*
G01*
G37*
%TD.AperFunction*%
%TD*%
%TO.P,HP7,1*%
%TO.N,+5V*%
%TA.AperFunction,ComponentPad*%
G36*
G01*
X165049586Y-64809157D02*
X164499586Y-63856529D01*
G75*
G02*
X164591092Y-63515023I216506J125000D01*
G01*
X165543720Y-62965023D01*
G75*
G02*
X165885226Y-63056529I125000J-216506D01*
G01*
X166435226Y-64009157D01*
G75*
G02*
X166343720Y-64350663I-216506J-125000D01*
G01*
X165391092Y-64900663D01*
G75*
G02*
X165049586Y-64809157I-125000J216506D01*
G01*
G37*
%TD.AperFunction*%
%TD*%
%TO.P,HG7,1*%
%TO.N,GND*%
%TA.AperFunction,ComponentPad*%
G36*
G01*
X167304283Y-63507407D02*
X166754283Y-62554779D01*
G75*
G02*
X166845789Y-62213273I216506J125000D01*
G01*
X167798417Y-61663273D01*
G75*
G02*
X168139923Y-61754779I125000J-216506D01*
G01*
X168689923Y-62707407D01*
G75*
G02*
X168598417Y-63048913I-216506J-125000D01*
G01*
X167645789Y-63598913D01*
G75*
G02*
X167304283Y-63507407I-125000J216506D01*
G01*
G37*
%TD.AperFunction*%
%TD*%
%TO.P,HP8,1*%
%TO.N,+5V*%
%TA.AperFunction,ComponentPad*%
G36*
G01*
X174068375Y-59602157D02*
X173518375Y-58649529D01*
G75*
G02*
X173609881Y-58308023I216506J125000D01*
G01*
X174562509Y-57758023D01*
G75*
G02*
X174904015Y-57849529I125000J-216506D01*
G01*
X175454015Y-58802157D01*
G75*
G02*
X175362509Y-59143663I-216506J-125000D01*
G01*
X174409881Y-59693663D01*
G75*
G02*
X174068375Y-59602157I-125000J216506D01*
G01*
G37*
%TD.AperFunction*%
%TD*%
%TO.P,HG8,1*%
%TO.N,GND*%
%TA.AperFunction,ComponentPad*%
G36*
G01*
X171813678Y-60903907D02*
X171263678Y-59951279D01*
G75*
G02*
X171355184Y-59609773I216506J125000D01*
G01*
X172307812Y-59059773D01*
G75*
G02*
X172649318Y-59151279I125000J-216506D01*
G01*
X173199318Y-60103907D01*
G75*
G02*
X173107812Y-60445413I-216506J-125000D01*
G01*
X172155184Y-60995413D01*
G75*
G02*
X171813678Y-60903907I-125000J216506D01*
G01*
G37*
%TD.AperFunction*%
%TD*%
%TO.P,HS6,1*%
%TO.N,Net-(HS6-Pad1)*%
%TA.AperFunction,ComponentPad*%
G36*
G01*
X232426348Y-96916646D02*
X233526348Y-96916646D01*
G75*
G02*
X233776348Y-97166646I0J-250000D01*
G01*
X233776348Y-98266646D01*
G75*
G02*
X233526348Y-98516646I-250000J0D01*
G01*
X232426348Y-98516646D01*
G75*
G02*
X232176348Y-98266646I0J250000D01*
G01*
X232176348Y-97166646D01*
G75*
G02*
X232426348Y-96916646I250000J0D01*
G01*
G37*
%TD.AperFunction*%
%TD*%
%TO.P,HS5,1*%
%TO.N,Net-(HS5-Pad1)*%
%TA.AperFunction,ComponentPad*%
G36*
G01*
X211030174Y-61407432D02*
X211580174Y-60454804D01*
G75*
G02*
X211921680Y-60363298I216506J-125000D01*
G01*
X212874308Y-60913298D01*
G75*
G02*
X212965814Y-61254804I-125000J-216506D01*
G01*
X212415814Y-62207432D01*
G75*
G02*
X212074308Y-62298938I-216506J125000D01*
G01*
X211121680Y-61748938D01*
G75*
G02*
X211030174Y-61407432I125000J216506D01*
G01*
G37*
%TD.AperFunction*%
%TD*%
%TO.P,HS3,1*%
%TO.N,Net-(HS3-Pad1)*%
%TA.AperFunction,ComponentPad*%
G36*
G01*
X124409962Y-61398112D02*
X124959962Y-60445484D01*
G75*
G02*
X125301468Y-60353978I216506J-125000D01*
G01*
X126254096Y-60903978D01*
G75*
G02*
X126345602Y-61245484I-125000J-216506D01*
G01*
X125795602Y-62198112D01*
G75*
G02*
X125454096Y-62289618I-216506J125000D01*
G01*
X124501468Y-61739618D01*
G75*
G02*
X124409962Y-61398112I125000J216506D01*
G01*
G37*
%TD.AperFunction*%
%TD*%
%TO.P,HS2,1*%
%TO.N,Net-(HS2-Pad1)*%
%TA.AperFunction,ComponentPad*%
G36*
G01*
X82946646Y-62185412D02*
X82396646Y-61232784D01*
G75*
G02*
X82488152Y-60891278I216506J125000D01*
G01*
X83440780Y-60341278D01*
G75*
G02*
X83782286Y-60432784I125000J-216506D01*
G01*
X84332286Y-61385412D01*
G75*
G02*
X84240780Y-61726918I-216506J-125000D01*
G01*
X83288152Y-62276918D01*
G75*
G02*
X82946646Y-62185412I-125000J216506D01*
G01*
G37*
%TD.AperFunction*%
%TD*%
%TO.P,HP12,1*%
%TO.N,+5V*%
%TA.AperFunction,ComponentPad*%
G36*
G01*
X232426348Y-102123646D02*
X233526348Y-102123646D01*
G75*
G02*
X233776348Y-102373646I0J-250000D01*
G01*
X233776348Y-103473646D01*
G75*
G02*
X233526348Y-103723646I-250000J0D01*
G01*
X232426348Y-103723646D01*
G75*
G02*
X232176348Y-103473646I0J250000D01*
G01*
X232176348Y-102373646D01*
G75*
G02*
X232426348Y-102123646I250000J0D01*
G01*
G37*
%TD.AperFunction*%
%TD*%
%TO.P,HG12,1*%
%TO.N,GND*%
%TA.AperFunction,ComponentPad*%
G36*
G01*
X232426348Y-99520146D02*
X233526348Y-99520146D01*
G75*
G02*
X233776348Y-99770146I0J-250000D01*
G01*
X233776348Y-100870146D01*
G75*
G02*
X233526348Y-101120146I-250000J0D01*
G01*
X232426348Y-101120146D01*
G75*
G02*
X232176348Y-100870146I0J250000D01*
G01*
X232176348Y-99770146D01*
G75*
G02*
X232426348Y-99520146I250000J0D01*
G01*
G37*
%TD.AperFunction*%
%TD*%
%TO.P,HP11,1*%
%TO.N,+5V*%
%TA.AperFunction,ComponentPad*%
G36*
G01*
X232426347Y-91709647D02*
X233526347Y-91709647D01*
G75*
G02*
X233776347Y-91959647I0J-250000D01*
G01*
X233776347Y-93059647D01*
G75*
G02*
X233526347Y-93309647I-250000J0D01*
G01*
X232426347Y-93309647D01*
G75*
G02*
X232176347Y-93059647I0J250000D01*
G01*
X232176347Y-91959647D01*
G75*
G02*
X232426347Y-91709647I250000J0D01*
G01*
G37*
%TD.AperFunction*%
%TD*%
%TO.P,HG11,1*%
%TO.N,GND*%
%TA.AperFunction,ComponentPad*%
G36*
G01*
X232426347Y-94313146D02*
X233526347Y-94313146D01*
G75*
G02*
X233776347Y-94563146I0J-250000D01*
G01*
X233776347Y-95663146D01*
G75*
G02*
X233526347Y-95913146I-250000J0D01*
G01*
X232426347Y-95913146D01*
G75*
G02*
X232176347Y-95663146I0J250000D01*
G01*
X232176347Y-94563146D01*
G75*
G02*
X232426347Y-94313146I250000J0D01*
G01*
G37*
%TD.AperFunction*%
%TD*%
%TO.P,HP10,1*%
%TO.N,+5V*%
%TA.AperFunction,ComponentPad*%
G36*
G01*
X215539569Y-64010932D02*
X216089569Y-63058304D01*
G75*
G02*
X216431075Y-62966798I216506J-125000D01*
G01*
X217383703Y-63516798D01*
G75*
G02*
X217475209Y-63858304I-125000J-216506D01*
G01*
X216925209Y-64810932D01*
G75*
G02*
X216583703Y-64902438I-216506J125000D01*
G01*
X215631075Y-64352438D01*
G75*
G02*
X215539569Y-64010932I125000J216506D01*
G01*
G37*
%TD.AperFunction*%
%TD*%
%TO.P,HG10,1*%
%TO.N,GND*%
%TA.AperFunction,ComponentPad*%
G36*
G01*
X213284871Y-62709182D02*
X213834871Y-61756554D01*
G75*
G02*
X214176377Y-61665048I216506J-125000D01*
G01*
X215129005Y-62215048D01*
G75*
G02*
X215220511Y-62556554I-125000J-216506D01*
G01*
X214670511Y-63509182D01*
G75*
G02*
X214329005Y-63600688I-216506J125000D01*
G01*
X213376377Y-63050688D01*
G75*
G02*
X213284871Y-62709182I125000J216506D01*
G01*
G37*
%TD.AperFunction*%
%TD*%
%TO.P,HP9,1*%
%TO.N,+5V*%
%TA.AperFunction,ComponentPad*%
G36*
G01*
X206520780Y-58803932D02*
X207070780Y-57851304D01*
G75*
G02*
X207412286Y-57759798I216506J-125000D01*
G01*
X208364914Y-58309798D01*
G75*
G02*
X208456420Y-58651304I-125000J-216506D01*
G01*
X207906420Y-59603932D01*
G75*
G02*
X207564914Y-59695438I-216506J125000D01*
G01*
X206612286Y-59145438D01*
G75*
G02*
X206520780Y-58803932I125000J216506D01*
G01*
G37*
%TD.AperFunction*%
%TD*%
%TO.P,HG9,1*%
%TO.N,GND*%
%TA.AperFunction,ComponentPad*%
G36*
G01*
X208775477Y-60105682D02*
X209325477Y-59153054D01*
G75*
G02*
X209666983Y-59061548I216506J-125000D01*
G01*
X210619611Y-59611548D01*
G75*
G02*
X210711117Y-59953054I-125000J-216506D01*
G01*
X210161117Y-60905682D01*
G75*
G02*
X209819611Y-60997188I-216506J125000D01*
G01*
X208866983Y-60447188D01*
G75*
G02*
X208775477Y-60105682I125000J216506D01*
G01*
G37*
%TD.AperFunction*%
%TD*%
%TO.P,HP6,1*%
%TO.N,+5V*%
%TA.AperFunction,ComponentPad*%
G36*
G01*
X128919356Y-64001612D02*
X129469356Y-63048984D01*
G75*
G02*
X129810862Y-62957478I216506J-125000D01*
G01*
X130763490Y-63507478D01*
G75*
G02*
X130854996Y-63848984I-125000J-216506D01*
G01*
X130304996Y-64801612D01*
G75*
G02*
X129963490Y-64893118I-216506J125000D01*
G01*
X129010862Y-64343118D01*
G75*
G02*
X128919356Y-64001612I125000J216506D01*
G01*
G37*
%TD.AperFunction*%
%TD*%
%TO.P,HG6,1*%
%TO.N,GND*%
%TA.AperFunction,ComponentPad*%
G36*
G01*
X126664659Y-62699862D02*
X127214659Y-61747234D01*
G75*
G02*
X127556165Y-61655728I216506J-125000D01*
G01*
X128508793Y-62205728D01*
G75*
G02*
X128600299Y-62547234I-125000J-216506D01*
G01*
X128050299Y-63499862D01*
G75*
G02*
X127708793Y-63591368I-216506J125000D01*
G01*
X126756165Y-63041368D01*
G75*
G02*
X126664659Y-62699862I125000J216506D01*
G01*
G37*
%TD.AperFunction*%
%TD*%
%TO.P,HP5,1*%
%TO.N,+5V*%
%TA.AperFunction,ComponentPad*%
G36*
G01*
X119900568Y-58794612D02*
X120450568Y-57841984D01*
G75*
G02*
X120792074Y-57750478I216506J-125000D01*
G01*
X121744702Y-58300478D01*
G75*
G02*
X121836208Y-58641984I-125000J-216506D01*
G01*
X121286208Y-59594612D01*
G75*
G02*
X120944702Y-59686118I-216506J125000D01*
G01*
X119992074Y-59136118D01*
G75*
G02*
X119900568Y-58794612I125000J216506D01*
G01*
G37*
%TD.AperFunction*%
%TD*%
%TO.P,HG5,1*%
%TO.N,GND*%
%TA.AperFunction,ComponentPad*%
G36*
G01*
X122155265Y-60096362D02*
X122705265Y-59143734D01*
G75*
G02*
X123046771Y-59052228I216506J-125000D01*
G01*
X123999399Y-59602228D01*
G75*
G02*
X124090905Y-59943734I-125000J-216506D01*
G01*
X123540905Y-60896362D01*
G75*
G02*
X123199399Y-60987868I-216506J125000D01*
G01*
X122246771Y-60437868D01*
G75*
G02*
X122155265Y-60096362I125000J216506D01*
G01*
G37*
%TD.AperFunction*%
%TD*%
%TO.P,HP4,1*%
%TO.N,+5V*%
%TA.AperFunction,ComponentPad*%
G36*
G01*
X87456040Y-59581912D02*
X86906040Y-58629284D01*
G75*
G02*
X86997546Y-58287778I216506J125000D01*
G01*
X87950174Y-57737778D01*
G75*
G02*
X88291680Y-57829284I125000J-216506D01*
G01*
X88841680Y-58781912D01*
G75*
G02*
X88750174Y-59123418I-216506J-125000D01*
G01*
X87797546Y-59673418D01*
G75*
G02*
X87456040Y-59581912I-125000J216506D01*
G01*
G37*
%TD.AperFunction*%
%TD*%
%TO.P,HG4,1*%
%TO.N,GND*%
%TA.AperFunction,ComponentPad*%
G36*
G01*
X85201343Y-60883662D02*
X84651343Y-59931034D01*
G75*
G02*
X84742849Y-59589528I216506J125000D01*
G01*
X85695477Y-59039528D01*
G75*
G02*
X86036983Y-59131034I125000J-216506D01*
G01*
X86586983Y-60083662D01*
G75*
G02*
X86495477Y-60425168I-216506J-125000D01*
G01*
X85542849Y-60975168D01*
G75*
G02*
X85201343Y-60883662I-125000J216506D01*
G01*
G37*
%TD.AperFunction*%
%TD*%
%TO.P,HP3,1*%
%TO.N,+5V*%
%TA.AperFunction,ComponentPad*%
G36*
G01*
X78437252Y-64788912D02*
X77887252Y-63836284D01*
G75*
G02*
X77978758Y-63494778I216506J125000D01*
G01*
X78931386Y-62944778D01*
G75*
G02*
X79272892Y-63036284I125000J-216506D01*
G01*
X79822892Y-63988912D01*
G75*
G02*
X79731386Y-64330418I-216506J-125000D01*
G01*
X78778758Y-64880418D01*
G75*
G02*
X78437252Y-64788912I-125000J216506D01*
G01*
G37*
%TD.AperFunction*%
%TD*%
%TO.P,HG3,1*%
%TO.N,GND*%
%TA.AperFunction,ComponentPad*%
G36*
G01*
X80691949Y-63487162D02*
X80141949Y-62534534D01*
G75*
G02*
X80233455Y-62193028I216506J125000D01*
G01*
X81186083Y-61643028D01*
G75*
G02*
X81527589Y-61734534I125000J-216506D01*
G01*
X82077589Y-62687162D01*
G75*
G02*
X81986083Y-63028668I-216506J-125000D01*
G01*
X81033455Y-63578668D01*
G75*
G02*
X80691949Y-63487162I-125000J216506D01*
G01*
G37*
%TD.AperFunction*%
%TD*%
%TO.P,HP2,1*%
%TO.N,+5V*%
%TA.AperFunction,ComponentPad*%
G36*
G01*
X62957800Y-93306800D02*
X61857800Y-93306800D01*
G75*
G02*
X61607800Y-93056800I0J250000D01*
G01*
X61607800Y-91956800D01*
G75*
G02*
X61857800Y-91706800I250000J0D01*
G01*
X62957800Y-91706800D01*
G75*
G02*
X63207800Y-91956800I0J-250000D01*
G01*
X63207800Y-93056800D01*
G75*
G02*
X62957800Y-93306800I-250000J0D01*
G01*
G37*
%TD.AperFunction*%
%TD*%
%TO.P,HG2,1*%
%TO.N,GND*%
%TA.AperFunction,ComponentPad*%
G36*
G01*
X62957800Y-95910300D02*
X61857800Y-95910300D01*
G75*
G02*
X61607800Y-95660300I0J250000D01*
G01*
X61607800Y-94560300D01*
G75*
G02*
X61857800Y-94310300I250000J0D01*
G01*
X62957800Y-94310300D01*
G75*
G02*
X63207800Y-94560300I0J-250000D01*
G01*
X63207800Y-95660300D01*
G75*
G02*
X62957800Y-95910300I-250000J0D01*
G01*
G37*
%TD.AperFunction*%
%TD*%
%TO.P,HG1,1*%
%TO.N,GND*%
%TA.AperFunction,ComponentPad*%
G36*
G01*
X62957800Y-101117300D02*
X61857800Y-101117300D01*
G75*
G02*
X61607800Y-100867300I0J250000D01*
G01*
X61607800Y-99767300D01*
G75*
G02*
X61857800Y-99517300I250000J0D01*
G01*
X62957800Y-99517300D01*
G75*
G02*
X63207800Y-99767300I0J-250000D01*
G01*
X63207800Y-100867300D01*
G75*
G02*
X62957800Y-101117300I-250000J0D01*
G01*
G37*
%TD.AperFunction*%
%TD*%
%TO.P,HS1,1*%
%TO.N,Net-(HS1-Pad1)*%
%TA.AperFunction,ComponentPad*%
G36*
G01*
X62957800Y-98513800D02*
X61857800Y-98513800D01*
G75*
G02*
X61607800Y-98263800I0J250000D01*
G01*
X61607800Y-97163800D01*
G75*
G02*
X61857800Y-96913800I250000J0D01*
G01*
X62957800Y-96913800D01*
G75*
G02*
X63207800Y-97163800I0J-250000D01*
G01*
X63207800Y-98263800D01*
G75*
G02*
X62957800Y-98513800I-250000J0D01*
G01*
G37*
%TD.AperFunction*%
%TD*%
%TO.P,HP1,1*%
%TO.N,+5V*%
%TA.AperFunction,ComponentPad*%
G36*
G01*
X62957800Y-103720800D02*
X61857800Y-103720800D01*
G75*
G02*
X61607800Y-103470800I0J250000D01*
G01*
X61607800Y-102370800D01*
G75*
G02*
X61857800Y-102120800I250000J0D01*
G01*
X62957800Y-102120800D01*
G75*
G02*
X63207800Y-102370800I0J-250000D01*
G01*
X63207800Y-103470800D01*
G75*
G02*
X62957800Y-103720800I-250000J0D01*
G01*
G37*
%TD.AperFunction*%
%TD*%
D10*
%TO.N,GND*%
X91164586Y-133003114D03*
X128905000Y-126479300D03*
X141578539Y-103658461D03*
X153796334Y-103632666D03*
X153797000Y-91630500D03*
X141601543Y-91677843D03*
X166789100Y-68745100D03*
X228180900Y-91503500D03*
X117532536Y-62210564D03*
X67208400Y-104063800D03*
X177959372Y-133076328D03*
X204241400Y-62433200D03*
X214998606Y-126783794D03*
X80302100Y-68668900D03*
%TO.N,+5V*%
X90957400Y-63398400D03*
X81788000Y-68808600D03*
X67908000Y-92456000D03*
X127254000Y-68832915D03*
X118237000Y-63627000D03*
X67945000Y-102997000D03*
X90604313Y-131836187D03*
X140816822Y-92480163D03*
X154546300Y-92506800D03*
X154551216Y-102661884D03*
X140817600Y-102679500D03*
X168276713Y-68734113D03*
X213846234Y-68804966D03*
X227431600Y-102920800D03*
X227431600Y-92506800D03*
X177469800Y-63423800D03*
X213639400Y-126695200D03*
X204749400Y-63588900D03*
X204736700Y-131838700D03*
X168173400Y-126542800D03*
X177330100Y-131826000D03*
X127114300Y-126657100D03*
X118071900Y-131876800D03*
X81622900Y-126657100D03*
%TO.N,Net-(D1-Pad2)*%
X89750900Y-67208400D03*
X82003500Y-101840900D03*
%TO.N,Net-(D1-Pad4)*%
X85852000Y-68453000D03*
X120535700Y-66802000D03*
X69467795Y-98934205D03*
X139341121Y-94408521D03*
X172529500Y-68021200D03*
X207238600Y-66725800D03*
X225919492Y-96431908D03*
X156121249Y-94386549D03*
X156121209Y-100812709D03*
X139335038Y-100866738D03*
X209473800Y-127355600D03*
X174663100Y-128511300D03*
X122948700Y-127342900D03*
X87947500Y-128612900D03*
%TO.N,Net-(D2-Pad2)*%
X123774200Y-69596000D03*
X89611200Y-80467200D03*
%TO.N,Net-(D3-Pad2)*%
X138582400Y-100152200D03*
X111899700Y-76111100D03*
%TO.N,Net-(D4-Pad2)*%
X126809500Y-93268800D03*
X119189500Y-128638300D03*
%TO.N,Net-(D5-Pad2)*%
X84988400Y-126034800D03*
X118972656Y-115073756D03*
%TO.N,Net-(D6-Pad2)*%
X132321300Y-98513900D03*
X96626767Y-119019233D03*
%TO.N,Net-(D7-Pad2)*%
X176047400Y-66852800D03*
X168617920Y-101650820D03*
%TO.N,Net-(D8-Pad2)*%
X210121500Y-69278500D03*
X176293352Y-80370252D03*
%TO.N,Net-(D10-Pad4)*%
X198666100Y-76288900D03*
X225171000Y-100152200D03*
%TO.N,Net-(D10-Pad2)*%
X213397511Y-93776211D03*
X205892400Y-128473200D03*
%TO.N,Net-(D11-Pad2)*%
X205663800Y-115049300D03*
X171792900Y-125996700D03*
%TO.N,Net-(D12-Pad2)*%
X87680800Y-66370200D03*
X123317000Y-67437000D03*
X68707000Y-96393000D03*
X140080809Y-93446791D03*
X155359100Y-93408500D03*
X174345161Y-66115761D03*
X209905600Y-67411600D03*
X226670387Y-98983013D03*
X155342064Y-101760764D03*
X140061047Y-101732447D03*
X207708500Y-129235200D03*
X172046900Y-127901700D03*
X173228000Y-125793500D03*
X183253563Y-119120737D03*
X121132600Y-129260600D03*
X85483700Y-128041400D03*
%TD*%
D11*
%TO.N,GND*%
X81109769Y-62610848D02*
X83540600Y-66852800D01*
X83540600Y-66852800D02*
X88061800Y-64185800D01*
X85619163Y-60007348D02*
X88061800Y-64185800D01*
X67170300Y-100317300D02*
X67183000Y-100330000D01*
X62407800Y-100317300D02*
X67170300Y-100317300D01*
X62407800Y-95110300D02*
X67170300Y-95110300D01*
X67170300Y-95110300D02*
X67183000Y-95123000D01*
X67183000Y-100330000D02*
X67183000Y-95123000D01*
X123123085Y-60020048D02*
X120777000Y-64135000D01*
X127632479Y-62623548D02*
X125349000Y-66675000D01*
X117348000Y-62103000D02*
X104394000Y-54787800D01*
X141554200Y-76212700D02*
X117532536Y-62210564D01*
X141592300Y-119176800D02*
X141578539Y-103658461D01*
X104381300Y-140627100D02*
X91164586Y-133003114D01*
X104394000Y-54787800D02*
X88061800Y-64185800D01*
X128905000Y-126479300D02*
X141592300Y-119176800D01*
X141578539Y-103658461D02*
X141554200Y-76212700D01*
X170154271Y-66788971D02*
X174686329Y-64170929D01*
X214252691Y-62632868D02*
X211924900Y-66814700D01*
X211924900Y-66814700D02*
X228180900Y-76212700D01*
X190995300Y-54749700D02*
X174686329Y-64170929D01*
X209743297Y-60029368D02*
X207327500Y-64173100D01*
X207327500Y-64173100D02*
X190995300Y-54749700D01*
X207327500Y-64173100D02*
X211924900Y-66814700D01*
X232976348Y-100320146D02*
X228203454Y-100320146D01*
X232976347Y-95113146D02*
X228190754Y-95113146D01*
X174686329Y-64170929D02*
X172231498Y-60027593D01*
X170154271Y-66788971D02*
X167722103Y-62631093D01*
X153796334Y-103632666D02*
X153797000Y-91630500D01*
X153797000Y-76238100D02*
X170154271Y-66788971D01*
X153797000Y-91630500D02*
X153797000Y-76238100D01*
X228180900Y-76212700D02*
X228180900Y-91503500D01*
X117532536Y-62210564D02*
X117348000Y-62103000D01*
X67195700Y-103771700D02*
X67195700Y-119176800D01*
X67208400Y-104063800D02*
X67195700Y-103771700D01*
X67208400Y-104063800D02*
X67183000Y-100330000D01*
X191008000Y-140589000D02*
X177959372Y-133076328D01*
X228180900Y-95123000D02*
X228180900Y-91503500D01*
X228180900Y-119151400D02*
X228180900Y-95123000D01*
X211861400Y-128600200D02*
X214998606Y-126783794D01*
X211861400Y-128600200D02*
X214243923Y-132755370D01*
X214998606Y-126783794D02*
X228180900Y-119151400D01*
X211861400Y-128600200D02*
X207281070Y-131233470D01*
X207281070Y-131233470D02*
X191008000Y-140589000D01*
X207281070Y-131233470D02*
X209734530Y-135358870D01*
X177959372Y-133076328D02*
X174675800Y-131203700D01*
X153795470Y-119164100D02*
X153796334Y-103632666D01*
X172244464Y-135371547D02*
X174675800Y-131203700D01*
X174675800Y-131203700D02*
X170140662Y-128588738D01*
X170140662Y-128588738D02*
X153795470Y-119164100D01*
X170140662Y-128588738D02*
X167735069Y-132768047D01*
X128905000Y-126479300D02*
X125248592Y-128588692D01*
X125248592Y-128588692D02*
X127638758Y-132753431D01*
X125248592Y-128588692D02*
X120740442Y-131189458D01*
X120740442Y-131189458D02*
X104381300Y-140627100D01*
X120740442Y-131189458D02*
X123129364Y-135356932D01*
X88063772Y-131214428D02*
X91164586Y-133003114D01*
X88063772Y-131214428D02*
X85649690Y-135396702D01*
X67195700Y-119176800D02*
X83552563Y-128612163D01*
X83552563Y-128612163D02*
X88063772Y-131214428D01*
X83552563Y-128612163D02*
X81140296Y-132793203D01*
X83754481Y-66736481D02*
X83540600Y-66852800D01*
X67183000Y-76200000D02*
X67183000Y-95123000D01*
X80302100Y-68668900D02*
X83754481Y-66736481D01*
X69346901Y-74973001D02*
X67183000Y-76200000D01*
X80302100Y-68668900D02*
X69346901Y-74973001D01*
%TO.N,+5V*%
X81788000Y-68808600D02*
X90957400Y-63398400D01*
X118237000Y-63627000D02*
X127254000Y-68832915D01*
X104394000Y-55473600D02*
X90957400Y-63398400D01*
X118237000Y-63627000D02*
X104394000Y-55473600D01*
X67945000Y-102997000D02*
X67945000Y-76581000D01*
X67945000Y-76581000D02*
X81788000Y-68808600D01*
X140816822Y-92480163D02*
X140792200Y-76631800D01*
X140792200Y-76619100D02*
X127254000Y-68832915D01*
X154546300Y-92506800D02*
X154551216Y-102661884D01*
X154559000Y-76644500D02*
X154546300Y-92506800D01*
X140817600Y-102679500D02*
X140816822Y-92480163D01*
X140833874Y-118745000D02*
X140817600Y-102679500D01*
X168276713Y-68734113D02*
X154559000Y-76644500D01*
X213846234Y-68804966D02*
X227431600Y-76644500D01*
X227431600Y-76644500D02*
X227431600Y-92506800D01*
X227431600Y-92506800D02*
X227431600Y-102920800D01*
X177469800Y-63423800D02*
X168276713Y-68734113D01*
X191008000Y-55626000D02*
X177469800Y-63423800D01*
X213846234Y-68804966D02*
X204749400Y-63588900D01*
X204749400Y-63588900D02*
X191008000Y-55626000D01*
X227431600Y-118732300D02*
X227431600Y-102920800D01*
X204736700Y-131838700D02*
X227431600Y-118732300D01*
X154559000Y-118745000D02*
X154551216Y-102661884D01*
X168173400Y-126542800D02*
X154559000Y-118745000D01*
X177330100Y-131826000D02*
X168173400Y-126542800D01*
X191008000Y-139725400D02*
X204736700Y-131838700D01*
X177330100Y-131826000D02*
X191008000Y-139725400D01*
X127114300Y-126657100D02*
X140843000Y-118745000D01*
X127114300Y-126657100D02*
X118071900Y-131876800D01*
X104368600Y-139776200D02*
X90604313Y-131836187D01*
X118071900Y-131876800D02*
X104368600Y-139776200D01*
X67932300Y-118757700D02*
X67945000Y-102997000D01*
X81622900Y-126657100D02*
X67932300Y-118757700D01*
X81622900Y-126657100D02*
X90604313Y-131836187D01*
%TO.N,Net-(D1-Pad2)*%
X82003500Y-101840900D02*
X70345300Y-95046800D01*
X70231000Y-77851000D02*
X89750900Y-67208400D01*
X70345300Y-95046800D02*
X70231000Y-77851000D01*
%TO.N,Net-(D1-Pad4)*%
X69469000Y-77470000D02*
X85852000Y-68453000D01*
X69467795Y-98934205D02*
X69469000Y-77470000D01*
X104394000Y-57251600D02*
X120523000Y-66802000D01*
X85852000Y-68453000D02*
X104394000Y-57251600D01*
X139369800Y-77444600D02*
X120535700Y-66802000D01*
X139341121Y-94408521D02*
X139357100Y-77444600D01*
X207238600Y-66725800D02*
X225907600Y-77558900D01*
X190982600Y-57378600D02*
X172529500Y-68021200D01*
X207238600Y-66725800D02*
X190982600Y-57378600D01*
X225907600Y-77558900D02*
X225919492Y-96431908D01*
X156121249Y-94386549D02*
X156121209Y-100812709D01*
X156108400Y-77508100D02*
X172529500Y-68021200D01*
X156121249Y-94386549D02*
X156108400Y-77508100D01*
X139335038Y-100866738D02*
X139341121Y-94408521D01*
X209473800Y-127355600D02*
X225933000Y-117868700D01*
X225933000Y-117868700D02*
X225919492Y-96431908D01*
X156121100Y-117843300D02*
X156121209Y-100812709D01*
X191020700Y-137972800D02*
X209473800Y-127355600D01*
X174663100Y-128511300D02*
X191020700Y-137972800D01*
X174663100Y-128511300D02*
X156121100Y-117843300D01*
X139319000Y-117894100D02*
X139335038Y-100866738D01*
X122948700Y-127342900D02*
X139319000Y-117894100D01*
X87947500Y-128612900D02*
X104368600Y-138087100D01*
X69405500Y-117906800D02*
X69467795Y-98934205D01*
X87947500Y-128612900D02*
X69405500Y-117906800D01*
X104368600Y-138087100D02*
X122948700Y-127342900D01*
%TO.N,Net-(D2-Pad2)*%
X104394000Y-58089800D02*
X123774200Y-69596000D01*
X89611200Y-80467200D02*
X90678000Y-66548000D01*
X90678000Y-66548000D02*
X104394000Y-58089800D01*
%TO.N,Net-(D3-Pad2)*%
X138595100Y-77939900D02*
X138582400Y-100152200D01*
X125006100Y-70307200D02*
X138595100Y-77939900D01*
X114503200Y-71628000D02*
X125006100Y-70307200D01*
X111899700Y-76111100D02*
X114503200Y-71628000D01*
X138595100Y-77939900D02*
X138595100Y-77939900D01*
%TO.N,Net-(D4-Pad2)*%
X138531600Y-101003100D02*
X126809500Y-93268800D01*
X138645900Y-117462300D02*
X138531600Y-101003100D01*
X119189500Y-128638300D02*
X138645900Y-117462300D01*
%TO.N,Net-(D5-Pad2)*%
X104368600Y-137248900D02*
X84988400Y-126034800D01*
X118427500Y-129019300D02*
X104368600Y-137248900D01*
X118972656Y-115073756D02*
X118427500Y-129019300D01*
%TO.N,Net-(D6-Pad2)*%
X96626767Y-119019233D02*
X132321300Y-98513900D01*
%TO.N,Net-(D7-Pad2)*%
X156845000Y-77939900D02*
X176047400Y-66852800D01*
X156883100Y-92049600D02*
X156845000Y-77939900D01*
X168617920Y-101650820D02*
X156883100Y-92049600D01*
%TO.N,Net-(D8-Pad2)*%
X209765900Y-69202300D02*
X209765900Y-69202300D01*
X190982600Y-58229500D02*
X210121500Y-69278500D01*
X176898300Y-66319400D02*
X190982600Y-58229500D01*
X176293352Y-80370252D02*
X176923700Y-66294000D01*
%TO.N,Net-(D10-Pad4)*%
X210908900Y-69761100D02*
X198666100Y-76288900D01*
X225171000Y-77978000D02*
X210908900Y-69761100D01*
X225171000Y-100152200D02*
X225171000Y-77978000D01*
%TO.N,Net-(D10-Pad2)*%
X225120200Y-101066600D02*
X213397511Y-93776211D01*
X225196400Y-117449600D02*
X225120200Y-101066600D01*
X205892400Y-128473200D02*
X225196400Y-117449600D01*
%TO.N,Net-(D11-Pad2)*%
X205066900Y-129057400D02*
X205663800Y-115049300D01*
X191020700Y-137134600D02*
X205066900Y-129057400D01*
X171792900Y-125996700D02*
X191020700Y-137134600D01*
%TO.N,Net-(D12-Pad2)*%
X104394000Y-56388000D02*
X123317000Y-67437000D01*
X87680800Y-66370200D02*
X104394000Y-56388000D01*
X68707000Y-76962000D02*
X87680800Y-66370200D01*
X68707000Y-96393000D02*
X68707000Y-76962000D01*
X140055600Y-77076300D02*
X123317000Y-67437000D01*
X140083426Y-95145974D02*
X140080809Y-93446791D01*
X140080809Y-93446791D02*
X140055600Y-77076300D01*
X155359100Y-93408500D02*
X155333700Y-77063600D01*
X155333700Y-77063600D02*
X174345161Y-66115761D01*
X209905600Y-67411600D02*
X226656900Y-77127100D01*
X190995300Y-56527700D02*
X174345161Y-66115761D01*
X209905600Y-67411600D02*
X190995300Y-56527700D01*
X226656900Y-77127100D02*
X226670387Y-98983013D01*
X155342064Y-101760764D02*
X155359100Y-93408500D01*
X140061047Y-101732447D02*
X140083426Y-95145974D01*
X226682300Y-118287800D02*
X226670387Y-98983013D01*
X207708500Y-129235200D02*
X226682300Y-118287800D01*
X191020700Y-138823700D02*
X207708500Y-129235200D01*
X172046900Y-127901700D02*
X191020700Y-138823700D01*
X155308300Y-118313200D02*
X155342064Y-101760764D01*
X172046900Y-127901700D02*
X155308300Y-118313200D01*
X183253563Y-119120737D02*
X173228000Y-125793500D01*
X140004800Y-118287800D02*
X140061047Y-101732447D01*
X124688157Y-127215457D02*
X140004800Y-118287800D01*
X121132600Y-129260600D02*
X124688157Y-127215457D01*
X68668900Y-118338600D02*
X68707000Y-96393000D01*
X85483700Y-128041400D02*
X68668900Y-118338600D01*
X104368600Y-138938000D02*
X121132600Y-129260600D01*
X85483700Y-128041400D02*
X104368600Y-138938000D01*
%TD*%
M02*
