%TF.GenerationSoftware,KiCad,Pcbnew,(5.1.9)-1*%
%TF.CreationDate,2021-06-09T00:59:48-05:00*%
%TF.ProjectId,neopixel_hexigons,6e656f70-6978-4656-9c5f-68657869676f,rev?*%
%TF.SameCoordinates,Original*%
%TF.FileFunction,Legend,Top*%
%TF.FilePolarity,Positive*%
%FSLAX46Y46*%
G04 Gerber Fmt 4.6, Leading zero omitted, Abs format (unit mm)*
G04 Created by KiCad (PCBNEW (5.1.9)-1) date 2021-06-09 00:59:48*
%MOMM*%
%LPD*%
G01*
G04 APERTURE LIST*
%ADD10C,0.120000*%
%ADD11C,0.150000*%
G04 APERTURE END LIST*
D10*
%TO.C,JP20*%
X83934365Y-132620732D02*
X82202315Y-131620732D01*
X85334365Y-130195860D02*
X83934365Y-132620732D01*
X83602315Y-129195860D02*
X85334365Y-130195860D01*
X82202315Y-131620732D02*
X83602315Y-129195860D01*
%TO.C,JP18*%
X122644984Y-133850958D02*
X121244984Y-131426086D01*
X121244984Y-131426086D02*
X122977034Y-130426086D01*
X122977034Y-130426086D02*
X124377034Y-132850958D01*
X124377034Y-132850958D02*
X122644984Y-133850958D01*
%TO.C,JP19*%
X86134069Y-133890731D02*
X84402019Y-132890731D01*
X87534069Y-131465859D02*
X86134069Y-133890731D01*
X85802019Y-130465859D02*
X87534069Y-131465859D01*
X84402019Y-132890731D02*
X85802019Y-130465859D01*
%TO.C,JP17*%
X124844689Y-132580960D02*
X123444689Y-130156088D01*
X123444689Y-130156088D02*
X125176739Y-129156088D01*
X125176739Y-129156088D02*
X126576739Y-131580960D01*
X126576739Y-131580960D02*
X124844689Y-132580960D01*
%TO.C,JP16*%
X168797089Y-131595576D02*
X170197089Y-129170704D01*
X170197089Y-129170704D02*
X171929139Y-130170704D01*
X171929139Y-130170704D02*
X170529139Y-132595576D01*
X170529139Y-132595576D02*
X168797089Y-131595576D01*
%TO.C,JP15*%
X170996792Y-132865576D02*
X172396792Y-130440704D01*
X172396792Y-130440704D02*
X174128842Y-131440704D01*
X174128842Y-131440704D02*
X172728842Y-133865576D01*
X172728842Y-133865576D02*
X170996792Y-132865576D01*
%TO.C,JP14*%
X210982200Y-132852900D02*
X209250150Y-133852900D01*
X209582200Y-130428028D02*
X210982200Y-132852900D01*
X207850150Y-131428028D02*
X209582200Y-130428028D01*
X209250150Y-133852900D02*
X207850150Y-131428028D01*
%TO.C,JP13*%
X213181903Y-131582900D02*
X211449853Y-132582900D01*
X211781903Y-129158028D02*
X213181903Y-131582900D01*
X210049853Y-130158028D02*
X211781903Y-129158028D01*
X211449853Y-132582900D02*
X210049853Y-130158028D01*
%TO.C,C7*%
X166038920Y-102156800D02*
X166320080Y-102156800D01*
X166038920Y-103176800D02*
X166320080Y-103176800D01*
%TO.C,JP8*%
X170983828Y-62533564D02*
X172715878Y-61533564D01*
X172383828Y-64958436D02*
X170983828Y-62533564D01*
X174115878Y-63958436D02*
X172383828Y-64958436D01*
X172715878Y-61533564D02*
X174115878Y-63958436D01*
%TO.C,JP7*%
X168784123Y-63803564D02*
X170516173Y-62803564D01*
X170184123Y-66228436D02*
X168784123Y-63803564D01*
X171916173Y-65228436D02*
X170184123Y-66228436D01*
X170516173Y-62803564D02*
X171916173Y-65228436D01*
%TO.C,D12*%
X177212477Y-114285192D02*
X176637477Y-115281121D01*
X183534463Y-117935192D02*
X177212477Y-114285192D01*
X180784463Y-122698332D02*
X174462477Y-119048332D01*
%TO.C,D11*%
X198462277Y-117924320D02*
X199037277Y-118920249D01*
X204784263Y-114274320D02*
X198462277Y-117924320D01*
X207534263Y-119037460D02*
X201212277Y-122687460D01*
%TO.C,D10*%
X212247511Y-101345841D02*
X213397511Y-101345841D01*
X212247511Y-94045841D02*
X212247511Y-101345841D01*
X217747511Y-94045841D02*
X217747511Y-101345841D01*
%TO.C,D9*%
X204769685Y-81118822D02*
X205344685Y-80122893D01*
X198447699Y-77468822D02*
X204769685Y-81118822D01*
X201197699Y-72705682D02*
X207519685Y-76355682D01*
%TO.C,D8*%
X183531700Y-77459760D02*
X182956700Y-76463831D01*
X177209714Y-81109760D02*
X183531700Y-77459760D01*
X174459714Y-76346620D02*
X180781700Y-72696620D01*
%TO.C,D7*%
X169767920Y-94082401D02*
X168617920Y-94082401D01*
X169767920Y-101382401D02*
X169767920Y-94082401D01*
X164267920Y-101382401D02*
X164267920Y-94082401D01*
%TO.C,C12*%
X208220463Y-116617846D02*
X208079883Y-116374354D01*
X207337117Y-117127846D02*
X207196537Y-116884354D01*
%TO.C,C11*%
X183276783Y-122042746D02*
X183417363Y-121799254D01*
X182393437Y-121532746D02*
X182534017Y-121289254D01*
%TO.C,C10*%
X215964380Y-91984100D02*
X215683220Y-91984100D01*
X215964380Y-93004100D02*
X215683220Y-93004100D01*
%TO.C,C9*%
X198409017Y-73270554D02*
X198268437Y-73514046D01*
X199292363Y-73780554D02*
X199151783Y-74024046D01*
%TO.C,C8*%
X173465337Y-78936754D02*
X173605917Y-79180246D01*
X174348683Y-78426754D02*
X174489263Y-78670246D01*
%TO.C,JP12*%
X231429948Y-99986646D02*
X228629948Y-99986646D01*
X228629948Y-99986646D02*
X228629948Y-97986646D01*
X228629948Y-97986646D02*
X231429948Y-97986646D01*
X231429948Y-97986646D02*
X231429948Y-99986646D01*
%TO.C,JP11*%
X231429948Y-97446647D02*
X228629948Y-97446647D01*
X228629948Y-97446647D02*
X228629948Y-95446647D01*
X228629948Y-95446647D02*
X231429948Y-95446647D01*
X231429948Y-95446647D02*
X231429948Y-97446647D01*
%TO.C,JP10*%
X213190671Y-63805340D02*
X211790671Y-66230212D01*
X211790671Y-66230212D02*
X210058621Y-65230212D01*
X210058621Y-65230212D02*
X211458621Y-62805340D01*
X211458621Y-62805340D02*
X213190671Y-63805340D01*
%TO.C,JP9*%
X210990967Y-62535340D02*
X209590967Y-64960212D01*
X209590967Y-64960212D02*
X207858917Y-63960212D01*
X207858917Y-63960212D02*
X209258917Y-61535340D01*
X209258917Y-61535340D02*
X210990967Y-62535340D01*
%TO.C,JP6*%
X126570459Y-63796019D02*
X125170459Y-66220891D01*
X125170459Y-66220891D02*
X123438409Y-65220891D01*
X123438409Y-65220891D02*
X124838409Y-62796019D01*
X124838409Y-62796019D02*
X126570459Y-63796019D01*
%TO.C,JP5*%
X124370755Y-62526019D02*
X122970755Y-64950891D01*
X122970755Y-64950891D02*
X121238705Y-63950891D01*
X121238705Y-63950891D02*
X122638705Y-61526019D01*
X122638705Y-61526019D02*
X124370755Y-62526019D01*
%TO.C,JP4*%
X86103543Y-61513319D02*
X87503543Y-63938191D01*
X87503543Y-63938191D02*
X85771493Y-64938191D01*
X85771493Y-64938191D02*
X84371493Y-62513319D01*
X84371493Y-62513319D02*
X86103543Y-61513319D01*
%TO.C,JP3*%
X83903839Y-62783319D02*
X85303839Y-65208191D01*
X85303839Y-65208191D02*
X83571789Y-66208191D01*
X83571789Y-66208191D02*
X82171789Y-63783319D01*
X82171789Y-63783319D02*
X83903839Y-62783319D01*
%TO.C,D6*%
X90603317Y-114288321D02*
X90028317Y-115284250D01*
X96925303Y-117938321D02*
X90603317Y-114288321D01*
X94175303Y-122701461D02*
X87853317Y-119051461D01*
%TO.C,D1*%
X83153500Y-94052200D02*
X82003500Y-94052200D01*
X83153500Y-101352200D02*
X83153500Y-94052200D01*
X77653500Y-101352200D02*
X77653500Y-94052200D01*
%TO.C,C1*%
X79488420Y-103507000D02*
X79769580Y-103507000D01*
X79488420Y-102487000D02*
X79769580Y-102487000D01*
%TO.C,D2*%
X96941193Y-77480470D02*
X96366193Y-76484541D01*
X90619207Y-81130470D02*
X96941193Y-77480470D01*
X87869207Y-76367330D02*
X94191193Y-72717330D01*
%TO.C,C6*%
X96861133Y-122206666D02*
X97001713Y-121963174D01*
X95977787Y-121696666D02*
X96118367Y-121453174D01*
%TO.C,C5*%
X121625363Y-116632476D02*
X121484783Y-116388984D01*
X120742017Y-117142476D02*
X120601437Y-116898984D01*
%TO.C,D5*%
X111849594Y-117931472D02*
X112424594Y-118927401D01*
X118171580Y-114281472D02*
X111849594Y-117931472D01*
X120921580Y-119044612D02*
X114599594Y-122694612D01*
%TO.C,C4*%
X129370235Y-92990163D02*
X129089075Y-92990163D01*
X129370235Y-91970163D02*
X129089075Y-91970163D01*
%TO.C,D4*%
X131141656Y-94048762D02*
X131141656Y-101348762D01*
X125641656Y-94048762D02*
X125641656Y-101348762D01*
X125641656Y-101348762D02*
X126791656Y-101348762D01*
%TO.C,C3*%
X111896617Y-73156254D02*
X111756037Y-73399746D01*
X112779963Y-73666254D02*
X112639383Y-73909746D01*
%TO.C,D3*%
X118194193Y-81130470D02*
X118769193Y-80134541D01*
X111872207Y-77480470D02*
X118194193Y-81130470D01*
X114622207Y-72717330D02*
X120944193Y-76367330D01*
%TO.C,C2*%
X87156137Y-78860554D02*
X87296717Y-79104046D01*
X88039483Y-78350554D02*
X88180063Y-78594046D01*
%TO.C,JP2*%
X64843200Y-97418400D02*
X64843200Y-95418400D01*
X67643200Y-97418400D02*
X64843200Y-97418400D01*
X67643200Y-95418400D02*
X67643200Y-97418400D01*
X64843200Y-95418400D02*
X67643200Y-95418400D01*
%TO.C,JP1*%
X64843200Y-99958400D02*
X64843200Y-97958400D01*
X67643200Y-99958400D02*
X64843200Y-99958400D01*
X67643200Y-97958400D02*
X67643200Y-99958400D01*
X64843200Y-97958400D02*
X67643200Y-97958400D01*
%TO.C,JP20*%
D11*
X81080480Y-130868567D02*
X81699069Y-131225710D01*
X81798978Y-131338378D01*
X81833837Y-131468475D01*
X81803648Y-131616003D01*
X81756029Y-131698481D01*
X82184600Y-130956174D02*
X81318575Y-130456174D01*
X81509051Y-130126259D01*
X81597909Y-130067590D01*
X81662958Y-130050161D01*
X81769246Y-130056540D01*
X81892964Y-130127969D01*
X81951633Y-130216827D01*
X81969063Y-130281876D01*
X81962683Y-130388164D01*
X81772207Y-130718079D01*
X81877244Y-129679007D02*
X81859814Y-129613958D01*
X81866194Y-129507670D01*
X81985241Y-129301473D01*
X82074100Y-129242804D01*
X82139149Y-129225374D01*
X82245437Y-129231754D01*
X82327915Y-129279373D01*
X82427824Y-129392041D01*
X82636981Y-130172627D01*
X82946505Y-129636516D01*
X82390003Y-128600405D02*
X82437622Y-128517926D01*
X82526481Y-128459257D01*
X82591530Y-128441828D01*
X82697818Y-128448207D01*
X82886585Y-128502206D01*
X83092781Y-128621254D01*
X83233929Y-128757731D01*
X83292598Y-128846590D01*
X83310028Y-128911638D01*
X83303648Y-129017926D01*
X83256029Y-129100405D01*
X83167170Y-129159074D01*
X83102122Y-129176504D01*
X82995833Y-129170124D01*
X82807067Y-129116125D01*
X82600870Y-128997078D01*
X82459723Y-128860600D01*
X82401053Y-128771742D01*
X82383624Y-128706693D01*
X82390003Y-128600405D01*
%TO.C,HP19*%
X85172961Y-137953228D02*
X85672961Y-137087203D01*
X85434866Y-137499596D02*
X85929738Y-137785310D01*
X85667833Y-138238943D02*
X86167833Y-137372917D01*
X86080226Y-138477038D02*
X86580226Y-137611012D01*
X86910141Y-137801489D01*
X86968810Y-137890347D01*
X86986239Y-137955396D01*
X86979860Y-138061684D01*
X86908431Y-138185402D01*
X86819573Y-138244071D01*
X86754524Y-138261501D01*
X86648236Y-138255121D01*
X86318321Y-138064645D01*
X87399884Y-139238943D02*
X86905012Y-138953228D01*
X87152448Y-139096085D02*
X87652448Y-138230060D01*
X87498541Y-138306159D01*
X87368443Y-138341018D01*
X87262155Y-138334639D01*
X87812277Y-139477038D02*
X87977234Y-139572276D01*
X88083522Y-139578656D01*
X88148571Y-139561226D01*
X88302478Y-139485127D01*
X88438956Y-139343979D01*
X88629432Y-139014065D01*
X88635812Y-138907777D01*
X88618382Y-138842728D01*
X88559713Y-138753870D01*
X88394756Y-138658631D01*
X88288467Y-138652252D01*
X88223419Y-138669681D01*
X88134560Y-138728351D01*
X88015513Y-138934547D01*
X88009133Y-139040835D01*
X88026563Y-139105884D01*
X88085232Y-139194742D01*
X88250189Y-139289981D01*
X88356477Y-139296360D01*
X88421526Y-139278930D01*
X88510384Y-139220261D01*
%TO.C,JP18*%
X121071653Y-131630631D02*
X120453063Y-131987774D01*
X120305536Y-132017963D01*
X120175438Y-131983104D01*
X120062770Y-131883195D01*
X120015151Y-131800717D01*
X120443722Y-132543024D02*
X121309748Y-132043024D01*
X121500224Y-132372939D01*
X121506604Y-132479227D01*
X121489174Y-132544276D01*
X121430505Y-132633134D01*
X121306787Y-132704562D01*
X121200499Y-132710942D01*
X121135450Y-132693512D01*
X121046592Y-132634843D01*
X120856115Y-132304929D01*
X121205627Y-133862682D02*
X120919913Y-133367810D01*
X121062770Y-133615246D02*
X121928795Y-133115246D01*
X121757458Y-133104196D01*
X121627361Y-133069336D01*
X121538502Y-133010667D01*
X121986213Y-134071839D02*
X121979833Y-133965551D01*
X121997263Y-133900502D01*
X122055932Y-133811644D01*
X122097172Y-133787834D01*
X122203460Y-133781455D01*
X122268509Y-133798884D01*
X122357367Y-133857554D01*
X122452605Y-134022511D01*
X122458985Y-134128799D01*
X122441555Y-134193848D01*
X122382886Y-134282706D01*
X122341647Y-134306516D01*
X122235358Y-134312895D01*
X122170310Y-134295466D01*
X122081451Y-134236796D01*
X121986213Y-134071839D01*
X121897355Y-134013170D01*
X121832306Y-133995740D01*
X121726018Y-134002120D01*
X121561061Y-134097358D01*
X121502392Y-134186217D01*
X121484962Y-134251265D01*
X121491341Y-134357554D01*
X121586580Y-134522511D01*
X121675438Y-134581180D01*
X121740487Y-134598610D01*
X121846775Y-134592230D01*
X122011732Y-134496992D01*
X122070401Y-134408133D01*
X122087831Y-134343085D01*
X122081451Y-134236796D01*
%TO.C,HG19*%
X82918264Y-136651478D02*
X83418264Y-135785453D01*
X83180169Y-136197846D02*
X83675041Y-136483560D01*
X83413136Y-136937193D02*
X83913136Y-136071167D01*
X84755352Y-136612406D02*
X84696683Y-136523548D01*
X84572965Y-136452120D01*
X84425437Y-136421930D01*
X84295340Y-136456790D01*
X84206481Y-136515459D01*
X84070004Y-136656607D01*
X83998576Y-136780325D01*
X83944577Y-136969091D01*
X83938197Y-137075379D01*
X83973057Y-137205477D01*
X84072965Y-137318145D01*
X84155444Y-137365764D01*
X84302971Y-137395953D01*
X84368020Y-137378523D01*
X84534686Y-137089848D01*
X84369729Y-136994610D01*
X85145187Y-137937193D02*
X84650315Y-137651478D01*
X84897751Y-137794335D02*
X85397751Y-136928310D01*
X85243844Y-137004409D01*
X85113746Y-137039268D01*
X85007458Y-137032889D01*
X85557580Y-138175288D02*
X85722537Y-138270526D01*
X85828825Y-138276906D01*
X85893874Y-138259476D01*
X86047781Y-138183377D01*
X86184259Y-138042229D01*
X86374735Y-137712315D01*
X86381115Y-137606027D01*
X86363685Y-137540978D01*
X86305016Y-137452120D01*
X86140059Y-137356881D01*
X86033770Y-137350502D01*
X85968722Y-137367931D01*
X85879863Y-137426601D01*
X85760816Y-137632797D01*
X85754436Y-137739085D01*
X85771866Y-137804134D01*
X85830535Y-137892992D01*
X85995492Y-137988231D01*
X86101780Y-137994610D01*
X86166829Y-137977180D01*
X86255687Y-137918511D01*
%TO.C,HG20*%
X78408870Y-134047979D02*
X78908870Y-133181954D01*
X78670775Y-133594347D02*
X79165647Y-133880061D01*
X78903742Y-134333694D02*
X79403742Y-133467668D01*
X80245958Y-134008907D02*
X80187289Y-133920049D01*
X80063571Y-133848621D01*
X79916043Y-133818431D01*
X79785946Y-133853291D01*
X79697087Y-133911960D01*
X79560610Y-134053108D01*
X79489182Y-134176826D01*
X79435183Y-134365592D01*
X79428803Y-134471880D01*
X79463663Y-134601978D01*
X79563571Y-134714646D01*
X79646050Y-134762265D01*
X79793577Y-134792454D01*
X79858626Y-134775024D01*
X80025292Y-134486349D01*
X79860335Y-134391111D01*
X80593302Y-134264432D02*
X80658351Y-134247003D01*
X80764639Y-134253382D01*
X80970836Y-134372430D01*
X81029505Y-134461288D01*
X81046935Y-134526337D01*
X81040555Y-134632625D01*
X80992936Y-134715104D01*
X80880268Y-134815012D01*
X80099682Y-135024170D01*
X80635793Y-135333694D01*
X81671904Y-134777192D02*
X81754382Y-134824811D01*
X81813052Y-134913669D01*
X81830481Y-134978718D01*
X81824102Y-135085006D01*
X81770103Y-135273773D01*
X81651055Y-135479970D01*
X81514578Y-135621117D01*
X81425719Y-135679786D01*
X81360671Y-135697216D01*
X81254382Y-135690836D01*
X81171904Y-135643217D01*
X81113235Y-135554359D01*
X81095805Y-135489310D01*
X81102185Y-135383022D01*
X81156183Y-135194255D01*
X81275231Y-134988059D01*
X81411709Y-134846911D01*
X81500567Y-134788242D01*
X81565616Y-134770812D01*
X81671904Y-134777192D01*
%TO.C,HP20*%
X76154172Y-132746229D02*
X76654172Y-131880204D01*
X76416077Y-132292597D02*
X76910949Y-132578311D01*
X76649044Y-133031944D02*
X77149044Y-132165918D01*
X77061437Y-133270039D02*
X77561437Y-132404013D01*
X77891352Y-132594490D01*
X77950021Y-132683348D01*
X77967450Y-132748397D01*
X77961071Y-132854685D01*
X77889642Y-132978403D01*
X77800784Y-133037072D01*
X77735735Y-133054502D01*
X77629447Y-133048122D01*
X77299532Y-132857646D01*
X78338604Y-132962682D02*
X78403653Y-132945253D01*
X78509941Y-132951632D01*
X78716138Y-133070680D01*
X78774807Y-133159538D01*
X78792237Y-133224587D01*
X78785857Y-133330875D01*
X78738238Y-133413354D01*
X78625570Y-133513262D01*
X77844984Y-133722420D01*
X78381095Y-134031944D01*
X79417206Y-133475442D02*
X79499684Y-133523061D01*
X79558354Y-133611919D01*
X79575783Y-133676968D01*
X79569404Y-133783256D01*
X79515405Y-133972023D01*
X79396357Y-134178220D01*
X79259880Y-134319367D01*
X79171021Y-134378036D01*
X79105973Y-134395466D01*
X78999684Y-134389086D01*
X78917206Y-134341467D01*
X78858537Y-134252609D01*
X78841107Y-134187560D01*
X78847487Y-134081272D01*
X78901485Y-133892505D01*
X79020533Y-133686309D01*
X79157011Y-133545161D01*
X79245869Y-133486492D01*
X79310918Y-133469062D01*
X79417206Y-133475442D01*
%TO.C,HG17*%
X127359713Y-135746303D02*
X126859713Y-134880277D01*
X127097809Y-135292670D02*
X127592680Y-135006956D01*
X127854585Y-135460588D02*
X127354585Y-134594563D01*
X128244420Y-134135802D02*
X128138132Y-134142182D01*
X128014414Y-134213610D01*
X127914505Y-134326278D01*
X127879646Y-134456376D01*
X127886026Y-134562664D01*
X127940024Y-134751431D01*
X128011453Y-134875149D01*
X128147930Y-135016296D01*
X128236789Y-135074966D01*
X128366886Y-135109825D01*
X128514414Y-135079636D01*
X128596892Y-135032017D01*
X128696801Y-134919349D01*
X128714231Y-134854300D01*
X128547564Y-134565625D01*
X128382607Y-134660863D01*
X129586636Y-134460588D02*
X129091764Y-134746303D01*
X129339200Y-134603445D02*
X128839200Y-133737420D01*
X128828150Y-133908757D01*
X128793290Y-134038855D01*
X128734621Y-134127713D01*
X129375311Y-133427896D02*
X129952661Y-133094563D01*
X130081507Y-134174874D01*
%TO.C,HG18*%
X122850319Y-138349804D02*
X122350319Y-137483778D01*
X122588415Y-137896171D02*
X123083286Y-137610457D01*
X123345191Y-138064089D02*
X122845191Y-137198064D01*
X123735026Y-136739303D02*
X123628738Y-136745683D01*
X123505020Y-136817111D01*
X123405111Y-136929779D01*
X123370252Y-137059877D01*
X123376632Y-137166165D01*
X123430630Y-137354932D01*
X123502059Y-137478650D01*
X123638536Y-137619797D01*
X123727395Y-137678467D01*
X123857492Y-137713326D01*
X124005020Y-137683137D01*
X124087498Y-137635518D01*
X124187407Y-137522850D01*
X124204837Y-137457801D01*
X124038170Y-137169126D01*
X123873213Y-137264364D01*
X125077242Y-137064089D02*
X124582370Y-137349804D01*
X124829806Y-137206946D02*
X124329806Y-136340921D01*
X124318756Y-136512258D01*
X124283896Y-136642356D01*
X124225227Y-136731214D01*
X125286399Y-136283503D02*
X125180111Y-136289883D01*
X125115062Y-136272453D01*
X125026204Y-136213784D01*
X125002394Y-136172545D01*
X124996015Y-136066257D01*
X125013444Y-136001208D01*
X125072113Y-135912350D01*
X125237071Y-135817111D01*
X125343359Y-135810732D01*
X125408408Y-135828161D01*
X125497266Y-135886831D01*
X125521076Y-135928070D01*
X125527455Y-136034358D01*
X125510025Y-136099407D01*
X125451356Y-136188265D01*
X125286399Y-136283503D01*
X125227730Y-136372362D01*
X125210300Y-136437410D01*
X125216680Y-136543699D01*
X125311918Y-136708656D01*
X125400777Y-136767325D01*
X125465825Y-136784755D01*
X125572113Y-136778375D01*
X125737071Y-136683137D01*
X125795740Y-136594278D01*
X125813170Y-136529230D01*
X125806790Y-136422942D01*
X125711552Y-136257984D01*
X125622693Y-136199315D01*
X125557645Y-136181885D01*
X125451356Y-136188265D01*
%TO.C,HS10*%
X80684187Y-135361634D02*
X81184187Y-134495609D01*
X80946092Y-134908002D02*
X81440963Y-135193716D01*
X81179059Y-135647348D02*
X81679059Y-134781323D01*
X81574022Y-135820395D02*
X81673930Y-135933063D01*
X81880127Y-136052110D01*
X81986415Y-136058490D01*
X82051464Y-136041060D01*
X82140322Y-135982391D01*
X82187941Y-135899912D01*
X82194321Y-135793624D01*
X82176891Y-135728576D01*
X82118222Y-135639717D01*
X81977074Y-135503240D01*
X81918405Y-135414381D01*
X81900976Y-135349333D01*
X81907355Y-135243044D01*
X81954974Y-135160566D01*
X82043833Y-135101897D01*
X82108882Y-135084467D01*
X82215170Y-135090847D01*
X82421366Y-135209894D01*
X82521275Y-135322562D01*
X82869870Y-136623539D02*
X82374999Y-136337825D01*
X82622434Y-136480682D02*
X83122434Y-135614656D01*
X82968527Y-135690755D01*
X82838430Y-135725615D01*
X82732141Y-135719235D01*
X83905981Y-136067037D02*
X83988460Y-136114656D01*
X84047129Y-136203515D01*
X84064559Y-136268563D01*
X84058179Y-136374852D01*
X84004180Y-136563618D01*
X83885132Y-136769815D01*
X83748655Y-136910963D01*
X83659797Y-136969632D01*
X83594748Y-136987061D01*
X83488460Y-136980682D01*
X83405981Y-136933063D01*
X83347312Y-136844204D01*
X83329882Y-136779155D01*
X83336262Y-136672867D01*
X83390261Y-136484101D01*
X83509308Y-136277904D01*
X83645786Y-136136756D01*
X83734644Y-136078087D01*
X83799693Y-136060657D01*
X83905981Y-136067037D01*
%TO.C,HP17*%
X129614410Y-134444552D02*
X129114410Y-133578526D01*
X129352506Y-133990919D02*
X129847377Y-133705205D01*
X130109282Y-134158837D02*
X129609282Y-133292812D01*
X130521675Y-133920742D02*
X130021675Y-133054717D01*
X130351589Y-132864240D01*
X130457878Y-132857861D01*
X130522926Y-132875290D01*
X130611785Y-132933960D01*
X130683213Y-133057677D01*
X130689593Y-133163966D01*
X130672163Y-133229014D01*
X130613494Y-133317873D01*
X130283580Y-133508349D01*
X131841333Y-133158837D02*
X131346461Y-133444552D01*
X131593897Y-133301694D02*
X131093897Y-132435669D01*
X131082847Y-132607006D01*
X131047987Y-132737104D01*
X130989318Y-132825962D01*
X131630008Y-132126145D02*
X132207358Y-131792812D01*
X132336204Y-132873123D01*
%TO.C,HP18*%
X120595622Y-139651554D02*
X120095622Y-138785528D01*
X120333718Y-139197921D02*
X120828589Y-138912207D01*
X121090494Y-139365839D02*
X120590494Y-138499814D01*
X121502887Y-139127744D02*
X121002887Y-138261719D01*
X121332801Y-138071242D01*
X121439090Y-138064863D01*
X121504138Y-138082292D01*
X121592997Y-138140962D01*
X121664425Y-138264679D01*
X121670805Y-138370968D01*
X121653375Y-138436016D01*
X121594706Y-138524875D01*
X121264792Y-138715351D01*
X122822545Y-138365839D02*
X122327673Y-138651554D01*
X122575109Y-138508696D02*
X122075109Y-137642671D01*
X122064059Y-137814008D01*
X122029199Y-137944106D01*
X121970530Y-138032964D01*
X123031702Y-137585253D02*
X122925414Y-137591633D01*
X122860365Y-137574203D01*
X122771507Y-137515534D01*
X122747697Y-137474295D01*
X122741318Y-137368007D01*
X122758747Y-137302958D01*
X122817416Y-137214100D01*
X122982374Y-137118861D01*
X123088662Y-137112482D01*
X123153711Y-137129911D01*
X123242569Y-137188581D01*
X123266379Y-137229820D01*
X123272758Y-137336108D01*
X123255328Y-137401157D01*
X123196659Y-137490015D01*
X123031702Y-137585253D01*
X122973033Y-137674112D01*
X122955603Y-137739160D01*
X122961983Y-137845449D01*
X123057221Y-138010406D01*
X123146080Y-138069075D01*
X123211128Y-138086505D01*
X123317416Y-138080125D01*
X123482374Y-137984887D01*
X123541043Y-137896028D01*
X123558473Y-137830980D01*
X123552093Y-137724692D01*
X123456855Y-137559734D01*
X123367996Y-137501065D01*
X123302948Y-137483635D01*
X123196659Y-137490015D01*
%TO.C,JP19*%
X83280184Y-132138566D02*
X83898773Y-132495709D01*
X83998682Y-132608377D01*
X84033541Y-132738474D01*
X84003352Y-132886002D01*
X83955733Y-132968480D01*
X84384304Y-132226173D02*
X83518279Y-131726173D01*
X83708755Y-131396258D01*
X83797613Y-131337589D01*
X83862662Y-131320160D01*
X83968950Y-131326539D01*
X84092668Y-131397968D01*
X84151337Y-131486826D01*
X84168767Y-131551875D01*
X84162387Y-131658163D01*
X83971911Y-131988078D01*
X85146209Y-130906515D02*
X84860495Y-131401387D01*
X85003352Y-131153951D02*
X84137326Y-130653951D01*
X84213425Y-130807858D01*
X84248285Y-130937956D01*
X84241905Y-131044244D01*
X85384304Y-130494122D02*
X85479542Y-130329165D01*
X85485922Y-130222877D01*
X85468492Y-130157828D01*
X85392393Y-130003921D01*
X85251246Y-129867443D01*
X84921331Y-129676967D01*
X84815043Y-129670587D01*
X84749994Y-129688017D01*
X84661136Y-129746686D01*
X84565898Y-129911643D01*
X84559518Y-130017932D01*
X84576948Y-130082980D01*
X84635617Y-130171839D01*
X84841814Y-130290886D01*
X84948102Y-130297266D01*
X85013150Y-130279836D01*
X85102009Y-130221167D01*
X85197247Y-130056210D01*
X85203627Y-129949922D01*
X85186197Y-129884873D01*
X85127528Y-129796015D01*
%TO.C,HS9*%
X125538029Y-136798054D02*
X125038029Y-135932028D01*
X125276124Y-136344421D02*
X125770996Y-136058707D01*
X126032901Y-136512339D02*
X125532901Y-135646314D01*
X126380245Y-136256814D02*
X126527772Y-136226625D01*
X126733969Y-136107577D01*
X126792638Y-136018719D01*
X126810068Y-135953670D01*
X126803688Y-135847382D01*
X126756069Y-135764903D01*
X126667211Y-135706234D01*
X126602162Y-135688805D01*
X126495874Y-135695184D01*
X126307107Y-135749183D01*
X126200819Y-135755563D01*
X126135770Y-135738133D01*
X126046912Y-135679464D01*
X125999293Y-135596985D01*
X125992913Y-135490697D01*
X126010343Y-135425648D01*
X126069012Y-135336790D01*
X126275208Y-135217742D01*
X126422736Y-135187553D01*
X127311319Y-135774244D02*
X127476276Y-135679006D01*
X127534945Y-135590148D01*
X127552375Y-135525099D01*
X127563425Y-135353762D01*
X127509426Y-135164995D01*
X127318950Y-134835081D01*
X127230092Y-134776411D01*
X127165043Y-134758982D01*
X127058755Y-134765361D01*
X126893798Y-134860600D01*
X126835129Y-134949458D01*
X126817699Y-135014507D01*
X126824079Y-135120795D01*
X126943126Y-135326991D01*
X127031985Y-135385660D01*
X127097033Y-135403090D01*
X127203322Y-135396711D01*
X127368279Y-135301472D01*
X127426948Y-135212614D01*
X127444378Y-135147565D01*
X127437998Y-135041277D01*
%TO.C,JP17*%
X123271358Y-130360633D02*
X122652768Y-130717776D01*
X122505241Y-130747965D01*
X122375143Y-130713106D01*
X122262475Y-130613197D01*
X122214856Y-130530719D01*
X122643427Y-131273026D02*
X123509453Y-130773026D01*
X123699929Y-131102941D01*
X123706309Y-131209229D01*
X123688879Y-131274278D01*
X123630210Y-131363136D01*
X123506492Y-131434564D01*
X123400204Y-131440944D01*
X123335155Y-131423514D01*
X123246297Y-131364845D01*
X123055820Y-131034931D01*
X123405332Y-132592684D02*
X123119618Y-132097812D01*
X123262475Y-132345248D02*
X124128500Y-131845248D01*
X123957163Y-131834198D01*
X123827066Y-131799338D01*
X123738207Y-131740669D01*
X124438024Y-132381359D02*
X124771358Y-132958709D01*
X123691046Y-133087556D01*
%TO.C,JP16*%
X167675254Y-130843411D02*
X168293843Y-131200554D01*
X168393752Y-131313222D01*
X168428611Y-131443319D01*
X168398422Y-131590847D01*
X168350803Y-131673325D01*
X168779374Y-130931018D02*
X167913349Y-130431018D01*
X168103825Y-130101103D01*
X168192683Y-130042434D01*
X168257732Y-130025005D01*
X168364020Y-130031384D01*
X168487738Y-130102813D01*
X168546407Y-130191671D01*
X168563837Y-130256720D01*
X168557457Y-130363008D01*
X168366981Y-130692923D01*
X169541279Y-129611360D02*
X169255565Y-130106232D01*
X169398422Y-129858796D02*
X168532396Y-129358796D01*
X168608495Y-129512703D01*
X168643355Y-129642801D01*
X168636975Y-129749089D01*
X169103825Y-128369053D02*
X169008587Y-128534010D01*
X169002207Y-128640298D01*
X169019637Y-128705347D01*
X169095736Y-128859254D01*
X169236884Y-128995731D01*
X169566798Y-129186208D01*
X169673086Y-129192587D01*
X169738135Y-129175157D01*
X169826993Y-129116488D01*
X169922231Y-128951531D01*
X169928611Y-128845243D01*
X169911181Y-128780194D01*
X169852512Y-128691336D01*
X169646316Y-128572288D01*
X169540028Y-128565908D01*
X169474979Y-128583338D01*
X169386120Y-128642007D01*
X169290882Y-128806965D01*
X169284503Y-128913253D01*
X169301932Y-128978302D01*
X169360601Y-129067160D01*
%TO.C,HG15*%
X169513038Y-136626323D02*
X170013038Y-135760298D01*
X169774943Y-136172691D02*
X170269815Y-136458405D01*
X170007910Y-136912038D02*
X170507910Y-136046012D01*
X171350126Y-136587251D02*
X171291457Y-136498393D01*
X171167739Y-136426965D01*
X171020211Y-136396775D01*
X170890114Y-136431635D01*
X170801255Y-136490304D01*
X170664778Y-136631452D01*
X170593350Y-136755170D01*
X170539351Y-136943936D01*
X170532971Y-137050224D01*
X170567831Y-137180322D01*
X170667739Y-137292990D01*
X170750218Y-137340609D01*
X170897745Y-137370798D01*
X170962794Y-137353368D01*
X171129460Y-137064693D01*
X170964503Y-136969455D01*
X171739961Y-137912038D02*
X171245089Y-137626323D01*
X171492525Y-137769180D02*
X171992525Y-136903155D01*
X171838618Y-136979254D01*
X171708520Y-137014113D01*
X171602232Y-137007734D01*
X173023508Y-137498393D02*
X172611115Y-137260298D01*
X172331780Y-137648881D01*
X172396829Y-137631452D01*
X172503117Y-137637831D01*
X172709314Y-137756879D01*
X172767983Y-137845737D01*
X172785412Y-137910786D01*
X172779033Y-138017074D01*
X172659985Y-138223271D01*
X172571127Y-138281940D01*
X172506078Y-138299370D01*
X172399790Y-138292990D01*
X172193593Y-138173942D01*
X172134924Y-138085084D01*
X172117494Y-138020035D01*
%TO.C,HG16*%
X165003643Y-134022823D02*
X165503643Y-133156798D01*
X165265548Y-133569191D02*
X165760420Y-133854905D01*
X165498515Y-134308538D02*
X165998515Y-133442512D01*
X166840731Y-133983751D02*
X166782062Y-133894893D01*
X166658344Y-133823465D01*
X166510816Y-133793275D01*
X166380719Y-133828135D01*
X166291860Y-133886804D01*
X166155383Y-134027952D01*
X166083955Y-134151670D01*
X166029956Y-134340436D01*
X166023576Y-134446724D01*
X166058436Y-134576822D01*
X166158344Y-134689490D01*
X166240823Y-134737109D01*
X166388350Y-134767298D01*
X166453399Y-134749868D01*
X166620065Y-134461193D01*
X166455108Y-134365955D01*
X167230566Y-135308538D02*
X166735694Y-135022823D01*
X166983130Y-135165680D02*
X167483130Y-134299655D01*
X167329223Y-134375754D01*
X167199125Y-134410613D01*
X167092837Y-134404234D01*
X168472873Y-134871084D02*
X168307916Y-134775845D01*
X168201628Y-134769466D01*
X168136579Y-134786896D01*
X167982672Y-134862994D01*
X167846195Y-135004142D01*
X167655718Y-135334057D01*
X167649339Y-135440345D01*
X167666768Y-135505393D01*
X167725438Y-135594252D01*
X167890395Y-135689490D01*
X167996683Y-135695870D01*
X168061732Y-135678440D01*
X168150590Y-135619771D01*
X168269638Y-135413574D01*
X168276017Y-135307286D01*
X168258588Y-135242237D01*
X168199919Y-135153379D01*
X168034961Y-135058141D01*
X167928673Y-135051761D01*
X167863624Y-135069191D01*
X167774766Y-135127860D01*
%TO.C,HP15*%
X171767734Y-137928072D02*
X172267734Y-137062047D01*
X172029639Y-137474440D02*
X172524511Y-137760154D01*
X172262606Y-138213787D02*
X172762606Y-137347761D01*
X172674999Y-138451882D02*
X173174999Y-137585856D01*
X173504914Y-137776333D01*
X173563583Y-137865191D01*
X173581012Y-137930240D01*
X173574633Y-138036528D01*
X173503204Y-138160246D01*
X173414346Y-138218915D01*
X173349297Y-138236345D01*
X173243009Y-138229965D01*
X172913094Y-138039489D01*
X173994657Y-139213787D02*
X173499785Y-138928072D01*
X173747221Y-139070929D02*
X174247221Y-138204904D01*
X174093314Y-138281003D01*
X173963216Y-138315862D01*
X173856928Y-138309483D01*
X175278204Y-138800142D02*
X174865811Y-138562047D01*
X174586476Y-138950630D01*
X174651525Y-138933201D01*
X174757813Y-138939580D01*
X174964010Y-139058628D01*
X175022679Y-139147486D01*
X175040108Y-139212535D01*
X175033729Y-139318823D01*
X174914681Y-139525020D01*
X174825823Y-139583689D01*
X174760774Y-139601119D01*
X174654486Y-139594739D01*
X174448289Y-139475691D01*
X174389620Y-139386833D01*
X174372190Y-139321784D01*
%TO.C,HP16*%
X162748946Y-132721073D02*
X163248946Y-131855048D01*
X163010851Y-132267441D02*
X163505723Y-132553155D01*
X163243818Y-133006788D02*
X163743818Y-132140762D01*
X163656211Y-133244883D02*
X164156211Y-132378857D01*
X164486126Y-132569334D01*
X164544795Y-132658192D01*
X164562224Y-132723241D01*
X164555845Y-132829529D01*
X164484416Y-132953247D01*
X164395558Y-133011916D01*
X164330509Y-133029346D01*
X164224221Y-133022966D01*
X163894306Y-132832490D01*
X164975869Y-134006788D02*
X164480997Y-133721073D01*
X164728433Y-133863930D02*
X165228433Y-132997905D01*
X165074526Y-133074004D01*
X164944428Y-133108863D01*
X164838140Y-133102484D01*
X166218176Y-133569334D02*
X166053219Y-133474095D01*
X165946931Y-133467716D01*
X165881882Y-133485146D01*
X165727975Y-133561244D01*
X165591498Y-133702392D01*
X165401021Y-134032307D01*
X165394642Y-134138595D01*
X165412071Y-134203643D01*
X165470741Y-134292502D01*
X165635698Y-134387740D01*
X165741986Y-134394120D01*
X165807035Y-134376690D01*
X165895893Y-134318021D01*
X166014941Y-134111824D01*
X166021320Y-134005536D01*
X166003891Y-133940487D01*
X165945222Y-133851629D01*
X165780264Y-133756391D01*
X165673976Y-133750011D01*
X165608927Y-133767441D01*
X165520069Y-133826110D01*
%TO.C,HS8*%
X167691353Y-135574573D02*
X168191353Y-134708548D01*
X167953258Y-135120941D02*
X168448130Y-135406655D01*
X168186225Y-135860288D02*
X168686225Y-134994262D01*
X168581188Y-136033334D02*
X168681096Y-136146002D01*
X168887293Y-136265049D01*
X168993581Y-136271429D01*
X169058630Y-136253999D01*
X169147488Y-136195330D01*
X169195107Y-136112852D01*
X169201487Y-136006564D01*
X169184057Y-135941515D01*
X169125388Y-135852656D01*
X168984240Y-135716179D01*
X168925571Y-135627321D01*
X168908142Y-135562272D01*
X168914521Y-135455984D01*
X168962140Y-135373505D01*
X169050999Y-135314836D01*
X169116048Y-135297406D01*
X169222336Y-135303786D01*
X169428532Y-135422834D01*
X169528441Y-135535501D01*
X169832836Y-136151130D02*
X169774167Y-136062272D01*
X169756737Y-135997223D01*
X169763117Y-135890935D01*
X169786927Y-135849696D01*
X169875785Y-135791026D01*
X169940834Y-135773597D01*
X170047122Y-135779976D01*
X170212079Y-135875215D01*
X170270748Y-135964073D01*
X170288178Y-136029122D01*
X170281798Y-136135410D01*
X170257989Y-136176649D01*
X170169130Y-136235318D01*
X170104081Y-136252748D01*
X169997793Y-136246368D01*
X169832836Y-136151130D01*
X169726548Y-136144750D01*
X169661499Y-136162180D01*
X169572641Y-136220849D01*
X169477403Y-136385807D01*
X169471023Y-136492095D01*
X169488453Y-136557143D01*
X169547122Y-136646002D01*
X169712079Y-136741240D01*
X169818367Y-136747620D01*
X169883416Y-136730190D01*
X169972274Y-136671521D01*
X170067512Y-136506564D01*
X170073892Y-136400275D01*
X170056462Y-136335227D01*
X169997793Y-136246368D01*
%TO.C,JP15*%
X169874957Y-132113411D02*
X170493546Y-132470554D01*
X170593455Y-132583222D01*
X170628314Y-132713319D01*
X170598125Y-132860847D01*
X170550506Y-132943325D01*
X170979077Y-132201018D02*
X170113052Y-131701018D01*
X170303528Y-131371103D01*
X170392386Y-131312434D01*
X170457435Y-131295005D01*
X170563723Y-131301384D01*
X170687441Y-131372813D01*
X170746110Y-131461671D01*
X170763540Y-131526720D01*
X170757160Y-131633008D01*
X170566684Y-131962923D01*
X171740982Y-130881360D02*
X171455268Y-131376232D01*
X171598125Y-131128796D02*
X170732099Y-130628796D01*
X170808198Y-130782703D01*
X170843058Y-130912801D01*
X170836678Y-131019089D01*
X171327338Y-129597813D02*
X171089242Y-130010206D01*
X171477826Y-130289541D01*
X171460396Y-130224492D01*
X171466776Y-130118204D01*
X171585823Y-129912007D01*
X171674682Y-129853338D01*
X171739731Y-129835908D01*
X171846019Y-129842288D01*
X172052215Y-129961336D01*
X172110884Y-130050194D01*
X172128314Y-130115243D01*
X172121934Y-130221531D01*
X172002887Y-130427728D01*
X171914028Y-130486397D01*
X171848980Y-130503827D01*
%TO.C,HG13*%
X213964878Y-135748242D02*
X213464878Y-134882216D01*
X213702974Y-135294609D02*
X214197845Y-135008895D01*
X214459750Y-135462527D02*
X213959750Y-134596502D01*
X214849585Y-134137741D02*
X214743297Y-134144121D01*
X214619579Y-134215549D01*
X214519670Y-134328217D01*
X214484811Y-134458315D01*
X214491191Y-134564603D01*
X214545189Y-134753370D01*
X214616618Y-134877088D01*
X214753095Y-135018235D01*
X214841954Y-135076905D01*
X214972051Y-135111764D01*
X215119579Y-135081575D01*
X215202057Y-135033956D01*
X215301966Y-134921288D01*
X215319396Y-134856239D01*
X215152729Y-134567564D01*
X214987772Y-134662802D01*
X216191801Y-134462527D02*
X215696929Y-134748242D01*
X215944365Y-134605384D02*
X215444365Y-133739359D01*
X215433315Y-133910696D01*
X215398455Y-134040794D01*
X215339786Y-134129652D01*
X215980476Y-133429835D02*
X216516587Y-133120311D01*
X216418388Y-133616892D01*
X216542106Y-133545464D01*
X216648394Y-133539084D01*
X216713443Y-133556514D01*
X216802301Y-133615183D01*
X216921349Y-133821380D01*
X216927729Y-133927668D01*
X216910299Y-133992716D01*
X216851630Y-134081575D01*
X216604194Y-134224432D01*
X216497906Y-134230812D01*
X216432857Y-134213382D01*
%TO.C,HP13*%
X216219575Y-134446492D02*
X215719575Y-133580466D01*
X215957671Y-133992859D02*
X216452542Y-133707145D01*
X216714447Y-134160777D02*
X216214447Y-133294752D01*
X217126840Y-133922682D02*
X216626840Y-133056657D01*
X216956754Y-132866180D01*
X217063043Y-132859801D01*
X217128091Y-132877230D01*
X217216950Y-132935900D01*
X217288378Y-133059617D01*
X217294758Y-133165906D01*
X217277328Y-133230954D01*
X217218659Y-133319813D01*
X216888745Y-133510289D01*
X218446498Y-133160777D02*
X217951626Y-133446492D01*
X218199062Y-133303634D02*
X217699062Y-132437609D01*
X217688012Y-132608946D01*
X217653152Y-132739044D01*
X217594483Y-132827902D01*
X218235173Y-132128085D02*
X218771284Y-131818561D01*
X218673085Y-132315142D01*
X218796803Y-132243714D01*
X218903091Y-132237334D01*
X218968140Y-132254764D01*
X219056998Y-132313433D01*
X219176046Y-132519630D01*
X219182426Y-132625918D01*
X219164996Y-132690966D01*
X219106327Y-132779825D01*
X218858891Y-132922682D01*
X218752603Y-132929062D01*
X218687554Y-132911632D01*
%TO.C,HG14*%
X209455485Y-138351742D02*
X208955485Y-137485716D01*
X209193581Y-137898109D02*
X209688452Y-137612395D01*
X209950357Y-138066027D02*
X209450357Y-137200002D01*
X210340192Y-136741241D02*
X210233904Y-136747621D01*
X210110186Y-136819049D01*
X210010277Y-136931717D01*
X209975418Y-137061815D01*
X209981798Y-137168103D01*
X210035796Y-137356870D01*
X210107225Y-137480588D01*
X210243702Y-137621735D01*
X210332561Y-137680405D01*
X210462658Y-137715264D01*
X210610186Y-137685075D01*
X210692664Y-137637456D01*
X210792573Y-137524788D01*
X210810003Y-137459739D01*
X210643336Y-137171064D01*
X210478379Y-137266302D01*
X211682408Y-137066027D02*
X211187536Y-137351742D01*
X211434972Y-137208884D02*
X210934972Y-136342859D01*
X210923922Y-136514196D01*
X210889062Y-136644294D01*
X210830393Y-136733152D01*
X212091382Y-136060106D02*
X212424715Y-136637456D01*
X211694709Y-135849239D02*
X211845656Y-136586876D01*
X212381767Y-136277352D01*
%TO.C,HP14*%
X207200787Y-139653493D02*
X206700787Y-138787467D01*
X206938883Y-139199860D02*
X207433754Y-138914146D01*
X207695659Y-139367778D02*
X207195659Y-138501753D01*
X208108052Y-139129683D02*
X207608052Y-138263658D01*
X207937966Y-138073181D01*
X208044255Y-138066802D01*
X208109303Y-138084231D01*
X208198162Y-138142901D01*
X208269590Y-138266618D01*
X208275970Y-138372907D01*
X208258540Y-138437955D01*
X208199871Y-138526814D01*
X207869957Y-138717290D01*
X209427710Y-138367778D02*
X208932838Y-138653493D01*
X209180274Y-138510635D02*
X208680274Y-137644610D01*
X208669224Y-137815947D01*
X208634364Y-137946045D01*
X208575695Y-138034903D01*
X209836684Y-137361857D02*
X210170017Y-137939207D01*
X209440011Y-137150990D02*
X209590958Y-137888627D01*
X210127069Y-137579103D01*
%TO.C,JP14*%
X207676819Y-131632573D02*
X207058229Y-131989716D01*
X206910702Y-132019905D01*
X206780604Y-131985046D01*
X206667936Y-131885137D01*
X206620317Y-131802659D01*
X207048888Y-132544966D02*
X207914914Y-132044966D01*
X208105390Y-132374881D01*
X208111770Y-132481169D01*
X208094340Y-132546218D01*
X208035671Y-132635076D01*
X207911953Y-132706504D01*
X207805665Y-132712884D01*
X207740616Y-132695454D01*
X207651758Y-132636785D01*
X207461281Y-132306871D01*
X207810793Y-133864624D02*
X207525079Y-133369752D01*
X207667936Y-133617188D02*
X208533961Y-133117188D01*
X208362624Y-133106138D01*
X208232527Y-133071278D01*
X208143668Y-133012609D01*
X208816715Y-134273598D02*
X208239365Y-134606931D01*
X209027582Y-133876925D02*
X208289945Y-134027872D01*
X208599468Y-134563983D01*
%TO.C,HS7*%
X212143195Y-136799993D02*
X211643195Y-135933967D01*
X211881290Y-136346360D02*
X212376162Y-136060646D01*
X212638067Y-136514278D02*
X212138067Y-135648253D01*
X212985411Y-136258753D02*
X213132938Y-136228564D01*
X213339135Y-136109516D01*
X213397804Y-136020658D01*
X213415234Y-135955609D01*
X213408854Y-135849321D01*
X213361235Y-135766842D01*
X213272377Y-135708173D01*
X213207328Y-135690744D01*
X213101040Y-135697123D01*
X212912273Y-135751122D01*
X212805985Y-135757502D01*
X212740936Y-135740072D01*
X212652078Y-135681403D01*
X212604459Y-135598924D01*
X212598079Y-135492636D01*
X212615509Y-135427587D01*
X212674178Y-135338729D01*
X212880374Y-135219681D01*
X213027902Y-135189492D01*
X213292767Y-134981586D02*
X213870118Y-134648253D01*
X213998964Y-135728564D01*
%TO.C,JP13*%
X209876522Y-130362573D02*
X209257932Y-130719716D01*
X209110405Y-130749905D01*
X208980307Y-130715046D01*
X208867639Y-130615137D01*
X208820020Y-130532659D01*
X209248591Y-131274966D02*
X210114617Y-130774966D01*
X210305093Y-131104881D01*
X210311473Y-131211169D01*
X210294043Y-131276218D01*
X210235374Y-131365076D01*
X210111656Y-131436504D01*
X210005368Y-131442884D01*
X209940319Y-131425454D01*
X209851461Y-131366785D01*
X209660984Y-131036871D01*
X210010496Y-132594624D02*
X209724782Y-132099752D01*
X209867639Y-132347188D02*
X210733664Y-131847188D01*
X210562327Y-131836138D01*
X210432230Y-131801278D01*
X210343371Y-131742609D01*
X211043188Y-132383299D02*
X211352712Y-132919410D01*
X210856131Y-132821211D01*
X210927560Y-132944929D01*
X210933939Y-133051217D01*
X210916510Y-133116266D01*
X210857840Y-133205124D01*
X210651644Y-133324172D01*
X210545356Y-133330552D01*
X210480307Y-133313122D01*
X210391449Y-133254453D01*
X210248591Y-133007017D01*
X210242212Y-132900729D01*
X210259641Y-132835680D01*
%TO.C,C7*%
X166012833Y-101593942D02*
X165965214Y-101641561D01*
X165822357Y-101689180D01*
X165727119Y-101689180D01*
X165584261Y-101641561D01*
X165489023Y-101546323D01*
X165441404Y-101451085D01*
X165393785Y-101260609D01*
X165393785Y-101117752D01*
X165441404Y-100927276D01*
X165489023Y-100832038D01*
X165584261Y-100736800D01*
X165727119Y-100689180D01*
X165822357Y-100689180D01*
X165965214Y-100736800D01*
X166012833Y-100784419D01*
X166346166Y-100689180D02*
X167012833Y-100689180D01*
X166584261Y-101689180D01*
%TO.C,HS4*%
X168130769Y-60608113D02*
X167630769Y-59742087D01*
X167868864Y-60154480D02*
X168363736Y-59868766D01*
X168625641Y-60322398D02*
X168125641Y-59456373D01*
X168972985Y-60066873D02*
X169120512Y-60036684D01*
X169326709Y-59917636D01*
X169385378Y-59828778D01*
X169402808Y-59763729D01*
X169396428Y-59657441D01*
X169348809Y-59574962D01*
X169259951Y-59516293D01*
X169194902Y-59498864D01*
X169088614Y-59505243D01*
X168899847Y-59559242D01*
X168793559Y-59565622D01*
X168728510Y-59548192D01*
X168639652Y-59489523D01*
X168592033Y-59407044D01*
X168585653Y-59300756D01*
X168603083Y-59235707D01*
X168661752Y-59146849D01*
X168867948Y-59027801D01*
X169015476Y-58997612D01*
X169900640Y-58816477D02*
X170233974Y-59393827D01*
X169503968Y-58605610D02*
X169654914Y-59343247D01*
X170191025Y-59033723D01*
%TO.C,JP8*%
X174166284Y-61350502D02*
X173547694Y-61707645D01*
X173400167Y-61737834D01*
X173270069Y-61702975D01*
X173157401Y-61603066D01*
X173109782Y-61520588D01*
X173538354Y-62262895D02*
X174404379Y-61762895D01*
X174594855Y-62092810D01*
X174601235Y-62199098D01*
X174583805Y-62264147D01*
X174525136Y-62353005D01*
X174401418Y-62424434D01*
X174295130Y-62430813D01*
X174230081Y-62413383D01*
X174141223Y-62354714D01*
X173950747Y-62024800D01*
X174604654Y-62966924D02*
X174598274Y-62860636D01*
X174615704Y-62795587D01*
X174674373Y-62706729D01*
X174715612Y-62682919D01*
X174821900Y-62676540D01*
X174886949Y-62693969D01*
X174975808Y-62752639D01*
X175071046Y-62917596D01*
X175077425Y-63023884D01*
X175059996Y-63088933D01*
X175001327Y-63177791D01*
X174960087Y-63201601D01*
X174853799Y-63207980D01*
X174788750Y-63190551D01*
X174699892Y-63131881D01*
X174604654Y-62966924D01*
X174515796Y-62908255D01*
X174450747Y-62890825D01*
X174344459Y-62897205D01*
X174179501Y-62992443D01*
X174120832Y-63081302D01*
X174103403Y-63146350D01*
X174109782Y-63252639D01*
X174205020Y-63417596D01*
X174293879Y-63476265D01*
X174358928Y-63493695D01*
X174465216Y-63487315D01*
X174630173Y-63392077D01*
X174688842Y-63303218D01*
X174706272Y-63238170D01*
X174699892Y-63131881D01*
%TO.C,JP7*%
X171966579Y-62620502D02*
X171347989Y-62977645D01*
X171200462Y-63007834D01*
X171070364Y-62972975D01*
X170957696Y-62873066D01*
X170910077Y-62790588D01*
X171338649Y-63532895D02*
X172204674Y-63032895D01*
X172395150Y-63362810D01*
X172401530Y-63469098D01*
X172384100Y-63534147D01*
X172325431Y-63623005D01*
X172201713Y-63694434D01*
X172095425Y-63700813D01*
X172030376Y-63683383D01*
X171941518Y-63624714D01*
X171751042Y-63294800D01*
X172657055Y-63816442D02*
X172990388Y-64393792D01*
X171910077Y-64522639D01*
%TO.C,HP7*%
X163600754Y-63223517D02*
X163100754Y-62357492D01*
X163338850Y-62769885D02*
X163833721Y-62484171D01*
X164095626Y-62937803D02*
X163595626Y-62071778D01*
X164508019Y-62699708D02*
X164008019Y-61833682D01*
X164337934Y-61643206D01*
X164444222Y-61636826D01*
X164509271Y-61654256D01*
X164598129Y-61712925D01*
X164669557Y-61836643D01*
X164675937Y-61942931D01*
X164658507Y-62007980D01*
X164599838Y-62096839D01*
X164269924Y-62287315D01*
X164791566Y-61381301D02*
X165368916Y-61047968D01*
X165497762Y-62128279D01*
%TO.C,HG7*%
X165855451Y-61921767D02*
X165355451Y-61055742D01*
X165593547Y-61468135D02*
X166088418Y-61182421D01*
X166350323Y-61636053D02*
X165850323Y-60770028D01*
X166740158Y-60311267D02*
X166633870Y-60317647D01*
X166510152Y-60389075D01*
X166410244Y-60501743D01*
X166375384Y-60631841D01*
X166381764Y-60738129D01*
X166435763Y-60926896D01*
X166507191Y-61050614D01*
X166643668Y-61191761D01*
X166732527Y-61250430D01*
X166862624Y-61285290D01*
X167010152Y-61255101D01*
X167092631Y-61207482D01*
X167192539Y-61094814D01*
X167209969Y-61029765D01*
X167043302Y-60741090D01*
X166878345Y-60836328D01*
X167046263Y-60079551D02*
X167623613Y-59746218D01*
X167752459Y-60826529D01*
%TO.C,HP8*%
X172619543Y-58016517D02*
X172119543Y-57150492D01*
X172357639Y-57562885D02*
X172852510Y-57277171D01*
X173114415Y-57730803D02*
X172614415Y-56864778D01*
X173526808Y-57492708D02*
X173026808Y-56626682D01*
X173356723Y-56436206D01*
X173463011Y-56429826D01*
X173528060Y-56447256D01*
X173616918Y-56505925D01*
X173688346Y-56629643D01*
X173694726Y-56735931D01*
X173677296Y-56800980D01*
X173618627Y-56889839D01*
X173288713Y-57080315D01*
X174230837Y-56426408D02*
X174124549Y-56432787D01*
X174059500Y-56415357D01*
X173970642Y-56356688D01*
X173946832Y-56315449D01*
X173940453Y-56209161D01*
X173957882Y-56144112D01*
X174016551Y-56055254D01*
X174181509Y-55960016D01*
X174287797Y-55953636D01*
X174352846Y-55971066D01*
X174441704Y-56029735D01*
X174465513Y-56070974D01*
X174471893Y-56177262D01*
X174454463Y-56242311D01*
X174395794Y-56331169D01*
X174230837Y-56426408D01*
X174172168Y-56515266D01*
X174154738Y-56580315D01*
X174161118Y-56686603D01*
X174256356Y-56851560D01*
X174345214Y-56910229D01*
X174410263Y-56927659D01*
X174516551Y-56921279D01*
X174681509Y-56826041D01*
X174740178Y-56737183D01*
X174757608Y-56672134D01*
X174751228Y-56565846D01*
X174655990Y-56400889D01*
X174567131Y-56342219D01*
X174502082Y-56324790D01*
X174395794Y-56331169D01*
%TO.C,HG8*%
X170364846Y-59318267D02*
X169864846Y-58452242D01*
X170102942Y-58864635D02*
X170597813Y-58578921D01*
X170859718Y-59032553D02*
X170359718Y-58166528D01*
X171249553Y-57707767D02*
X171143265Y-57714147D01*
X171019547Y-57785575D01*
X170919639Y-57898243D01*
X170884779Y-58028341D01*
X170891159Y-58134629D01*
X170945158Y-58323396D01*
X171016586Y-58447114D01*
X171153063Y-58588261D01*
X171241922Y-58646930D01*
X171372019Y-58681790D01*
X171519547Y-58651601D01*
X171602026Y-58603982D01*
X171701934Y-58491314D01*
X171719364Y-58426265D01*
X171552697Y-58137590D01*
X171387740Y-58232828D01*
X171976140Y-57728158D02*
X171869852Y-57734537D01*
X171804803Y-57717107D01*
X171715945Y-57658438D01*
X171692135Y-57617199D01*
X171685756Y-57510911D01*
X171703185Y-57445862D01*
X171761854Y-57357004D01*
X171926812Y-57261766D01*
X172033100Y-57255386D01*
X172098149Y-57272816D01*
X172187007Y-57331485D01*
X172210816Y-57372724D01*
X172217196Y-57479012D01*
X172199766Y-57544061D01*
X172141097Y-57632919D01*
X171976140Y-57728158D01*
X171917471Y-57817016D01*
X171900041Y-57882065D01*
X171906421Y-57988353D01*
X172001659Y-58153310D01*
X172090517Y-58211979D01*
X172155566Y-58229409D01*
X172261854Y-58223029D01*
X172426812Y-58127791D01*
X172485481Y-58038933D01*
X172502911Y-57973884D01*
X172496531Y-57867596D01*
X172401293Y-57702639D01*
X172312434Y-57643969D01*
X172247385Y-57626540D01*
X172141097Y-57632919D01*
%TO.C,D12*%
X175970677Y-121307481D02*
X176470677Y-120441456D01*
X176676873Y-120560503D01*
X176776782Y-120673171D01*
X176811641Y-120803269D01*
X176805261Y-120909557D01*
X176751263Y-121098324D01*
X176679834Y-121222042D01*
X176543357Y-121363189D01*
X176454498Y-121421858D01*
X176324401Y-121456718D01*
X176176873Y-121426529D01*
X175970677Y-121307481D01*
X177290335Y-122069386D02*
X176795463Y-121783672D01*
X177042899Y-121926529D02*
X177542899Y-121060503D01*
X177388991Y-121136602D01*
X177258894Y-121171462D01*
X177152606Y-121165082D01*
X178072630Y-121476315D02*
X178137679Y-121458885D01*
X178243967Y-121465265D01*
X178450163Y-121584313D01*
X178508832Y-121673171D01*
X178526262Y-121738220D01*
X178519883Y-121844508D01*
X178472263Y-121926987D01*
X178359596Y-122026895D01*
X177579010Y-122236052D01*
X178115121Y-122545576D01*
X181813720Y-122487033D02*
X181318848Y-122201319D01*
X181566284Y-122344176D02*
X182066284Y-121478150D01*
X181912377Y-121554249D01*
X181782279Y-121589109D01*
X181675991Y-121582729D01*
%TO.C,D11*%
X203922858Y-122510895D02*
X203422858Y-121644869D01*
X203629054Y-121525822D01*
X203776582Y-121495632D01*
X203906679Y-121530492D01*
X203995538Y-121589161D01*
X204132015Y-121730309D01*
X204203444Y-121854027D01*
X204257442Y-122042793D01*
X204263822Y-122149082D01*
X204228963Y-122279179D01*
X204129054Y-122391847D01*
X203922858Y-122510895D01*
X205242515Y-121748990D02*
X204747644Y-122034704D01*
X204995080Y-121891847D02*
X204495080Y-121025822D01*
X204484030Y-121197159D01*
X204449170Y-121327256D01*
X204390501Y-121416115D01*
X206067302Y-121272800D02*
X205572430Y-121558514D01*
X205819866Y-121415657D02*
X205319866Y-120549631D01*
X205308816Y-120720968D01*
X205273956Y-120851066D01*
X205215287Y-120939924D01*
X207865901Y-118040447D02*
X207371029Y-118326161D01*
X207618465Y-118183304D02*
X207118465Y-117317278D01*
X207107415Y-117488615D01*
X207072555Y-117618713D01*
X207013886Y-117707571D01*
%TO.C,D10*%
X218949891Y-98910126D02*
X217949891Y-98910126D01*
X217949891Y-98672031D01*
X217997511Y-98529174D01*
X218092749Y-98433936D01*
X218187987Y-98386317D01*
X218378463Y-98338698D01*
X218521320Y-98338698D01*
X218711796Y-98386317D01*
X218807034Y-98433936D01*
X218902272Y-98529174D01*
X218949891Y-98672031D01*
X218949891Y-98910126D01*
X218949891Y-97386317D02*
X218949891Y-97957745D01*
X218949891Y-97672031D02*
X217949891Y-97672031D01*
X218092749Y-97767269D01*
X218187987Y-97862507D01*
X218235606Y-97957745D01*
X217949891Y-96767269D02*
X217949891Y-96672031D01*
X217997511Y-96576793D01*
X218045130Y-96529174D01*
X218140368Y-96481555D01*
X218330844Y-96433936D01*
X218568939Y-96433936D01*
X218759415Y-96481555D01*
X218854653Y-96529174D01*
X218902272Y-96576793D01*
X218949891Y-96672031D01*
X218949891Y-96767269D01*
X218902272Y-96862507D01*
X218854653Y-96910126D01*
X218759415Y-96957745D01*
X218568939Y-97005364D01*
X218330844Y-97005364D01*
X218140368Y-96957745D01*
X218045130Y-96910126D01*
X217997511Y-96862507D01*
X217949891Y-96767269D01*
X217049891Y-93260126D02*
X217049891Y-93831555D01*
X217049891Y-93545841D02*
X216049891Y-93545841D01*
X216192749Y-93641079D01*
X216287987Y-93736317D01*
X216335606Y-93831555D01*
%TO.C,D9*%
X203868292Y-73903888D02*
X204368292Y-73037863D01*
X204574488Y-73156910D01*
X204674397Y-73269578D01*
X204709256Y-73399676D01*
X204702877Y-73505964D01*
X204648878Y-73694731D01*
X204577449Y-73818449D01*
X204440972Y-73959597D01*
X204352113Y-74018266D01*
X204222016Y-74053125D01*
X204074488Y-74022936D01*
X203868292Y-73903888D01*
X204775557Y-74427698D02*
X204940514Y-74522936D01*
X205046802Y-74529316D01*
X205111851Y-74511886D01*
X205265758Y-74435787D01*
X205402235Y-74294639D01*
X205592711Y-73964725D01*
X205599091Y-73858437D01*
X205581661Y-73793388D01*
X205522992Y-73704530D01*
X205358035Y-73609291D01*
X205251747Y-73602912D01*
X205186698Y-73620341D01*
X205097840Y-73679011D01*
X204978792Y-73885207D01*
X204972412Y-73991495D01*
X204989842Y-74056544D01*
X205048511Y-74145402D01*
X205213469Y-74240641D01*
X205319757Y-74247020D01*
X205384805Y-74229590D01*
X205473664Y-74170921D01*
X200210932Y-73986241D02*
X199716060Y-73700527D01*
X199963496Y-73843384D02*
X200463496Y-72977358D01*
X200309589Y-73053457D01*
X200179491Y-73088317D01*
X200073203Y-73081937D01*
%TO.C,D8*%
X176832688Y-74632922D02*
X176332688Y-73766896D01*
X176538884Y-73647848D01*
X176686412Y-73617659D01*
X176816509Y-73652519D01*
X176905368Y-73711188D01*
X177041845Y-73852336D01*
X177113274Y-73976053D01*
X177167272Y-74164820D01*
X177173652Y-74271108D01*
X177138793Y-74401206D01*
X177038884Y-74513874D01*
X176832688Y-74632922D01*
X177536717Y-73566621D02*
X177430429Y-73573001D01*
X177365380Y-73555571D01*
X177276521Y-73496902D01*
X177252712Y-73455663D01*
X177246332Y-73349375D01*
X177263762Y-73284326D01*
X177322431Y-73195468D01*
X177487388Y-73100229D01*
X177593676Y-73093850D01*
X177658725Y-73111279D01*
X177747584Y-73169949D01*
X177771393Y-73211188D01*
X177777773Y-73317476D01*
X177760343Y-73382525D01*
X177701674Y-73471383D01*
X177536717Y-73566621D01*
X177478048Y-73655480D01*
X177460618Y-73720528D01*
X177466998Y-73826817D01*
X177562236Y-73991774D01*
X177651094Y-74050443D01*
X177716143Y-74067873D01*
X177822431Y-74061493D01*
X177987388Y-73966255D01*
X178046057Y-73877396D01*
X178063487Y-73812348D01*
X178057107Y-73706060D01*
X177961869Y-73541102D01*
X177873011Y-73482433D01*
X177807962Y-73465003D01*
X177701674Y-73471383D01*
X175075328Y-77841465D02*
X174580456Y-78127179D01*
X174827892Y-77984322D02*
X174327892Y-77118296D01*
X174316842Y-77289633D01*
X174281982Y-77419731D01*
X174223313Y-77508589D01*
%TO.C,D7*%
X163970300Y-98470496D02*
X162970300Y-98470496D01*
X162970300Y-98232401D01*
X163017920Y-98089543D01*
X163113158Y-97994305D01*
X163208396Y-97946686D01*
X163398872Y-97899067D01*
X163541729Y-97899067D01*
X163732205Y-97946686D01*
X163827443Y-97994305D01*
X163922681Y-98089543D01*
X163970300Y-98232401D01*
X163970300Y-98470496D01*
X162970300Y-97565734D02*
X162970300Y-96899067D01*
X163970300Y-97327639D01*
X165870300Y-101596686D02*
X165870300Y-102168115D01*
X165870300Y-101882401D02*
X164870300Y-101882401D01*
X165013158Y-101977639D01*
X165108396Y-102072877D01*
X165156015Y-102168115D01*
%TO.C,C12*%
X205839360Y-117087940D02*
X205774311Y-117070511D01*
X205661643Y-116970602D01*
X205614024Y-116888124D01*
X205583835Y-116740596D01*
X205618695Y-116610498D01*
X205677364Y-116521640D01*
X205818511Y-116385163D01*
X205942229Y-116313734D01*
X206130996Y-116259735D01*
X206237284Y-116253356D01*
X206367382Y-116288215D01*
X206480050Y-116388124D01*
X206527669Y-116470602D01*
X206557858Y-116618130D01*
X206540428Y-116683178D01*
X206233072Y-117960345D02*
X205947358Y-117465474D01*
X206090215Y-117712910D02*
X206956240Y-117212910D01*
X206784903Y-117201860D01*
X206654806Y-117167000D01*
X206565947Y-117108331D01*
X207207095Y-117837879D02*
X207272144Y-117855309D01*
X207361002Y-117913978D01*
X207480050Y-118120174D01*
X207486430Y-118226462D01*
X207469000Y-118291511D01*
X207410331Y-118380370D01*
X207327852Y-118427989D01*
X207180325Y-118458178D01*
X206399739Y-118249021D01*
X206709262Y-118785132D01*
%TO.C,C11*%
X181654850Y-121686302D02*
X181672279Y-121751350D01*
X181642090Y-121898878D01*
X181594471Y-121981356D01*
X181481803Y-122081265D01*
X181351706Y-122116124D01*
X181245418Y-122109745D01*
X181056651Y-122055746D01*
X180932933Y-121984317D01*
X180791785Y-121847840D01*
X180733116Y-121758982D01*
X180698257Y-121628884D01*
X180728446Y-121481356D01*
X180776065Y-121398878D01*
X180888733Y-121298969D01*
X180953782Y-121281540D01*
X182213519Y-120909134D02*
X181927805Y-121404006D01*
X182070662Y-121156570D02*
X181204636Y-120656570D01*
X181280735Y-120810478D01*
X181315595Y-120940575D01*
X181309215Y-121046863D01*
X182689709Y-120084348D02*
X182403995Y-120579220D01*
X182546852Y-120331784D02*
X181680827Y-119831784D01*
X181756926Y-119985691D01*
X181791785Y-120115789D01*
X181785405Y-120222077D01*
%TO.C,C10*%
X215180942Y-94281242D02*
X215133323Y-94328861D01*
X214990466Y-94376480D01*
X214895228Y-94376480D01*
X214752371Y-94328861D01*
X214657133Y-94233623D01*
X214609514Y-94138385D01*
X214561895Y-93947909D01*
X214561895Y-93805052D01*
X214609514Y-93614576D01*
X214657133Y-93519338D01*
X214752371Y-93424100D01*
X214895228Y-93376480D01*
X214990466Y-93376480D01*
X215133323Y-93424100D01*
X215180942Y-93471719D01*
X216133323Y-94376480D02*
X215561895Y-94376480D01*
X215847609Y-94376480D02*
X215847609Y-93376480D01*
X215752371Y-93519338D01*
X215657133Y-93614576D01*
X215561895Y-93662195D01*
X216752371Y-93376480D02*
X216847609Y-93376480D01*
X216942847Y-93424100D01*
X216990466Y-93471719D01*
X217038085Y-93566957D01*
X217085704Y-93757433D01*
X217085704Y-93995528D01*
X217038085Y-94186004D01*
X216990466Y-94281242D01*
X216942847Y-94328861D01*
X216847609Y-94376480D01*
X216752371Y-94376480D01*
X216657133Y-94328861D01*
X216609514Y-94281242D01*
X216561895Y-94186004D01*
X216514276Y-93995528D01*
X216514276Y-93757433D01*
X216561895Y-93566957D01*
X216609514Y-93471719D01*
X216657133Y-93424100D01*
X216752371Y-93376480D01*
%TO.C,C9*%
X200244777Y-74685208D02*
X200262207Y-74750257D01*
X200232017Y-74897785D01*
X200184398Y-74980263D01*
X200071731Y-75080172D01*
X199941633Y-75115031D01*
X199835345Y-75108652D01*
X199646578Y-75054653D01*
X199522860Y-74983224D01*
X199381712Y-74846747D01*
X199323043Y-74757888D01*
X199288184Y-74627791D01*
X199318373Y-74480263D01*
X199365992Y-74397785D01*
X199478660Y-74297876D01*
X199543709Y-74280447D01*
X200565351Y-74320434D02*
X200660589Y-74155477D01*
X200666969Y-74049189D01*
X200649539Y-73984140D01*
X200573440Y-73830233D01*
X200432292Y-73693756D01*
X200102378Y-73503280D01*
X199996090Y-73496900D01*
X199931041Y-73514330D01*
X199842183Y-73572999D01*
X199746944Y-73737956D01*
X199740565Y-73844244D01*
X199757994Y-73909293D01*
X199816664Y-73998151D01*
X200022860Y-74117199D01*
X200129148Y-74123579D01*
X200194197Y-74106149D01*
X200283055Y-74047480D01*
X200378294Y-73882522D01*
X200384673Y-73776234D01*
X200367243Y-73711186D01*
X200308574Y-73622327D01*
%TO.C,C8*%
X174823087Y-78122733D02*
X174758039Y-78105304D01*
X174645371Y-78005395D01*
X174597752Y-77922917D01*
X174567562Y-77775389D01*
X174602422Y-77645291D01*
X174661091Y-77556433D01*
X174802239Y-77419956D01*
X174925957Y-77348527D01*
X175114723Y-77294528D01*
X175221011Y-77288149D01*
X175351109Y-77323008D01*
X175463777Y-77422917D01*
X175511396Y-77505395D01*
X175541585Y-77652923D01*
X175524156Y-77717971D01*
X175521195Y-78379510D02*
X175514815Y-78273222D01*
X175532245Y-78208173D01*
X175590914Y-78119314D01*
X175632153Y-78095505D01*
X175738441Y-78089125D01*
X175803490Y-78106555D01*
X175892348Y-78165224D01*
X175987587Y-78330181D01*
X175993966Y-78436469D01*
X175976537Y-78501518D01*
X175917867Y-78590377D01*
X175876628Y-78614186D01*
X175770340Y-78620566D01*
X175705291Y-78603136D01*
X175616433Y-78544467D01*
X175521195Y-78379510D01*
X175432336Y-78320841D01*
X175367288Y-78303411D01*
X175260999Y-78309791D01*
X175096042Y-78405029D01*
X175037373Y-78493887D01*
X175019943Y-78558936D01*
X175026323Y-78665224D01*
X175121561Y-78830181D01*
X175210420Y-78888850D01*
X175275468Y-78906280D01*
X175381756Y-78899900D01*
X175546714Y-78804662D01*
X175605383Y-78715804D01*
X175622813Y-78650755D01*
X175616433Y-78544467D01*
%TO.C,HS6*%
X235428728Y-98954741D02*
X234428728Y-98954741D01*
X234904919Y-98954741D02*
X234904919Y-98383312D01*
X235428728Y-98383312D02*
X234428728Y-98383312D01*
X235381109Y-97954741D02*
X235428728Y-97811884D01*
X235428728Y-97573788D01*
X235381109Y-97478550D01*
X235333490Y-97430931D01*
X235238252Y-97383312D01*
X235143014Y-97383312D01*
X235047776Y-97430931D01*
X235000157Y-97478550D01*
X234952538Y-97573788D01*
X234904919Y-97764265D01*
X234857300Y-97859503D01*
X234809681Y-97907122D01*
X234714443Y-97954741D01*
X234619205Y-97954741D01*
X234523967Y-97907122D01*
X234476348Y-97859503D01*
X234428728Y-97764265D01*
X234428728Y-97526169D01*
X234476348Y-97383312D01*
X234428728Y-96526169D02*
X234428728Y-96716646D01*
X234476348Y-96811884D01*
X234523967Y-96859503D01*
X234666824Y-96954741D01*
X234857300Y-97002360D01*
X235238252Y-97002360D01*
X235333490Y-96954741D01*
X235381109Y-96907122D01*
X235428728Y-96811884D01*
X235428728Y-96621407D01*
X235381109Y-96526169D01*
X235333490Y-96478550D01*
X235238252Y-96430931D01*
X235000157Y-96430931D01*
X234904919Y-96478550D01*
X234857300Y-96526169D01*
X234809681Y-96621407D01*
X234809681Y-96811884D01*
X234857300Y-96907122D01*
X234904919Y-96954741D01*
X235000157Y-97002360D01*
%TO.C,JP12*%
X228720424Y-100239026D02*
X228720424Y-100953312D01*
X228672805Y-101096169D01*
X228577567Y-101191407D01*
X228434709Y-101239026D01*
X228339471Y-101239026D01*
X229196614Y-101239026D02*
X229196614Y-100239026D01*
X229577567Y-100239026D01*
X229672805Y-100286646D01*
X229720424Y-100334265D01*
X229768043Y-100429503D01*
X229768043Y-100572360D01*
X229720424Y-100667598D01*
X229672805Y-100715217D01*
X229577567Y-100762836D01*
X229196614Y-100762836D01*
X230720424Y-101239026D02*
X230148995Y-101239026D01*
X230434709Y-101239026D02*
X230434709Y-100239026D01*
X230339471Y-100381884D01*
X230244233Y-100477122D01*
X230148995Y-100524741D01*
X231101376Y-100334265D02*
X231148995Y-100286646D01*
X231244233Y-100239026D01*
X231482328Y-100239026D01*
X231577567Y-100286646D01*
X231625186Y-100334265D01*
X231672805Y-100429503D01*
X231672805Y-100524741D01*
X231625186Y-100667598D01*
X231053757Y-101239026D01*
X231672805Y-101239026D01*
%TO.C,JP11*%
X228720424Y-97699027D02*
X228720424Y-98413313D01*
X228672805Y-98556170D01*
X228577567Y-98651408D01*
X228434709Y-98699027D01*
X228339471Y-98699027D01*
X229196614Y-98699027D02*
X229196614Y-97699027D01*
X229577567Y-97699027D01*
X229672805Y-97746647D01*
X229720424Y-97794266D01*
X229768043Y-97889504D01*
X229768043Y-98032361D01*
X229720424Y-98127599D01*
X229672805Y-98175218D01*
X229577567Y-98222837D01*
X229196614Y-98222837D01*
X230720424Y-98699027D02*
X230148995Y-98699027D01*
X230434709Y-98699027D02*
X230434709Y-97699027D01*
X230339471Y-97841885D01*
X230244233Y-97937123D01*
X230148995Y-97984742D01*
X231672805Y-98699027D02*
X231101376Y-98699027D01*
X231387090Y-98699027D02*
X231387090Y-97699027D01*
X231291852Y-97841885D01*
X231196614Y-97937123D01*
X231101376Y-97984742D01*
%TO.C,HS5*%
X211699581Y-59371792D02*
X212199581Y-58505767D01*
X211961486Y-58918160D02*
X212456358Y-59203874D01*
X212194453Y-59657507D02*
X212694453Y-58791481D01*
X212589416Y-59830553D02*
X212689324Y-59943221D01*
X212895521Y-60062268D01*
X213001809Y-60068648D01*
X213066858Y-60051218D01*
X213155716Y-59992549D01*
X213203335Y-59910071D01*
X213209715Y-59803783D01*
X213192285Y-59738734D01*
X213133616Y-59649875D01*
X212992468Y-59513398D01*
X212933799Y-59424540D01*
X212916370Y-59359491D01*
X212922749Y-59253203D01*
X212970368Y-59170724D01*
X213059227Y-59112055D01*
X213124276Y-59094625D01*
X213230564Y-59101005D01*
X213436760Y-59220053D01*
X213536669Y-59332720D01*
X214344025Y-59743862D02*
X213931632Y-59505767D01*
X213652297Y-59894350D01*
X213717346Y-59876921D01*
X213823634Y-59883300D01*
X214029831Y-60002348D01*
X214088500Y-60091206D01*
X214105930Y-60156255D01*
X214099550Y-60262543D01*
X213980502Y-60468740D01*
X213891644Y-60527409D01*
X213826595Y-60544839D01*
X213720307Y-60538459D01*
X213514111Y-60419411D01*
X213455441Y-60330553D01*
X213438012Y-60265504D01*
%TO.C,JP10*%
X212054478Y-66278047D02*
X212673067Y-66635190D01*
X212772976Y-66747858D01*
X212807835Y-66877955D01*
X212777646Y-67025483D01*
X212730027Y-67107961D01*
X213158598Y-66365654D02*
X212292573Y-65865654D01*
X212483049Y-65535739D01*
X212571907Y-65477070D01*
X212636956Y-65459641D01*
X212743244Y-65466020D01*
X212866962Y-65537449D01*
X212925631Y-65626307D01*
X212943061Y-65691356D01*
X212936681Y-65797644D01*
X212746205Y-66127559D01*
X213920503Y-65045996D02*
X213634789Y-65540868D01*
X213777646Y-65293432D02*
X212911620Y-64793432D01*
X212987719Y-64947339D01*
X213022579Y-65077437D01*
X213016199Y-65183725D01*
X213364001Y-64009885D02*
X213411620Y-63927406D01*
X213500479Y-63868737D01*
X213565528Y-63851308D01*
X213671816Y-63857687D01*
X213860583Y-63911686D01*
X214066779Y-64030734D01*
X214207927Y-64167211D01*
X214266596Y-64256070D01*
X214284026Y-64321118D01*
X214277646Y-64427406D01*
X214230027Y-64509885D01*
X214141168Y-64568554D01*
X214076120Y-64585984D01*
X213969831Y-64579604D01*
X213781065Y-64525605D01*
X213574868Y-64406558D01*
X213433721Y-64270080D01*
X213375051Y-64181222D01*
X213357622Y-64116173D01*
X213364001Y-64009885D01*
%TO.C,JP9*%
X210092869Y-64595654D02*
X210711458Y-64952797D01*
X210811367Y-65065465D01*
X210846226Y-65195562D01*
X210816037Y-65343090D01*
X210768418Y-65425568D01*
X211196989Y-64683261D02*
X210330964Y-64183261D01*
X210521440Y-63853346D01*
X210610299Y-63794677D01*
X210675347Y-63777247D01*
X210781636Y-63783627D01*
X210905353Y-63855056D01*
X210964023Y-63943914D01*
X210981452Y-64008963D01*
X210975073Y-64115251D01*
X210784596Y-64445166D01*
X211720799Y-63775996D02*
X211816037Y-63611039D01*
X211822417Y-63504751D01*
X211804987Y-63439702D01*
X211728888Y-63285795D01*
X211587740Y-63149317D01*
X211257826Y-62958841D01*
X211151538Y-62952461D01*
X211086489Y-62969891D01*
X210997631Y-63028560D01*
X210902393Y-63193517D01*
X210896013Y-63299806D01*
X210913443Y-63364854D01*
X210972112Y-63453713D01*
X211178308Y-63572760D01*
X211284596Y-63579140D01*
X211349645Y-63561710D01*
X211438504Y-63503041D01*
X211533742Y-63338084D01*
X211540121Y-63231796D01*
X211522692Y-63166747D01*
X211464023Y-63077889D01*
%TO.C,HS3*%
X125079369Y-59362472D02*
X125579369Y-58496447D01*
X125341274Y-58908840D02*
X125836146Y-59194554D01*
X125574241Y-59648187D02*
X126074241Y-58782161D01*
X125969204Y-59821233D02*
X126069112Y-59933901D01*
X126275309Y-60052948D01*
X126381597Y-60059328D01*
X126446646Y-60041898D01*
X126535504Y-59983229D01*
X126583123Y-59900751D01*
X126589503Y-59794463D01*
X126572073Y-59729414D01*
X126513404Y-59640555D01*
X126372256Y-59504078D01*
X126313587Y-59415220D01*
X126296158Y-59350171D01*
X126302537Y-59243883D01*
X126350156Y-59161404D01*
X126439015Y-59102735D01*
X126504064Y-59085305D01*
X126610352Y-59091685D01*
X126816548Y-59210733D01*
X126916457Y-59323400D01*
X127228941Y-59448828D02*
X127765052Y-59758352D01*
X127285901Y-59921599D01*
X127409619Y-59993028D01*
X127468288Y-60081886D01*
X127485718Y-60146935D01*
X127479338Y-60253223D01*
X127360290Y-60459420D01*
X127271432Y-60518089D01*
X127206383Y-60535519D01*
X127100095Y-60529139D01*
X126852659Y-60386282D01*
X126793990Y-60297423D01*
X126776560Y-60232375D01*
%TO.C,JP6*%
X125672361Y-65856333D02*
X126290950Y-66213476D01*
X126390859Y-66326144D01*
X126425718Y-66456241D01*
X126395529Y-66603769D01*
X126347910Y-66686247D01*
X126776481Y-65943940D02*
X125910456Y-65443940D01*
X126100932Y-65114025D01*
X126189791Y-65055356D01*
X126254839Y-65037926D01*
X126361128Y-65044306D01*
X126484845Y-65115735D01*
X126543515Y-65204593D01*
X126560944Y-65269642D01*
X126554565Y-65375930D01*
X126364088Y-65705845D01*
X126624742Y-64206761D02*
X126529504Y-64371718D01*
X126523124Y-64478006D01*
X126540554Y-64543055D01*
X126616653Y-64696962D01*
X126757800Y-64833439D01*
X127087715Y-65023916D01*
X127194003Y-65030295D01*
X127259052Y-65012866D01*
X127347910Y-64954196D01*
X127443148Y-64789239D01*
X127449528Y-64682951D01*
X127432098Y-64617902D01*
X127373429Y-64529044D01*
X127167232Y-64409996D01*
X127060944Y-64403617D01*
X126995896Y-64421046D01*
X126907037Y-64479715D01*
X126811799Y-64644673D01*
X126805419Y-64750961D01*
X126822849Y-64816010D01*
X126881518Y-64904868D01*
%TO.C,JP5*%
X123472657Y-64586333D02*
X124091246Y-64943476D01*
X124191155Y-65056144D01*
X124226014Y-65186241D01*
X124195825Y-65333769D01*
X124148206Y-65416247D01*
X124576777Y-64673940D02*
X123710752Y-64173940D01*
X123901228Y-63844025D01*
X123990087Y-63785356D01*
X124055135Y-63767926D01*
X124161424Y-63774306D01*
X124285141Y-63845735D01*
X124343811Y-63934593D01*
X124361240Y-63999642D01*
X124354861Y-64105930D01*
X124164384Y-64435845D01*
X124448847Y-62895521D02*
X124210752Y-63307914D01*
X124599336Y-63587249D01*
X124581906Y-63522200D01*
X124588286Y-63415912D01*
X124707333Y-63209715D01*
X124796192Y-63151046D01*
X124861240Y-63133617D01*
X124967528Y-63139996D01*
X125173725Y-63259044D01*
X125232394Y-63347902D01*
X125249824Y-63412951D01*
X125243444Y-63519239D01*
X125124397Y-63725436D01*
X125035538Y-63784105D01*
X124970489Y-63801535D01*
%TO.C,HS2*%
X81518434Y-60587868D02*
X81018434Y-59721842D01*
X81256529Y-60134235D02*
X81751401Y-59848521D01*
X82013306Y-60302153D02*
X81513306Y-59436128D01*
X82360650Y-60046628D02*
X82508177Y-60016439D01*
X82714374Y-59897391D01*
X82773043Y-59808533D01*
X82790473Y-59743484D01*
X82784093Y-59637196D01*
X82736474Y-59554717D01*
X82647616Y-59496048D01*
X82582567Y-59478619D01*
X82476279Y-59484998D01*
X82287512Y-59538997D01*
X82181224Y-59545377D01*
X82116175Y-59527947D01*
X82027317Y-59469278D01*
X81979698Y-59386799D01*
X81973318Y-59280511D01*
X81990748Y-59215462D01*
X82049417Y-59126604D01*
X82255613Y-59007556D01*
X82403141Y-58977367D01*
X82756865Y-58828130D02*
X82774294Y-58763081D01*
X82832963Y-58674223D01*
X83039160Y-58555175D01*
X83145448Y-58548796D01*
X83210497Y-58566225D01*
X83299355Y-58624895D01*
X83346974Y-58707373D01*
X83377164Y-58854901D01*
X83168006Y-59635487D01*
X83704117Y-59325963D01*
%TO.C,JP4*%
X87553949Y-61330257D02*
X86935359Y-61687400D01*
X86787832Y-61717589D01*
X86657734Y-61682730D01*
X86545066Y-61582821D01*
X86497447Y-61500343D01*
X86926019Y-62242650D02*
X87792044Y-61742650D01*
X87982520Y-62072565D01*
X87988900Y-62178853D01*
X87971470Y-62243902D01*
X87912801Y-62332760D01*
X87789083Y-62404189D01*
X87682795Y-62410568D01*
X87617746Y-62393138D01*
X87528888Y-62334469D01*
X87338412Y-62004555D01*
X88217655Y-63146496D02*
X87640304Y-63479829D01*
X88428521Y-62749823D02*
X87690884Y-62900770D01*
X88000408Y-63436881D01*
%TO.C,JP3*%
X85354245Y-62600257D02*
X84735655Y-62957400D01*
X84588128Y-62987589D01*
X84458030Y-62952730D01*
X84345362Y-62852821D01*
X84297743Y-62770343D01*
X84726315Y-63512650D02*
X85592340Y-63012650D01*
X85782816Y-63342565D01*
X85789196Y-63448853D01*
X85771766Y-63513902D01*
X85713097Y-63602760D01*
X85589379Y-63674189D01*
X85483091Y-63680568D01*
X85418042Y-63663138D01*
X85329184Y-63604469D01*
X85138708Y-63274555D01*
X86044721Y-63796197D02*
X86354245Y-64332308D01*
X85857664Y-64234109D01*
X85929092Y-64357827D01*
X85935472Y-64464115D01*
X85918042Y-64529164D01*
X85859373Y-64618022D01*
X85653177Y-64737070D01*
X85546889Y-64743450D01*
X85481840Y-64726020D01*
X85392981Y-64667351D01*
X85250124Y-64419915D01*
X85243744Y-64313627D01*
X85261174Y-64248578D01*
%TO.C,D6*%
X89773910Y-121548705D02*
X90273910Y-120682680D01*
X90480106Y-120801727D01*
X90580015Y-120914395D01*
X90614874Y-121044493D01*
X90608495Y-121150781D01*
X90554496Y-121339548D01*
X90483067Y-121463266D01*
X90346590Y-121604414D01*
X90257731Y-121663083D01*
X90127634Y-121697942D01*
X89980106Y-121667753D01*
X89773910Y-121548705D01*
X91511089Y-121396966D02*
X91346132Y-121301727D01*
X91239844Y-121295348D01*
X91174795Y-121312778D01*
X91020888Y-121388876D01*
X90884410Y-121530024D01*
X90693934Y-121859939D01*
X90687554Y-121966227D01*
X90704984Y-122031275D01*
X90763653Y-122120134D01*
X90928610Y-122215372D01*
X91034898Y-122221752D01*
X91099947Y-122204322D01*
X91188806Y-122145653D01*
X91307853Y-121939456D01*
X91314233Y-121833168D01*
X91296803Y-121768119D01*
X91238134Y-121679261D01*
X91073177Y-121584023D01*
X90966889Y-121577643D01*
X90901840Y-121595073D01*
X90812982Y-121653742D01*
%TO.C,D1*%
X77355880Y-98440295D02*
X76355880Y-98440295D01*
X76355880Y-98202200D01*
X76403500Y-98059342D01*
X76498738Y-97964104D01*
X76593976Y-97916485D01*
X76784452Y-97868866D01*
X76927309Y-97868866D01*
X77117785Y-97916485D01*
X77213023Y-97964104D01*
X77308261Y-98059342D01*
X77355880Y-98202200D01*
X77355880Y-98440295D01*
X77355880Y-96916485D02*
X77355880Y-97487914D01*
X77355880Y-97202200D02*
X76355880Y-97202200D01*
X76498738Y-97297438D01*
X76593976Y-97392676D01*
X76641595Y-97487914D01*
X79255880Y-101566485D02*
X79255880Y-102137914D01*
X79255880Y-101852200D02*
X78255880Y-101852200D01*
X78398738Y-101947438D01*
X78493976Y-102042676D01*
X78541595Y-102137914D01*
%TO.C,C1*%
X79462333Y-101924142D02*
X79414714Y-101971761D01*
X79271857Y-102019380D01*
X79176619Y-102019380D01*
X79033761Y-101971761D01*
X78938523Y-101876523D01*
X78890904Y-101781285D01*
X78843285Y-101590809D01*
X78843285Y-101447952D01*
X78890904Y-101257476D01*
X78938523Y-101162238D01*
X79033761Y-101067000D01*
X79176619Y-101019380D01*
X79271857Y-101019380D01*
X79414714Y-101067000D01*
X79462333Y-101114619D01*
X80414714Y-102019380D02*
X79843285Y-102019380D01*
X80129000Y-102019380D02*
X80129000Y-101019380D01*
X80033761Y-101162238D01*
X79938523Y-101257476D01*
X79843285Y-101305095D01*
%TO.C,D2*%
X90242181Y-74653632D02*
X89742181Y-73787606D01*
X89948377Y-73668558D01*
X90095905Y-73638369D01*
X90226002Y-73673229D01*
X90314861Y-73731898D01*
X90451338Y-73873046D01*
X90522767Y-73996763D01*
X90576765Y-74185530D01*
X90583145Y-74291818D01*
X90548286Y-74421916D01*
X90448377Y-74534584D01*
X90242181Y-74653632D01*
X90614586Y-73393894D02*
X90632016Y-73328845D01*
X90690685Y-73239987D01*
X90896881Y-73120939D01*
X91003169Y-73114560D01*
X91068218Y-73131989D01*
X91157077Y-73190659D01*
X91204696Y-73273137D01*
X91234885Y-73420665D01*
X91025728Y-74201251D01*
X91561839Y-73891727D01*
%TO.C,HP12*%
X235428728Y-104661741D02*
X234428728Y-104661741D01*
X234904919Y-104661741D02*
X234904919Y-104090312D01*
X235428728Y-104090312D02*
X234428728Y-104090312D01*
X235428728Y-103614122D02*
X234428728Y-103614122D01*
X234428728Y-103233169D01*
X234476348Y-103137931D01*
X234523967Y-103090312D01*
X234619205Y-103042693D01*
X234762062Y-103042693D01*
X234857300Y-103090312D01*
X234904919Y-103137931D01*
X234952538Y-103233169D01*
X234952538Y-103614122D01*
X235428728Y-102090312D02*
X235428728Y-102661741D01*
X235428728Y-102376026D02*
X234428728Y-102376026D01*
X234571586Y-102471265D01*
X234666824Y-102566503D01*
X234714443Y-102661741D01*
X234523967Y-101709360D02*
X234476348Y-101661741D01*
X234428728Y-101566503D01*
X234428728Y-101328407D01*
X234476348Y-101233169D01*
X234523967Y-101185550D01*
X234619205Y-101137931D01*
X234714443Y-101137931D01*
X234857300Y-101185550D01*
X235428728Y-101756979D01*
X235428728Y-101137931D01*
%TO.C,HG12*%
X235428728Y-102058241D02*
X234428728Y-102058241D01*
X234904919Y-102058241D02*
X234904919Y-101486812D01*
X235428728Y-101486812D02*
X234428728Y-101486812D01*
X234476348Y-100486812D02*
X234428728Y-100582050D01*
X234428728Y-100724907D01*
X234476348Y-100867765D01*
X234571586Y-100963003D01*
X234666824Y-101010622D01*
X234857300Y-101058241D01*
X235000157Y-101058241D01*
X235190633Y-101010622D01*
X235285871Y-100963003D01*
X235381109Y-100867765D01*
X235428728Y-100724907D01*
X235428728Y-100629669D01*
X235381109Y-100486812D01*
X235333490Y-100439193D01*
X235000157Y-100439193D01*
X235000157Y-100629669D01*
X235428728Y-99486812D02*
X235428728Y-100058241D01*
X235428728Y-99772526D02*
X234428728Y-99772526D01*
X234571586Y-99867765D01*
X234666824Y-99963003D01*
X234714443Y-100058241D01*
X234523967Y-99105860D02*
X234476348Y-99058241D01*
X234428728Y-98963003D01*
X234428728Y-98724907D01*
X234476348Y-98629669D01*
X234523967Y-98582050D01*
X234619205Y-98534431D01*
X234714443Y-98534431D01*
X234857300Y-98582050D01*
X235428728Y-99153479D01*
X235428728Y-98534431D01*
%TO.C,HP11*%
X235428727Y-94247742D02*
X234428727Y-94247742D01*
X234904918Y-94247742D02*
X234904918Y-93676313D01*
X235428727Y-93676313D02*
X234428727Y-93676313D01*
X235428727Y-93200123D02*
X234428727Y-93200123D01*
X234428727Y-92819170D01*
X234476347Y-92723932D01*
X234523966Y-92676313D01*
X234619204Y-92628694D01*
X234762061Y-92628694D01*
X234857299Y-92676313D01*
X234904918Y-92723932D01*
X234952537Y-92819170D01*
X234952537Y-93200123D01*
X235428727Y-91676313D02*
X235428727Y-92247742D01*
X235428727Y-91962027D02*
X234428727Y-91962027D01*
X234571585Y-92057266D01*
X234666823Y-92152504D01*
X234714442Y-92247742D01*
X235428727Y-90723932D02*
X235428727Y-91295361D01*
X235428727Y-91009647D02*
X234428727Y-91009647D01*
X234571585Y-91104885D01*
X234666823Y-91200123D01*
X234714442Y-91295361D01*
%TO.C,HG11*%
X235428727Y-96851241D02*
X234428727Y-96851241D01*
X234904918Y-96851241D02*
X234904918Y-96279812D01*
X235428727Y-96279812D02*
X234428727Y-96279812D01*
X234476347Y-95279812D02*
X234428727Y-95375050D01*
X234428727Y-95517907D01*
X234476347Y-95660765D01*
X234571585Y-95756003D01*
X234666823Y-95803622D01*
X234857299Y-95851241D01*
X235000156Y-95851241D01*
X235190632Y-95803622D01*
X235285870Y-95756003D01*
X235381108Y-95660765D01*
X235428727Y-95517907D01*
X235428727Y-95422669D01*
X235381108Y-95279812D01*
X235333489Y-95232193D01*
X235000156Y-95232193D01*
X235000156Y-95422669D01*
X235428727Y-94279812D02*
X235428727Y-94851241D01*
X235428727Y-94565526D02*
X234428727Y-94565526D01*
X234571585Y-94660765D01*
X234666823Y-94756003D01*
X234714442Y-94851241D01*
X235428727Y-93327431D02*
X235428727Y-93898860D01*
X235428727Y-93613146D02*
X234428727Y-93613146D01*
X234571585Y-93708384D01*
X234666823Y-93803622D01*
X234714442Y-93898860D01*
%TO.C,C6*%
X95477295Y-121437828D02*
X95494725Y-121502877D01*
X95464535Y-121650405D01*
X95416916Y-121732883D01*
X95304249Y-121832792D01*
X95174151Y-121867651D01*
X95067863Y-121861272D01*
X94879096Y-121807273D01*
X94755378Y-121735844D01*
X94614230Y-121599367D01*
X94555561Y-121510508D01*
X94520702Y-121380411D01*
X94550891Y-121232883D01*
X94598510Y-121150405D01*
X94711178Y-121050496D01*
X94776227Y-121033067D01*
X95122320Y-120243140D02*
X95027081Y-120408097D01*
X95020702Y-120514385D01*
X95038132Y-120579434D01*
X95114230Y-120733341D01*
X95255378Y-120869819D01*
X95585293Y-121060295D01*
X95691581Y-121066675D01*
X95756629Y-121049245D01*
X95845488Y-120990576D01*
X95940726Y-120825619D01*
X95947106Y-120719331D01*
X95929676Y-120654282D01*
X95871007Y-120565423D01*
X95664810Y-120446376D01*
X95558522Y-120439996D01*
X95493473Y-120457426D01*
X95404615Y-120516095D01*
X95309377Y-120681052D01*
X95302997Y-120787340D01*
X95320427Y-120852389D01*
X95379096Y-120941247D01*
%TO.C,HP10*%
X215775963Y-61725292D02*
X216275963Y-60859267D01*
X216037868Y-61271660D02*
X216532740Y-61557374D01*
X216270835Y-62011007D02*
X216770835Y-61144981D01*
X216683228Y-62249102D02*
X217183228Y-61383076D01*
X217513143Y-61573553D01*
X217571812Y-61662411D01*
X217589241Y-61727460D01*
X217582862Y-61833748D01*
X217511433Y-61957466D01*
X217422575Y-62016135D01*
X217357526Y-62033565D01*
X217251238Y-62027185D01*
X216921323Y-61836709D01*
X218002886Y-63011007D02*
X217508014Y-62725292D01*
X217755450Y-62868149D02*
X218255450Y-62002124D01*
X218101543Y-62078223D01*
X217971445Y-62113082D01*
X217865157Y-62106703D01*
X219038997Y-62454505D02*
X219121475Y-62502124D01*
X219180145Y-62590982D01*
X219197574Y-62656031D01*
X219191195Y-62762319D01*
X219137196Y-62951086D01*
X219018148Y-63157283D01*
X218881671Y-63298430D01*
X218792812Y-63357099D01*
X218727764Y-63374529D01*
X218621475Y-63368149D01*
X218538997Y-63320530D01*
X218480328Y-63231672D01*
X218462898Y-63166623D01*
X218469278Y-63060335D01*
X218523276Y-62871568D01*
X218642324Y-62665372D01*
X218778802Y-62524224D01*
X218867660Y-62465555D01*
X218932709Y-62448125D01*
X219038997Y-62454505D01*
%TO.C,HG10*%
X213521265Y-60423542D02*
X214021265Y-59557517D01*
X213783170Y-59969910D02*
X214278042Y-60255624D01*
X214016137Y-60709257D02*
X214516137Y-59843231D01*
X215358353Y-60384470D02*
X215299684Y-60295612D01*
X215175966Y-60224184D01*
X215028438Y-60193994D01*
X214898341Y-60228854D01*
X214809482Y-60287523D01*
X214673005Y-60428671D01*
X214601577Y-60552389D01*
X214547578Y-60741155D01*
X214541198Y-60847443D01*
X214576058Y-60977541D01*
X214675966Y-61090209D01*
X214758445Y-61137828D01*
X214905972Y-61168017D01*
X214971021Y-61150587D01*
X215137687Y-60861912D01*
X214972730Y-60766674D01*
X215748188Y-61709257D02*
X215253316Y-61423542D01*
X215500752Y-61566399D02*
X216000752Y-60700374D01*
X215846845Y-60776473D01*
X215716747Y-60811332D01*
X215610459Y-60804953D01*
X216784299Y-61152755D02*
X216866777Y-61200374D01*
X216925447Y-61289232D01*
X216942876Y-61354281D01*
X216936497Y-61460569D01*
X216882498Y-61649336D01*
X216763450Y-61855533D01*
X216626973Y-61996680D01*
X216538114Y-62055349D01*
X216473066Y-62072779D01*
X216366777Y-62066399D01*
X216284299Y-62018780D01*
X216225630Y-61929922D01*
X216208200Y-61864873D01*
X216214580Y-61758585D01*
X216268578Y-61569818D01*
X216387626Y-61363622D01*
X216524104Y-61222474D01*
X216612962Y-61163805D01*
X216678011Y-61146375D01*
X216784299Y-61152755D01*
%TO.C,HP9*%
X207169567Y-56756388D02*
X207669567Y-55890362D01*
X207431472Y-56302755D02*
X207926344Y-56588469D01*
X207664439Y-57042102D02*
X208164439Y-56176076D01*
X208076832Y-57280197D02*
X208576832Y-56414172D01*
X208906747Y-56604648D01*
X208965416Y-56693506D01*
X208982845Y-56758555D01*
X208976466Y-56864843D01*
X208905037Y-56988561D01*
X208816179Y-57047230D01*
X208751130Y-57064660D01*
X208644842Y-57058280D01*
X208314927Y-56867804D01*
X208984097Y-57804007D02*
X209149054Y-57899245D01*
X209255342Y-57905624D01*
X209320391Y-57888195D01*
X209474298Y-57812096D01*
X209610776Y-57670948D01*
X209801252Y-57341034D01*
X209807632Y-57234745D01*
X209790202Y-57169697D01*
X209731533Y-57080838D01*
X209566575Y-56985600D01*
X209460287Y-56979220D01*
X209395239Y-56996650D01*
X209306380Y-57055319D01*
X209187333Y-57261516D01*
X209180953Y-57367804D01*
X209198383Y-57432853D01*
X209257052Y-57521711D01*
X209422009Y-57616949D01*
X209528297Y-57623329D01*
X209593346Y-57605899D01*
X209682204Y-57547230D01*
%TO.C,HG9*%
X209424264Y-58058138D02*
X209924264Y-57192112D01*
X209686169Y-57604505D02*
X210181041Y-57890219D01*
X209919136Y-58343852D02*
X210419136Y-57477826D01*
X211261352Y-58019066D02*
X211202683Y-57930207D01*
X211078965Y-57858779D01*
X210931438Y-57828590D01*
X210801340Y-57863449D01*
X210712482Y-57922118D01*
X210576004Y-58063266D01*
X210504576Y-58186984D01*
X210450577Y-58375751D01*
X210444197Y-58482039D01*
X210479057Y-58612136D01*
X210578965Y-58724804D01*
X210661444Y-58772423D01*
X210808971Y-58802612D01*
X210874020Y-58785183D01*
X211040687Y-58496508D01*
X210875729Y-58401269D01*
X211238794Y-59105757D02*
X211403751Y-59200995D01*
X211510039Y-59207374D01*
X211575088Y-59189945D01*
X211728995Y-59113846D01*
X211865473Y-58972698D01*
X212055949Y-58642784D01*
X212062329Y-58536495D01*
X212044899Y-58471447D01*
X211986230Y-58382588D01*
X211821272Y-58287350D01*
X211714984Y-58280970D01*
X211649936Y-58298400D01*
X211561077Y-58357069D01*
X211442030Y-58563266D01*
X211435650Y-58669554D01*
X211453080Y-58734603D01*
X211511749Y-58823461D01*
X211676706Y-58918699D01*
X211782994Y-58925079D01*
X211848043Y-58907649D01*
X211936901Y-58848980D01*
%TO.C,C5*%
X119482355Y-117514963D02*
X119417307Y-117497534D01*
X119304639Y-117397625D01*
X119257020Y-117315147D01*
X119226830Y-117167619D01*
X119261690Y-117037521D01*
X119320359Y-116948663D01*
X119461507Y-116812186D01*
X119585225Y-116740757D01*
X119773991Y-116686758D01*
X119880279Y-116680379D01*
X120010377Y-116715238D01*
X120123045Y-116815147D01*
X120170664Y-116897625D01*
X120200853Y-117045153D01*
X120183424Y-117110201D01*
X120718283Y-117846129D02*
X120480188Y-117433736D01*
X120043985Y-117630592D01*
X120109034Y-117648022D01*
X120197892Y-117706691D01*
X120316940Y-117912887D01*
X120323320Y-118019176D01*
X120305890Y-118084224D01*
X120247221Y-118173083D01*
X120041024Y-118292130D01*
X119934736Y-118298510D01*
X119869688Y-118281080D01*
X119780829Y-118222411D01*
X119661782Y-118016215D01*
X119655402Y-117909927D01*
X119672832Y-117844878D01*
%TO.C,D5*%
X117722568Y-122279952D02*
X117222568Y-121413926D01*
X117428764Y-121294878D01*
X117576292Y-121264689D01*
X117706389Y-121299549D01*
X117795248Y-121358218D01*
X117931725Y-121499366D01*
X118003154Y-121623083D01*
X118057152Y-121811850D01*
X118063532Y-121918138D01*
X118028673Y-122048236D01*
X117928764Y-122160904D01*
X117722568Y-122279952D01*
X118500986Y-120675831D02*
X118088593Y-120913926D01*
X118285449Y-121350129D01*
X118302879Y-121285080D01*
X118361548Y-121196222D01*
X118567744Y-121077174D01*
X118674033Y-121070794D01*
X118739081Y-121088224D01*
X118827940Y-121146893D01*
X118946987Y-121353090D01*
X118953367Y-121459378D01*
X118935937Y-121524426D01*
X118877268Y-121613285D01*
X118671072Y-121732332D01*
X118564784Y-121738712D01*
X118499735Y-121721282D01*
X121253218Y-118047599D02*
X120758346Y-118333313D01*
X121005782Y-118190456D02*
X120505782Y-117324430D01*
X120494732Y-117495767D01*
X120459872Y-117625865D01*
X120401203Y-117714723D01*
%TO.C,C4*%
X129062988Y-94267305D02*
X129015369Y-94314924D01*
X128872512Y-94362543D01*
X128777274Y-94362543D01*
X128634416Y-94314924D01*
X128539178Y-94219686D01*
X128491559Y-94124448D01*
X128443940Y-93933972D01*
X128443940Y-93791115D01*
X128491559Y-93600639D01*
X128539178Y-93505401D01*
X128634416Y-93410163D01*
X128777274Y-93362543D01*
X128872512Y-93362543D01*
X129015369Y-93410163D01*
X129062988Y-93457782D01*
X129920131Y-93695877D02*
X129920131Y-94362543D01*
X129682035Y-93314924D02*
X129443940Y-94029210D01*
X130062988Y-94029210D01*
%TO.C,D4*%
X132344036Y-98436857D02*
X131344036Y-98436857D01*
X131344036Y-98198762D01*
X131391656Y-98055904D01*
X131486894Y-97960666D01*
X131582132Y-97913047D01*
X131772608Y-97865428D01*
X131915465Y-97865428D01*
X132105941Y-97913047D01*
X132201179Y-97960666D01*
X132296417Y-98055904D01*
X132344036Y-98198762D01*
X132344036Y-98436857D01*
X131677370Y-97008285D02*
X132344036Y-97008285D01*
X131296417Y-97246381D02*
X132010703Y-97484476D01*
X132010703Y-96865428D01*
%TO.C,HP6*%
X129568143Y-61954068D02*
X130068143Y-61088042D01*
X129830048Y-61500435D02*
X130324920Y-61786149D01*
X130063015Y-62239782D02*
X130563015Y-61373756D01*
X130475408Y-62477877D02*
X130975408Y-61611852D01*
X131305323Y-61802328D01*
X131363992Y-61891186D01*
X131381421Y-61956235D01*
X131375042Y-62062523D01*
X131303613Y-62186241D01*
X131214755Y-62244910D01*
X131149706Y-62262340D01*
X131043418Y-62255960D01*
X130713503Y-62065484D01*
X132212587Y-62326137D02*
X132047630Y-62230899D01*
X131941342Y-62224520D01*
X131876293Y-62241949D01*
X131722386Y-62318048D01*
X131585909Y-62459196D01*
X131395432Y-62789110D01*
X131389053Y-62895398D01*
X131406482Y-62960447D01*
X131465151Y-63049306D01*
X131630109Y-63144544D01*
X131736397Y-63150923D01*
X131801446Y-63133494D01*
X131890304Y-63074825D01*
X132009352Y-62868628D01*
X132015731Y-62762340D01*
X131998302Y-62697291D01*
X131939632Y-62608433D01*
X131774675Y-62513195D01*
X131668387Y-62506815D01*
X131603338Y-62524245D01*
X131514480Y-62582914D01*
%TO.C,HG6*%
X127313446Y-60652318D02*
X127813446Y-59786292D01*
X127575351Y-60198685D02*
X128070223Y-60484399D01*
X127808318Y-60938032D02*
X128308318Y-60072006D01*
X129150534Y-60613246D02*
X129091865Y-60524387D01*
X128968147Y-60452959D01*
X128820620Y-60422770D01*
X128690522Y-60457629D01*
X128601664Y-60516298D01*
X128465186Y-60657446D01*
X128393758Y-60781164D01*
X128339759Y-60969931D01*
X128333379Y-61076219D01*
X128368239Y-61206316D01*
X128468147Y-61318984D01*
X128550626Y-61366603D01*
X128698153Y-61396792D01*
X128763202Y-61379363D01*
X128929869Y-61090688D01*
X128764911Y-60995449D01*
X129957890Y-61024387D02*
X129792933Y-60929149D01*
X129686645Y-60922770D01*
X129621596Y-60940199D01*
X129467689Y-61016298D01*
X129331212Y-61157446D01*
X129140735Y-61487360D01*
X129134356Y-61593648D01*
X129151785Y-61658697D01*
X129210454Y-61747556D01*
X129375412Y-61842794D01*
X129481700Y-61849173D01*
X129546749Y-61831744D01*
X129635607Y-61773075D01*
X129754655Y-61566878D01*
X129761034Y-61460590D01*
X129743605Y-61395541D01*
X129684935Y-61306683D01*
X129519978Y-61211445D01*
X129413690Y-61205065D01*
X129348641Y-61222495D01*
X129259783Y-61281164D01*
%TO.C,HP5*%
X120549355Y-56747068D02*
X121049355Y-55881042D01*
X120811260Y-56293435D02*
X121306132Y-56579149D01*
X121044227Y-57032782D02*
X121544227Y-56166756D01*
X121456620Y-57270877D02*
X121956620Y-56404852D01*
X122286535Y-56595328D01*
X122345204Y-56684186D01*
X122362633Y-56749235D01*
X122356254Y-56855523D01*
X122284825Y-56979241D01*
X122195967Y-57037910D01*
X122130918Y-57055340D01*
X122024630Y-57048960D01*
X121694715Y-56858484D01*
X123235039Y-57142947D02*
X122822646Y-56904852D01*
X122543311Y-57293435D01*
X122608360Y-57276005D01*
X122714648Y-57282385D01*
X122920844Y-57401433D01*
X122979514Y-57490291D01*
X122996943Y-57555340D01*
X122990564Y-57661628D01*
X122871516Y-57867825D01*
X122782658Y-57926494D01*
X122717609Y-57943923D01*
X122611321Y-57937544D01*
X122405124Y-57818496D01*
X122346455Y-57729638D01*
X122329025Y-57664589D01*
%TO.C,HG5*%
X122804052Y-58048818D02*
X123304052Y-57182792D01*
X123065957Y-57595185D02*
X123560829Y-57880899D01*
X123298924Y-58334532D02*
X123798924Y-57468506D01*
X124641140Y-58009746D02*
X124582471Y-57920887D01*
X124458753Y-57849459D01*
X124311226Y-57819270D01*
X124181128Y-57854129D01*
X124092270Y-57912798D01*
X123955792Y-58053946D01*
X123884364Y-58177664D01*
X123830365Y-58366431D01*
X123823985Y-58472719D01*
X123858845Y-58602816D01*
X123958753Y-58715484D01*
X124041232Y-58763103D01*
X124188759Y-58793292D01*
X124253808Y-58775863D01*
X124420475Y-58487188D01*
X124255517Y-58391949D01*
X125489736Y-58444697D02*
X125077343Y-58206602D01*
X124798008Y-58595185D01*
X124863057Y-58577755D01*
X124969345Y-58584135D01*
X125175541Y-58703183D01*
X125234211Y-58792041D01*
X125251640Y-58857090D01*
X125245261Y-58963378D01*
X125126213Y-59169575D01*
X125037355Y-59228244D01*
X124972306Y-59245673D01*
X124866018Y-59239294D01*
X124659821Y-59120246D01*
X124601152Y-59031388D01*
X124583722Y-58966339D01*
%TO.C,C3*%
X113732377Y-74570908D02*
X113749807Y-74635957D01*
X113719617Y-74783485D01*
X113671998Y-74865963D01*
X113559331Y-74965872D01*
X113429233Y-75000731D01*
X113322945Y-74994352D01*
X113134178Y-74940353D01*
X113010460Y-74868924D01*
X112869312Y-74732447D01*
X112810643Y-74643588D01*
X112775784Y-74513491D01*
X112805973Y-74365963D01*
X112853592Y-74283485D01*
X112966260Y-74183576D01*
X113031309Y-74166147D01*
X113115497Y-73829852D02*
X113425021Y-73293741D01*
X113588268Y-73772893D01*
X113659697Y-73649175D01*
X113748555Y-73590506D01*
X113813604Y-73573076D01*
X113919892Y-73579456D01*
X114126089Y-73698503D01*
X114184758Y-73787362D01*
X114202188Y-73852411D01*
X114195808Y-73958699D01*
X114052951Y-74206134D01*
X113964092Y-74264804D01*
X113899044Y-74282233D01*
%TO.C,D3*%
X117292800Y-73915536D02*
X117792800Y-73049511D01*
X117998996Y-73168558D01*
X118098905Y-73281226D01*
X118133764Y-73411324D01*
X118127385Y-73517612D01*
X118073386Y-73706379D01*
X118001957Y-73830097D01*
X117865480Y-73971245D01*
X117776621Y-74029914D01*
X117646524Y-74064773D01*
X117498996Y-74034584D01*
X117292800Y-73915536D01*
X118576347Y-73501892D02*
X119112458Y-73811416D01*
X118633306Y-73974663D01*
X118757024Y-74046092D01*
X118815693Y-74134950D01*
X118833123Y-74199999D01*
X118826743Y-74306287D01*
X118707696Y-74512484D01*
X118618837Y-74571153D01*
X118553788Y-74588583D01*
X118447500Y-74582203D01*
X118200065Y-74439346D01*
X118141395Y-74350487D01*
X118123966Y-74285439D01*
%TO.C,HP4*%
X86007208Y-57996272D02*
X85507208Y-57130247D01*
X85745304Y-57542640D02*
X86240175Y-57256926D01*
X86502080Y-57710558D02*
X86002080Y-56844533D01*
X86914473Y-57472463D02*
X86414473Y-56606437D01*
X86744388Y-56415961D01*
X86850676Y-56409581D01*
X86915725Y-56427011D01*
X87004583Y-56485680D01*
X87076011Y-56609398D01*
X87082391Y-56715686D01*
X87064961Y-56780735D01*
X87006292Y-56869594D01*
X86676378Y-57060070D01*
X87818319Y-56180827D02*
X88151652Y-56758177D01*
X87421646Y-55969960D02*
X87572593Y-56707597D01*
X88108704Y-56398073D01*
%TO.C,HG4*%
X83752511Y-59298022D02*
X83252511Y-58431997D01*
X83490607Y-58844390D02*
X83985478Y-58558676D01*
X84247383Y-59012308D02*
X83747383Y-58146283D01*
X84637218Y-57687522D02*
X84530930Y-57693902D01*
X84407212Y-57765330D01*
X84307304Y-57877998D01*
X84272444Y-58008096D01*
X84278824Y-58114384D01*
X84332823Y-58303151D01*
X84404251Y-58426869D01*
X84540728Y-58568016D01*
X84629587Y-58626685D01*
X84759684Y-58661545D01*
X84907212Y-58631356D01*
X84989691Y-58583737D01*
X85089599Y-58471069D01*
X85107029Y-58406020D01*
X84940362Y-58117345D01*
X84775405Y-58212583D01*
X85563622Y-57482577D02*
X85896955Y-58059927D01*
X85166949Y-57271710D02*
X85317896Y-58009347D01*
X85854007Y-57699823D01*
%TO.C,HP3*%
X76988420Y-63203272D02*
X76488420Y-62337247D01*
X76726516Y-62749640D02*
X77221387Y-62463926D01*
X77483292Y-62917558D02*
X76983292Y-62051533D01*
X77895685Y-62679463D02*
X77395685Y-61813437D01*
X77725600Y-61622961D01*
X77831888Y-61616581D01*
X77896937Y-61634011D01*
X77985795Y-61692680D01*
X78057223Y-61816398D01*
X78063603Y-61922686D01*
X78046173Y-61987735D01*
X77987504Y-62076594D01*
X77657590Y-62267070D01*
X78179232Y-61361056D02*
X78715343Y-61051533D01*
X78617144Y-61548114D01*
X78740862Y-61476685D01*
X78847150Y-61470305D01*
X78912199Y-61487735D01*
X79001057Y-61546404D01*
X79120105Y-61752601D01*
X79126485Y-61858889D01*
X79109055Y-61923938D01*
X79050386Y-62012796D01*
X78802950Y-62155653D01*
X78696662Y-62162033D01*
X78631613Y-62144603D01*
%TO.C,HG3*%
X79243117Y-61901522D02*
X78743117Y-61035497D01*
X78981213Y-61447890D02*
X79476084Y-61162176D01*
X79737989Y-61615808D02*
X79237989Y-60749783D01*
X80127824Y-60291022D02*
X80021536Y-60297402D01*
X79897818Y-60368830D01*
X79797910Y-60481498D01*
X79763050Y-60611596D01*
X79769430Y-60717884D01*
X79823429Y-60906651D01*
X79894857Y-61030369D01*
X80031334Y-61171516D01*
X80120193Y-61230185D01*
X80250290Y-61265045D01*
X80397818Y-61234856D01*
X80480297Y-61187237D01*
X80580205Y-61074569D01*
X80597635Y-61009520D01*
X80430968Y-60720845D01*
X80266011Y-60816083D01*
X80433929Y-60059306D02*
X80970040Y-59749783D01*
X80871841Y-60246364D01*
X80995559Y-60174935D01*
X81101847Y-60168555D01*
X81166896Y-60185985D01*
X81255754Y-60244654D01*
X81374802Y-60450851D01*
X81381182Y-60557139D01*
X81363752Y-60622188D01*
X81305083Y-60711046D01*
X81057647Y-60853903D01*
X80951359Y-60860283D01*
X80886310Y-60842853D01*
%TO.C,C2*%
X88513887Y-78046533D02*
X88448839Y-78029104D01*
X88336171Y-77929195D01*
X88288552Y-77846717D01*
X88258362Y-77699189D01*
X88293222Y-77569091D01*
X88351891Y-77480233D01*
X88493039Y-77343756D01*
X88616757Y-77272327D01*
X88805523Y-77218328D01*
X88911811Y-77211949D01*
X89041909Y-77246808D01*
X89154577Y-77346717D01*
X89202196Y-77429195D01*
X89232385Y-77576723D01*
X89214956Y-77641771D01*
X89405432Y-77971686D02*
X89470481Y-77989116D01*
X89559339Y-78047785D01*
X89678387Y-78253981D01*
X89684766Y-78360269D01*
X89667337Y-78425318D01*
X89608667Y-78514177D01*
X89526189Y-78561796D01*
X89378661Y-78591985D01*
X88598075Y-78382828D01*
X88907599Y-78918939D01*
%TO.C,HP2*%
X60860180Y-93768704D02*
X59860180Y-93768704D01*
X60336371Y-93768704D02*
X60336371Y-93197276D01*
X60860180Y-93197276D02*
X59860180Y-93197276D01*
X60860180Y-92721085D02*
X59860180Y-92721085D01*
X59860180Y-92340133D01*
X59907800Y-92244895D01*
X59955419Y-92197276D01*
X60050657Y-92149657D01*
X60193514Y-92149657D01*
X60288752Y-92197276D01*
X60336371Y-92244895D01*
X60383990Y-92340133D01*
X60383990Y-92721085D01*
X59955419Y-91768704D02*
X59907800Y-91721085D01*
X59860180Y-91625847D01*
X59860180Y-91387752D01*
X59907800Y-91292514D01*
X59955419Y-91244895D01*
X60050657Y-91197276D01*
X60145895Y-91197276D01*
X60288752Y-91244895D01*
X60860180Y-91816323D01*
X60860180Y-91197276D01*
%TO.C,HG2*%
X60860180Y-96372204D02*
X59860180Y-96372204D01*
X60336371Y-96372204D02*
X60336371Y-95800776D01*
X60860180Y-95800776D02*
X59860180Y-95800776D01*
X59907800Y-94800776D02*
X59860180Y-94896014D01*
X59860180Y-95038871D01*
X59907800Y-95181728D01*
X60003038Y-95276966D01*
X60098276Y-95324585D01*
X60288752Y-95372204D01*
X60431609Y-95372204D01*
X60622085Y-95324585D01*
X60717323Y-95276966D01*
X60812561Y-95181728D01*
X60860180Y-95038871D01*
X60860180Y-94943633D01*
X60812561Y-94800776D01*
X60764942Y-94753157D01*
X60431609Y-94753157D01*
X60431609Y-94943633D01*
X59955419Y-94372204D02*
X59907800Y-94324585D01*
X59860180Y-94229347D01*
X59860180Y-93991252D01*
X59907800Y-93896014D01*
X59955419Y-93848395D01*
X60050657Y-93800776D01*
X60145895Y-93800776D01*
X60288752Y-93848395D01*
X60860180Y-94419823D01*
X60860180Y-93800776D01*
%TO.C,HG1*%
X60860180Y-101579204D02*
X59860180Y-101579204D01*
X60336371Y-101579204D02*
X60336371Y-101007776D01*
X60860180Y-101007776D02*
X59860180Y-101007776D01*
X59907800Y-100007776D02*
X59860180Y-100103014D01*
X59860180Y-100245871D01*
X59907800Y-100388728D01*
X60003038Y-100483966D01*
X60098276Y-100531585D01*
X60288752Y-100579204D01*
X60431609Y-100579204D01*
X60622085Y-100531585D01*
X60717323Y-100483966D01*
X60812561Y-100388728D01*
X60860180Y-100245871D01*
X60860180Y-100150633D01*
X60812561Y-100007776D01*
X60764942Y-99960157D01*
X60431609Y-99960157D01*
X60431609Y-100150633D01*
X60860180Y-99007776D02*
X60860180Y-99579204D01*
X60860180Y-99293490D02*
X59860180Y-99293490D01*
X60003038Y-99388728D01*
X60098276Y-99483966D01*
X60145895Y-99579204D01*
%TO.C,HS1*%
X60860180Y-98951895D02*
X59860180Y-98951895D01*
X60336371Y-98951895D02*
X60336371Y-98380466D01*
X60860180Y-98380466D02*
X59860180Y-98380466D01*
X60812561Y-97951895D02*
X60860180Y-97809038D01*
X60860180Y-97570942D01*
X60812561Y-97475704D01*
X60764942Y-97428085D01*
X60669704Y-97380466D01*
X60574466Y-97380466D01*
X60479228Y-97428085D01*
X60431609Y-97475704D01*
X60383990Y-97570942D01*
X60336371Y-97761419D01*
X60288752Y-97856657D01*
X60241133Y-97904276D01*
X60145895Y-97951895D01*
X60050657Y-97951895D01*
X59955419Y-97904276D01*
X59907800Y-97856657D01*
X59860180Y-97761419D01*
X59860180Y-97523323D01*
X59907800Y-97380466D01*
X60860180Y-96428085D02*
X60860180Y-96999514D01*
X60860180Y-96713800D02*
X59860180Y-96713800D01*
X60003038Y-96809038D01*
X60098276Y-96904276D01*
X60145895Y-96999514D01*
%TO.C,HP1*%
X60860180Y-104182704D02*
X59860180Y-104182704D01*
X60336371Y-104182704D02*
X60336371Y-103611276D01*
X60860180Y-103611276D02*
X59860180Y-103611276D01*
X60860180Y-103135085D02*
X59860180Y-103135085D01*
X59860180Y-102754133D01*
X59907800Y-102658895D01*
X59955419Y-102611276D01*
X60050657Y-102563657D01*
X60193514Y-102563657D01*
X60288752Y-102611276D01*
X60336371Y-102658895D01*
X60383990Y-102754133D01*
X60383990Y-103135085D01*
X60860180Y-101611276D02*
X60860180Y-102182704D01*
X60860180Y-101896990D02*
X59860180Y-101896990D01*
X60003038Y-101992228D01*
X60098276Y-102087466D01*
X60145895Y-102182704D01*
%TO.C,JP2*%
X65409866Y-94070780D02*
X65409866Y-94785066D01*
X65362247Y-94927923D01*
X65267009Y-95023161D01*
X65124152Y-95070780D01*
X65028914Y-95070780D01*
X65886057Y-95070780D02*
X65886057Y-94070780D01*
X66267009Y-94070780D01*
X66362247Y-94118400D01*
X66409866Y-94166019D01*
X66457485Y-94261257D01*
X66457485Y-94404114D01*
X66409866Y-94499352D01*
X66362247Y-94546971D01*
X66267009Y-94594590D01*
X65886057Y-94594590D01*
X66838438Y-94166019D02*
X66886057Y-94118400D01*
X66981295Y-94070780D01*
X67219390Y-94070780D01*
X67314628Y-94118400D01*
X67362247Y-94166019D01*
X67409866Y-94261257D01*
X67409866Y-94356495D01*
X67362247Y-94499352D01*
X66790819Y-95070780D01*
X67409866Y-95070780D01*
%TO.C,JP1*%
X65409866Y-96610780D02*
X65409866Y-97325066D01*
X65362247Y-97467923D01*
X65267009Y-97563161D01*
X65124152Y-97610780D01*
X65028914Y-97610780D01*
X65886057Y-97610780D02*
X65886057Y-96610780D01*
X66267009Y-96610780D01*
X66362247Y-96658400D01*
X66409866Y-96706019D01*
X66457485Y-96801257D01*
X66457485Y-96944114D01*
X66409866Y-97039352D01*
X66362247Y-97086971D01*
X66267009Y-97134590D01*
X65886057Y-97134590D01*
X67409866Y-97610780D02*
X66838438Y-97610780D01*
X67124152Y-97610780D02*
X67124152Y-96610780D01*
X67028914Y-96753638D01*
X66933676Y-96848876D01*
X66838438Y-96896495D01*
%TD*%
M02*
