%TF.GenerationSoftware,KiCad,Pcbnew,(5.1.9)-1*%
%TF.CreationDate,2021-06-09T00:59:49-05:00*%
%TF.ProjectId,neopixel_hexigons,6e656f70-6978-4656-9c5f-68657869676f,rev?*%
%TF.SameCoordinates,Original*%
%TF.FileFunction,Soldermask,Top*%
%TF.FilePolarity,Negative*%
%FSLAX46Y46*%
G04 Gerber Fmt 4.6, Leading zero omitted, Abs format (unit mm)*
G04 Created by KiCad (PCBNEW (5.1.9)-1) date 2021-06-09 00:59:49*
%MOMM*%
%LPD*%
G01*
G04 APERTURE LIST*
%ADD10C,0.100000*%
%ADD11R,1.000000X1.500000*%
G04 APERTURE END LIST*
D10*
%TO.C,JP20*%
G36*
X83842859Y-132279226D02*
G01*
X82543821Y-131529226D01*
X83043821Y-130663200D01*
X84342859Y-131413200D01*
X83842859Y-132279226D01*
G37*
G36*
X84492859Y-131153392D02*
G01*
X83193821Y-130403392D01*
X83693821Y-129537366D01*
X84992859Y-130287366D01*
X84492859Y-131153392D01*
G37*
%TD*%
%TO.C,HP19*%
G36*
G01*
X88872207Y-136622138D02*
X88322207Y-137574766D01*
G75*
G02*
X87980701Y-137666272I-216506J125000D01*
G01*
X87028073Y-137116272D01*
G75*
G02*
X86936567Y-136774766I125000J216506D01*
G01*
X87486567Y-135822138D01*
G75*
G02*
X87828073Y-135730632I216506J-125000D01*
G01*
X88780701Y-136280632D01*
G75*
G02*
X88872207Y-136622138I-125000J-216506D01*
G01*
G37*
%TD*%
%TO.C,JP18*%
G36*
X123385528Y-131633618D02*
G01*
X122086490Y-132383618D01*
X121586490Y-131517592D01*
X122885528Y-130767592D01*
X123385528Y-131633618D01*
G37*
G36*
X124035528Y-132759452D02*
G01*
X122736490Y-133509452D01*
X122236490Y-132643426D01*
X123535528Y-131893426D01*
X124035528Y-132759452D01*
G37*
%TD*%
%TO.C,HG19*%
G36*
G01*
X86617510Y-135320388D02*
X86067510Y-136273016D01*
G75*
G02*
X85726004Y-136364522I-216506J125000D01*
G01*
X84773376Y-135814522D01*
G75*
G02*
X84681870Y-135473016I125000J216506D01*
G01*
X85231870Y-134520388D01*
G75*
G02*
X85573376Y-134428882I216506J-125000D01*
G01*
X86526004Y-134978882D01*
G75*
G02*
X86617510Y-135320388I-125000J-216506D01*
G01*
G37*
%TD*%
%TO.C,HG20*%
G36*
G01*
X82108116Y-132716889D02*
X81558116Y-133669517D01*
G75*
G02*
X81216610Y-133761023I-216506J125000D01*
G01*
X80263982Y-133211023D01*
G75*
G02*
X80172476Y-132869517I125000J216506D01*
G01*
X80722476Y-131916889D01*
G75*
G02*
X81063982Y-131825383I216506J-125000D01*
G01*
X82016610Y-132375383D01*
G75*
G02*
X82108116Y-132716889I-125000J-216506D01*
G01*
G37*
%TD*%
%TO.C,HP20*%
G36*
G01*
X79853418Y-131415139D02*
X79303418Y-132367767D01*
G75*
G02*
X78961912Y-132459273I-216506J125000D01*
G01*
X78009284Y-131909273D01*
G75*
G02*
X77917778Y-131567767I125000J216506D01*
G01*
X78467778Y-130615139D01*
G75*
G02*
X78809284Y-130523633I216506J-125000D01*
G01*
X79761912Y-131073633D01*
G75*
G02*
X79853418Y-131415139I-125000J-216506D01*
G01*
G37*
%TD*%
%TO.C,HG17*%
G36*
G01*
X128056578Y-131877117D02*
X128606578Y-132829745D01*
G75*
G02*
X128515072Y-133171251I-216506J-125000D01*
G01*
X127562444Y-133721251D01*
G75*
G02*
X127220938Y-133629745I-125000J216506D01*
G01*
X126670938Y-132677117D01*
G75*
G02*
X126762444Y-132335611I216506J125000D01*
G01*
X127715072Y-131785611D01*
G75*
G02*
X128056578Y-131877117I125000J-216506D01*
G01*
G37*
%TD*%
%TO.C,HG18*%
G36*
G01*
X123547184Y-134480618D02*
X124097184Y-135433246D01*
G75*
G02*
X124005678Y-135774752I-216506J-125000D01*
G01*
X123053050Y-136324752D01*
G75*
G02*
X122711544Y-136233246I-125000J216506D01*
G01*
X122161544Y-135280618D01*
G75*
G02*
X122253050Y-134939112I216506J125000D01*
G01*
X123205678Y-134389112D01*
G75*
G02*
X123547184Y-134480618I125000J-216506D01*
G01*
G37*
%TD*%
%TO.C,HS10*%
G36*
G01*
X84362813Y-134018639D02*
X83812813Y-134971267D01*
G75*
G02*
X83471307Y-135062773I-216506J125000D01*
G01*
X82518679Y-134512773D01*
G75*
G02*
X82427173Y-134171267I125000J216506D01*
G01*
X82977173Y-133218639D01*
G75*
G02*
X83318679Y-133127133I216506J-125000D01*
G01*
X84271307Y-133677133D01*
G75*
G02*
X84362813Y-134018639I-125000J-216506D01*
G01*
G37*
%TD*%
%TO.C,HP17*%
G36*
G01*
X130311275Y-130575366D02*
X130861275Y-131527994D01*
G75*
G02*
X130769769Y-131869500I-216506J-125000D01*
G01*
X129817141Y-132419500D01*
G75*
G02*
X129475635Y-132327994I-125000J216506D01*
G01*
X128925635Y-131375366D01*
G75*
G02*
X129017141Y-131033860I216506J125000D01*
G01*
X129969769Y-130483860D01*
G75*
G02*
X130311275Y-130575366I125000J-216506D01*
G01*
G37*
%TD*%
%TO.C,HP18*%
G36*
G01*
X121292487Y-135782368D02*
X121842487Y-136734996D01*
G75*
G02*
X121750981Y-137076502I-216506J-125000D01*
G01*
X120798353Y-137626502D01*
G75*
G02*
X120456847Y-137534996I-125000J216506D01*
G01*
X119906847Y-136582368D01*
G75*
G02*
X119998353Y-136240862I216506J125000D01*
G01*
X120950981Y-135690862D01*
G75*
G02*
X121292487Y-135782368I125000J-216506D01*
G01*
G37*
%TD*%
%TO.C,JP19*%
G36*
X86042563Y-133549225D02*
G01*
X84743525Y-132799225D01*
X85243525Y-131933199D01*
X86542563Y-132683199D01*
X86042563Y-133549225D01*
G37*
G36*
X86692563Y-132423391D02*
G01*
X85393525Y-131673391D01*
X85893525Y-130807365D01*
X87192563Y-131557365D01*
X86692563Y-132423391D01*
G37*
%TD*%
%TO.C,HS9*%
G36*
G01*
X125801881Y-133178868D02*
X126351881Y-134131496D01*
G75*
G02*
X126260375Y-134473002I-216506J-125000D01*
G01*
X125307747Y-135023002D01*
G75*
G02*
X124966241Y-134931496I-125000J216506D01*
G01*
X124416241Y-133978868D01*
G75*
G02*
X124507747Y-133637362I216506J125000D01*
G01*
X125460375Y-133087362D01*
G75*
G02*
X125801881Y-133178868I125000J-216506D01*
G01*
G37*
%TD*%
%TO.C,JP17*%
G36*
X125585233Y-130363620D02*
G01*
X124286195Y-131113620D01*
X123786195Y-130247594D01*
X125085233Y-129497594D01*
X125585233Y-130363620D01*
G37*
G36*
X126235233Y-131489454D02*
G01*
X124936195Y-132239454D01*
X124436195Y-131373428D01*
X125735233Y-130623428D01*
X126235233Y-131489454D01*
G37*
%TD*%
%TO.C,JP16*%
G36*
X171087633Y-131128236D02*
G01*
X169788595Y-130378236D01*
X170288595Y-129512210D01*
X171587633Y-130262210D01*
X171087633Y-131128236D01*
G37*
G36*
X170437633Y-132254070D02*
G01*
X169138595Y-131504070D01*
X169638595Y-130638044D01*
X170937633Y-131388044D01*
X170437633Y-132254070D01*
G37*
%TD*%
%TO.C,HG15*%
G36*
G01*
X173212284Y-135295233D02*
X172662284Y-136247861D01*
G75*
G02*
X172320778Y-136339367I-216506J125000D01*
G01*
X171368150Y-135789367D01*
G75*
G02*
X171276644Y-135447861I125000J216506D01*
G01*
X171826644Y-134495233D01*
G75*
G02*
X172168150Y-134403727I216506J-125000D01*
G01*
X173120778Y-134953727D01*
G75*
G02*
X173212284Y-135295233I-125000J-216506D01*
G01*
G37*
%TD*%
%TO.C,HG16*%
G36*
G01*
X168702889Y-132691733D02*
X168152889Y-133644361D01*
G75*
G02*
X167811383Y-133735867I-216506J125000D01*
G01*
X166858755Y-133185867D01*
G75*
G02*
X166767249Y-132844361I125000J216506D01*
G01*
X167317249Y-131891733D01*
G75*
G02*
X167658755Y-131800227I216506J-125000D01*
G01*
X168611383Y-132350227D01*
G75*
G02*
X168702889Y-132691733I-125000J-216506D01*
G01*
G37*
%TD*%
%TO.C,HP15*%
G36*
G01*
X175466980Y-136596982D02*
X174916980Y-137549610D01*
G75*
G02*
X174575474Y-137641116I-216506J125000D01*
G01*
X173622846Y-137091116D01*
G75*
G02*
X173531340Y-136749610I125000J216506D01*
G01*
X174081340Y-135796982D01*
G75*
G02*
X174422846Y-135705476I216506J-125000D01*
G01*
X175375474Y-136255476D01*
G75*
G02*
X175466980Y-136596982I-125000J-216506D01*
G01*
G37*
%TD*%
%TO.C,HP16*%
G36*
G01*
X166448192Y-131389983D02*
X165898192Y-132342611D01*
G75*
G02*
X165556686Y-132434117I-216506J125000D01*
G01*
X164604058Y-131884117D01*
G75*
G02*
X164512552Y-131542611I125000J216506D01*
G01*
X165062552Y-130589983D01*
G75*
G02*
X165404058Y-130498477I216506J-125000D01*
G01*
X166356686Y-131048477D01*
G75*
G02*
X166448192Y-131389983I-125000J-216506D01*
G01*
G37*
%TD*%
%TO.C,HS8*%
G36*
G01*
X170957586Y-133993483D02*
X170407586Y-134946111D01*
G75*
G02*
X170066080Y-135037617I-216506J125000D01*
G01*
X169113452Y-134487617D01*
G75*
G02*
X169021946Y-134146111I125000J216506D01*
G01*
X169571946Y-133193483D01*
G75*
G02*
X169913452Y-133101977I216506J-125000D01*
G01*
X170866080Y-133651977D01*
G75*
G02*
X170957586Y-133993483I-125000J-216506D01*
G01*
G37*
%TD*%
%TO.C,JP15*%
G36*
X173287336Y-132398236D02*
G01*
X171988298Y-131648236D01*
X172488298Y-130782210D01*
X173787336Y-131532210D01*
X173287336Y-132398236D01*
G37*
G36*
X172637336Y-133524070D02*
G01*
X171338298Y-132774070D01*
X171838298Y-131908044D01*
X173137336Y-132658044D01*
X172637336Y-133524070D01*
G37*
%TD*%
%TO.C,HG13*%
G36*
G01*
X214661743Y-131879056D02*
X215211743Y-132831684D01*
G75*
G02*
X215120237Y-133173190I-216506J-125000D01*
G01*
X214167609Y-133723190D01*
G75*
G02*
X213826103Y-133631684I-125000J216506D01*
G01*
X213276103Y-132679056D01*
G75*
G02*
X213367609Y-132337550I216506J125000D01*
G01*
X214320237Y-131787550D01*
G75*
G02*
X214661743Y-131879056I125000J-216506D01*
G01*
G37*
%TD*%
%TO.C,HP13*%
G36*
G01*
X216916440Y-130577306D02*
X217466440Y-131529934D01*
G75*
G02*
X217374934Y-131871440I-216506J-125000D01*
G01*
X216422306Y-132421440D01*
G75*
G02*
X216080800Y-132329934I-125000J216506D01*
G01*
X215530800Y-131377306D01*
G75*
G02*
X215622306Y-131035800I216506J125000D01*
G01*
X216574934Y-130485800D01*
G75*
G02*
X216916440Y-130577306I125000J-216506D01*
G01*
G37*
%TD*%
%TO.C,HG14*%
G36*
G01*
X210152350Y-134482556D02*
X210702350Y-135435184D01*
G75*
G02*
X210610844Y-135776690I-216506J-125000D01*
G01*
X209658216Y-136326690D01*
G75*
G02*
X209316710Y-136235184I-125000J216506D01*
G01*
X208766710Y-135282556D01*
G75*
G02*
X208858216Y-134941050I216506J125000D01*
G01*
X209810844Y-134391050D01*
G75*
G02*
X210152350Y-134482556I125000J-216506D01*
G01*
G37*
%TD*%
%TO.C,HP14*%
G36*
G01*
X207897652Y-135784307D02*
X208447652Y-136736935D01*
G75*
G02*
X208356146Y-137078441I-216506J-125000D01*
G01*
X207403518Y-137628441D01*
G75*
G02*
X207062012Y-137536935I-125000J216506D01*
G01*
X206512012Y-136584307D01*
G75*
G02*
X206603518Y-136242801I216506J125000D01*
G01*
X207556146Y-135692801D01*
G75*
G02*
X207897652Y-135784307I125000J-216506D01*
G01*
G37*
%TD*%
%TO.C,JP14*%
G36*
X210640694Y-132761394D02*
G01*
X209341656Y-133511394D01*
X208841656Y-132645368D01*
X210140694Y-131895368D01*
X210640694Y-132761394D01*
G37*
G36*
X209990694Y-131635560D02*
G01*
X208691656Y-132385560D01*
X208191656Y-131519534D01*
X209490694Y-130769534D01*
X209990694Y-131635560D01*
G37*
%TD*%
%TO.C,HS7*%
G36*
G01*
X212407047Y-133180807D02*
X212957047Y-134133435D01*
G75*
G02*
X212865541Y-134474941I-216506J-125000D01*
G01*
X211912913Y-135024941D01*
G75*
G02*
X211571407Y-134933435I-125000J216506D01*
G01*
X211021407Y-133980807D01*
G75*
G02*
X211112913Y-133639301I216506J125000D01*
G01*
X212065541Y-133089301D01*
G75*
G02*
X212407047Y-133180807I125000J-216506D01*
G01*
G37*
%TD*%
%TO.C,JP13*%
G36*
X212840397Y-131491394D02*
G01*
X211541359Y-132241394D01*
X211041359Y-131375368D01*
X212340397Y-130625368D01*
X212840397Y-131491394D01*
G37*
G36*
X212190397Y-130365560D02*
G01*
X210891359Y-131115560D01*
X210391359Y-130249534D01*
X211690397Y-129499534D01*
X212190397Y-130365560D01*
G37*
%TD*%
%TO.C,C7*%
G36*
G01*
X166504500Y-102916800D02*
X166504500Y-102416800D01*
G75*
G02*
X166729500Y-102191800I225000J0D01*
G01*
X167179500Y-102191800D01*
G75*
G02*
X167404500Y-102416800I0J-225000D01*
G01*
X167404500Y-102916800D01*
G75*
G02*
X167179500Y-103141800I-225000J0D01*
G01*
X166729500Y-103141800D01*
G75*
G02*
X166504500Y-102916800I0J225000D01*
G01*
G37*
G36*
G01*
X164954500Y-102916800D02*
X164954500Y-102416800D01*
G75*
G02*
X165179500Y-102191800I225000J0D01*
G01*
X165629500Y-102191800D01*
G75*
G02*
X165854500Y-102416800I0J-225000D01*
G01*
X165854500Y-102916800D01*
G75*
G02*
X165629500Y-103141800I-225000J0D01*
G01*
X165179500Y-103141800D01*
G75*
G02*
X164954500Y-102916800I0J225000D01*
G01*
G37*
%TD*%
%TO.C,HS4*%
G36*
G01*
X169558981Y-62205657D02*
X169008981Y-61253029D01*
G75*
G02*
X169100487Y-60911523I216506J125000D01*
G01*
X170053115Y-60361523D01*
G75*
G02*
X170394621Y-60453029I125000J-216506D01*
G01*
X170944621Y-61405657D01*
G75*
G02*
X170853115Y-61747163I-216506J-125000D01*
G01*
X169900487Y-62297163D01*
G75*
G02*
X169558981Y-62205657I-125000J216506D01*
G01*
G37*
%TD*%
%TO.C,JP8*%
G36*
X171325334Y-62625070D02*
G01*
X172624372Y-61875070D01*
X173124372Y-62741096D01*
X171825334Y-63491096D01*
X171325334Y-62625070D01*
G37*
G36*
X171975334Y-63750904D02*
G01*
X173274372Y-63000904D01*
X173774372Y-63866930D01*
X172475334Y-64616930D01*
X171975334Y-63750904D01*
G37*
%TD*%
%TO.C,JP7*%
G36*
X169125629Y-63895070D02*
G01*
X170424667Y-63145070D01*
X170924667Y-64011096D01*
X169625629Y-64761096D01*
X169125629Y-63895070D01*
G37*
G36*
X169775629Y-65020904D02*
G01*
X171074667Y-64270904D01*
X171574667Y-65136930D01*
X170275629Y-65886930D01*
X169775629Y-65020904D01*
G37*
%TD*%
%TO.C,HP7*%
G36*
G01*
X165049586Y-64809157D02*
X164499586Y-63856529D01*
G75*
G02*
X164591092Y-63515023I216506J125000D01*
G01*
X165543720Y-62965023D01*
G75*
G02*
X165885226Y-63056529I125000J-216506D01*
G01*
X166435226Y-64009157D01*
G75*
G02*
X166343720Y-64350663I-216506J-125000D01*
G01*
X165391092Y-64900663D01*
G75*
G02*
X165049586Y-64809157I-125000J216506D01*
G01*
G37*
%TD*%
%TO.C,HG7*%
G36*
G01*
X167304283Y-63507407D02*
X166754283Y-62554779D01*
G75*
G02*
X166845789Y-62213273I216506J125000D01*
G01*
X167798417Y-61663273D01*
G75*
G02*
X168139923Y-61754779I125000J-216506D01*
G01*
X168689923Y-62707407D01*
G75*
G02*
X168598417Y-63048913I-216506J-125000D01*
G01*
X167645789Y-63598913D01*
G75*
G02*
X167304283Y-63507407I-125000J216506D01*
G01*
G37*
%TD*%
%TO.C,HP8*%
G36*
G01*
X174068375Y-59602157D02*
X173518375Y-58649529D01*
G75*
G02*
X173609881Y-58308023I216506J125000D01*
G01*
X174562509Y-57758023D01*
G75*
G02*
X174904015Y-57849529I125000J-216506D01*
G01*
X175454015Y-58802157D01*
G75*
G02*
X175362509Y-59143663I-216506J-125000D01*
G01*
X174409881Y-59693663D01*
G75*
G02*
X174068375Y-59602157I-125000J216506D01*
G01*
G37*
%TD*%
%TO.C,HG8*%
G36*
G01*
X171813678Y-60903907D02*
X171263678Y-59951279D01*
G75*
G02*
X171355184Y-59609773I216506J125000D01*
G01*
X172307812Y-59059773D01*
G75*
G02*
X172649318Y-59151279I125000J-216506D01*
G01*
X173199318Y-60103907D01*
G75*
G02*
X173107812Y-60445413I-216506J-125000D01*
G01*
X172155184Y-60995413D01*
G75*
G02*
X171813678Y-60903907I-125000J216506D01*
G01*
G37*
%TD*%
%TO.C,D12*%
G36*
X181219751Y-121044390D02*
G01*
X180719751Y-121910416D01*
X179420713Y-121160416D01*
X179920713Y-120294390D01*
X181219751Y-121044390D01*
G37*
G36*
X182819751Y-118273108D02*
G01*
X182319751Y-119139134D01*
X181020713Y-118389134D01*
X181520713Y-117523108D01*
X182819751Y-118273108D01*
G37*
G36*
X176976227Y-118594390D02*
G01*
X176476227Y-119460416D01*
X175177189Y-118710416D01*
X175677189Y-117844390D01*
X176976227Y-118594390D01*
G37*
G36*
X178576227Y-115823108D02*
G01*
X178076227Y-116689134D01*
X176777189Y-115939134D01*
X177277189Y-115073108D01*
X178576227Y-115823108D01*
G37*
%TD*%
%TO.C,D11*%
G36*
X206319551Y-117833518D02*
G01*
X206819551Y-118699544D01*
X205520513Y-119449544D01*
X205020513Y-118583518D01*
X206319551Y-117833518D01*
G37*
G36*
X204719551Y-115062236D02*
G01*
X205219551Y-115928262D01*
X203920513Y-116678262D01*
X203420513Y-115812236D01*
X204719551Y-115062236D01*
G37*
G36*
X202076027Y-120283518D02*
G01*
X202576027Y-121149544D01*
X201276989Y-121899544D01*
X200776989Y-121033518D01*
X202076027Y-120283518D01*
G37*
G36*
X200476027Y-117512236D02*
G01*
X200976027Y-118378262D01*
X199676989Y-119128262D01*
X199176989Y-118262236D01*
X200476027Y-117512236D01*
G37*
%TD*%
D11*
%TO.C,D10*%
X216597511Y-95245841D03*
X213397511Y-95245841D03*
X216597511Y-100145841D03*
X213397511Y-100145841D03*
%TD*%
D10*
%TO.C,D9*%
G36*
X200762411Y-74359624D02*
G01*
X201262411Y-73493598D01*
X202561449Y-74243598D01*
X202061449Y-75109624D01*
X200762411Y-74359624D01*
G37*
G36*
X199162411Y-77130906D02*
G01*
X199662411Y-76264880D01*
X200961449Y-77014880D01*
X200461449Y-77880906D01*
X199162411Y-77130906D01*
G37*
G36*
X205005935Y-76809624D02*
G01*
X205505935Y-75943598D01*
X206804973Y-76693598D01*
X206304973Y-77559624D01*
X205005935Y-76809624D01*
G37*
G36*
X203405935Y-79580906D02*
G01*
X203905935Y-78714880D01*
X205204973Y-79464880D01*
X204704973Y-80330906D01*
X203405935Y-79580906D01*
G37*
%TD*%
%TO.C,D8*%
G36*
X175674426Y-77550562D02*
G01*
X175174426Y-76684536D01*
X176473464Y-75934536D01*
X176973464Y-76800562D01*
X175674426Y-77550562D01*
G37*
G36*
X177274426Y-80321844D02*
G01*
X176774426Y-79455818D01*
X178073464Y-78705818D01*
X178573464Y-79571844D01*
X177274426Y-80321844D01*
G37*
G36*
X179917950Y-75100562D02*
G01*
X179417950Y-74234536D01*
X180716988Y-73484536D01*
X181216988Y-74350562D01*
X179917950Y-75100562D01*
G37*
G36*
X181517950Y-77871844D02*
G01*
X181017950Y-77005818D01*
X182316988Y-76255818D01*
X182816988Y-77121844D01*
X181517950Y-77871844D01*
G37*
%TD*%
D11*
%TO.C,D7*%
X165417920Y-100182401D03*
X168617920Y-100182401D03*
X165417920Y-95282401D03*
X168617920Y-95282401D03*
%TD*%
%TO.C,C12*%
G36*
G01*
X207762506Y-116344642D02*
X207329494Y-116594642D01*
G75*
G02*
X207022138Y-116512286I-112500J194856D01*
G01*
X206797138Y-116122574D01*
G75*
G02*
X206879494Y-115815218I194856J112500D01*
G01*
X207312506Y-115565218D01*
G75*
G02*
X207619862Y-115647574I112500J-194856D01*
G01*
X207844862Y-116037286D01*
G75*
G02*
X207762506Y-116344642I-194856J-112500D01*
G01*
G37*
G36*
G01*
X208537506Y-117686982D02*
X208104494Y-117936982D01*
G75*
G02*
X207797138Y-117854626I-112500J194856D01*
G01*
X207572138Y-117464914D01*
G75*
G02*
X207654494Y-117157558I194856J112500D01*
G01*
X208087506Y-116907558D01*
G75*
G02*
X208394862Y-116989914I112500J-194856D01*
G01*
X208619862Y-117379626D01*
G75*
G02*
X208537506Y-117686982I-194856J-112500D01*
G01*
G37*
%TD*%
%TO.C,C11*%
G36*
G01*
X183284406Y-121509542D02*
X182851394Y-121259542D01*
G75*
G02*
X182769038Y-120952186I112500J194856D01*
G01*
X182994038Y-120562474D01*
G75*
G02*
X183301394Y-120480118I194856J-112500D01*
G01*
X183734406Y-120730118D01*
G75*
G02*
X183816762Y-121037474I-112500J-194856D01*
G01*
X183591762Y-121427186D01*
G75*
G02*
X183284406Y-121509542I-194856J112500D01*
G01*
G37*
G36*
G01*
X182509406Y-122851882D02*
X182076394Y-122601882D01*
G75*
G02*
X181994038Y-122294526I112500J194856D01*
G01*
X182219038Y-121904814D01*
G75*
G02*
X182526394Y-121822458I194856J-112500D01*
G01*
X182959406Y-122072458D01*
G75*
G02*
X183041762Y-122379814I-112500J-194856D01*
G01*
X182816762Y-122769526D01*
G75*
G02*
X182509406Y-122851882I-194856J112500D01*
G01*
G37*
%TD*%
%TO.C,C10*%
G36*
G01*
X215498800Y-92244100D02*
X215498800Y-92744100D01*
G75*
G02*
X215273800Y-92969100I-225000J0D01*
G01*
X214823800Y-92969100D01*
G75*
G02*
X214598800Y-92744100I0J225000D01*
G01*
X214598800Y-92244100D01*
G75*
G02*
X214823800Y-92019100I225000J0D01*
G01*
X215273800Y-92019100D01*
G75*
G02*
X215498800Y-92244100I0J-225000D01*
G01*
G37*
G36*
G01*
X217048800Y-92244100D02*
X217048800Y-92744100D01*
G75*
G02*
X216823800Y-92969100I-225000J0D01*
G01*
X216373800Y-92969100D01*
G75*
G02*
X216148800Y-92744100I0J225000D01*
G01*
X216148800Y-92244100D01*
G75*
G02*
X216373800Y-92019100I225000J0D01*
G01*
X216823800Y-92019100D01*
G75*
G02*
X217048800Y-92244100I0J-225000D01*
G01*
G37*
%TD*%
%TO.C,C9*%
G36*
G01*
X198401394Y-73803758D02*
X198834406Y-74053758D01*
G75*
G02*
X198916762Y-74361114I-112500J-194856D01*
G01*
X198691762Y-74750826D01*
G75*
G02*
X198384406Y-74833182I-194856J112500D01*
G01*
X197951394Y-74583182D01*
G75*
G02*
X197869038Y-74275826I112500J194856D01*
G01*
X198094038Y-73886114D01*
G75*
G02*
X198401394Y-73803758I194856J-112500D01*
G01*
G37*
G36*
G01*
X199176394Y-72461418D02*
X199609406Y-72711418D01*
G75*
G02*
X199691762Y-73018774I-112500J-194856D01*
G01*
X199466762Y-73408486D01*
G75*
G02*
X199159406Y-73490842I-194856J112500D01*
G01*
X198726394Y-73240842D01*
G75*
G02*
X198644038Y-72933486I112500J194856D01*
G01*
X198869038Y-72543774D01*
G75*
G02*
X199176394Y-72461418I194856J-112500D01*
G01*
G37*
%TD*%
%TO.C,C8*%
G36*
G01*
X173923294Y-79209958D02*
X174356306Y-78959958D01*
G75*
G02*
X174663662Y-79042314I112500J-194856D01*
G01*
X174888662Y-79432026D01*
G75*
G02*
X174806306Y-79739382I-194856J-112500D01*
G01*
X174373294Y-79989382D01*
G75*
G02*
X174065938Y-79907026I-112500J194856D01*
G01*
X173840938Y-79517314D01*
G75*
G02*
X173923294Y-79209958I194856J112500D01*
G01*
G37*
G36*
G01*
X173148294Y-77867618D02*
X173581306Y-77617618D01*
G75*
G02*
X173888662Y-77699974I112500J-194856D01*
G01*
X174113662Y-78089686D01*
G75*
G02*
X174031306Y-78397042I-194856J-112500D01*
G01*
X173598294Y-78647042D01*
G75*
G02*
X173290938Y-78564686I-112500J194856D01*
G01*
X173065938Y-78174974D01*
G75*
G02*
X173148294Y-77867618I194856J112500D01*
G01*
G37*
%TD*%
%TO.C,HS6*%
G36*
G01*
X232426348Y-96916646D02*
X233526348Y-96916646D01*
G75*
G02*
X233776348Y-97166646I0J-250000D01*
G01*
X233776348Y-98266646D01*
G75*
G02*
X233526348Y-98516646I-250000J0D01*
G01*
X232426348Y-98516646D01*
G75*
G02*
X232176348Y-98266646I0J250000D01*
G01*
X232176348Y-97166646D01*
G75*
G02*
X232426348Y-96916646I250000J0D01*
G01*
G37*
%TD*%
%TO.C,JP12*%
X229379948Y-98986646D03*
X230679948Y-98986646D03*
%TD*%
%TO.C,JP11*%
X229379948Y-96446647D03*
X230679948Y-96446647D03*
%TD*%
%TO.C,HS5*%
G36*
G01*
X211030174Y-61407432D02*
X211580174Y-60454804D01*
G75*
G02*
X211921680Y-60363298I216506J-125000D01*
G01*
X212874308Y-60913298D01*
G75*
G02*
X212965814Y-61254804I-125000J-216506D01*
G01*
X212415814Y-62207432D01*
G75*
G02*
X212074308Y-62298938I-216506J125000D01*
G01*
X211121680Y-61748938D01*
G75*
G02*
X211030174Y-61407432I125000J216506D01*
G01*
G37*
%TD*%
D10*
%TO.C,JP10*%
G36*
X210900127Y-64272680D02*
G01*
X212199165Y-65022680D01*
X211699165Y-65888706D01*
X210400127Y-65138706D01*
X210900127Y-64272680D01*
G37*
G36*
X211550127Y-63146846D02*
G01*
X212849165Y-63896846D01*
X212349165Y-64762872D01*
X211050127Y-64012872D01*
X211550127Y-63146846D01*
G37*
%TD*%
%TO.C,JP9*%
G36*
X208700423Y-63002680D02*
G01*
X209999461Y-63752680D01*
X209499461Y-64618706D01*
X208200423Y-63868706D01*
X208700423Y-63002680D01*
G37*
G36*
X209350423Y-61876846D02*
G01*
X210649461Y-62626846D01*
X210149461Y-63492872D01*
X208850423Y-62742872D01*
X209350423Y-61876846D01*
G37*
%TD*%
%TO.C,HS3*%
G36*
G01*
X124409962Y-61398112D02*
X124959962Y-60445484D01*
G75*
G02*
X125301468Y-60353978I216506J-125000D01*
G01*
X126254096Y-60903978D01*
G75*
G02*
X126345602Y-61245484I-125000J-216506D01*
G01*
X125795602Y-62198112D01*
G75*
G02*
X125454096Y-62289618I-216506J125000D01*
G01*
X124501468Y-61739618D01*
G75*
G02*
X124409962Y-61398112I125000J216506D01*
G01*
G37*
%TD*%
%TO.C,JP6*%
G36*
X124279915Y-64263359D02*
G01*
X125578953Y-65013359D01*
X125078953Y-65879385D01*
X123779915Y-65129385D01*
X124279915Y-64263359D01*
G37*
G36*
X124929915Y-63137525D02*
G01*
X126228953Y-63887525D01*
X125728953Y-64753551D01*
X124429915Y-64003551D01*
X124929915Y-63137525D01*
G37*
%TD*%
%TO.C,JP5*%
G36*
X122080211Y-62993359D02*
G01*
X123379249Y-63743359D01*
X122879249Y-64609385D01*
X121580211Y-63859385D01*
X122080211Y-62993359D01*
G37*
G36*
X122730211Y-61867525D02*
G01*
X124029249Y-62617525D01*
X123529249Y-63483551D01*
X122230211Y-62733551D01*
X122730211Y-61867525D01*
G37*
%TD*%
%TO.C,HS2*%
G36*
G01*
X82946646Y-62185412D02*
X82396646Y-61232784D01*
G75*
G02*
X82488152Y-60891278I216506J125000D01*
G01*
X83440780Y-60341278D01*
G75*
G02*
X83782286Y-60432784I125000J-216506D01*
G01*
X84332286Y-61385412D01*
G75*
G02*
X84240780Y-61726918I-216506J-125000D01*
G01*
X83288152Y-62276918D01*
G75*
G02*
X82946646Y-62185412I-125000J216506D01*
G01*
G37*
%TD*%
%TO.C,JP4*%
G36*
X85362999Y-63730659D02*
G01*
X86662037Y-62980659D01*
X87162037Y-63846685D01*
X85862999Y-64596685D01*
X85362999Y-63730659D01*
G37*
G36*
X84712999Y-62604825D02*
G01*
X86012037Y-61854825D01*
X86512037Y-62720851D01*
X85212999Y-63470851D01*
X84712999Y-62604825D01*
G37*
%TD*%
%TO.C,JP3*%
G36*
X83163295Y-65000659D02*
G01*
X84462333Y-64250659D01*
X84962333Y-65116685D01*
X83663295Y-65866685D01*
X83163295Y-65000659D01*
G37*
G36*
X82513295Y-63874825D02*
G01*
X83812333Y-63124825D01*
X84312333Y-63990851D01*
X83013295Y-64740851D01*
X82513295Y-63874825D01*
G37*
%TD*%
%TO.C,D6*%
G36*
X91967067Y-115826237D02*
G01*
X91467067Y-116692263D01*
X90168029Y-115942263D01*
X90668029Y-115076237D01*
X91967067Y-115826237D01*
G37*
G36*
X90367067Y-118597519D02*
G01*
X89867067Y-119463545D01*
X88568029Y-118713545D01*
X89068029Y-117847519D01*
X90367067Y-118597519D01*
G37*
G36*
X96210591Y-118276237D02*
G01*
X95710591Y-119142263D01*
X94411553Y-118392263D01*
X94911553Y-117526237D01*
X96210591Y-118276237D01*
G37*
G36*
X94610591Y-121047519D02*
G01*
X94110591Y-121913545D01*
X92811553Y-121163545D01*
X93311553Y-120297519D01*
X94610591Y-121047519D01*
G37*
%TD*%
D11*
%TO.C,D1*%
X78803500Y-100152200D03*
X82003500Y-100152200D03*
X78803500Y-95252200D03*
X82003500Y-95252200D03*
%TD*%
%TO.C,C1*%
G36*
G01*
X79954000Y-103247000D02*
X79954000Y-102747000D01*
G75*
G02*
X80179000Y-102522000I225000J0D01*
G01*
X80629000Y-102522000D01*
G75*
G02*
X80854000Y-102747000I0J-225000D01*
G01*
X80854000Y-103247000D01*
G75*
G02*
X80629000Y-103472000I-225000J0D01*
G01*
X80179000Y-103472000D01*
G75*
G02*
X79954000Y-103247000I0J225000D01*
G01*
G37*
G36*
G01*
X78404000Y-103247000D02*
X78404000Y-102747000D01*
G75*
G02*
X78629000Y-102522000I225000J0D01*
G01*
X79079000Y-102522000D01*
G75*
G02*
X79304000Y-102747000I0J-225000D01*
G01*
X79304000Y-103247000D01*
G75*
G02*
X79079000Y-103472000I-225000J0D01*
G01*
X78629000Y-103472000D01*
G75*
G02*
X78404000Y-103247000I0J225000D01*
G01*
G37*
%TD*%
D10*
%TO.C,D2*%
G36*
X94927443Y-77892554D02*
G01*
X94427443Y-77026528D01*
X95726481Y-76276528D01*
X96226481Y-77142554D01*
X94927443Y-77892554D01*
G37*
G36*
X93327443Y-75121272D02*
G01*
X92827443Y-74255246D01*
X94126481Y-73505246D01*
X94626481Y-74371272D01*
X93327443Y-75121272D01*
G37*
G36*
X90683919Y-80342554D02*
G01*
X90183919Y-79476528D01*
X91482957Y-78726528D01*
X91982957Y-79592554D01*
X90683919Y-80342554D01*
G37*
G36*
X89083919Y-77571272D02*
G01*
X88583919Y-76705246D01*
X89882957Y-75955246D01*
X90382957Y-76821272D01*
X89083919Y-77571272D01*
G37*
%TD*%
%TO.C,HP12*%
G36*
G01*
X232426348Y-102123646D02*
X233526348Y-102123646D01*
G75*
G02*
X233776348Y-102373646I0J-250000D01*
G01*
X233776348Y-103473646D01*
G75*
G02*
X233526348Y-103723646I-250000J0D01*
G01*
X232426348Y-103723646D01*
G75*
G02*
X232176348Y-103473646I0J250000D01*
G01*
X232176348Y-102373646D01*
G75*
G02*
X232426348Y-102123646I250000J0D01*
G01*
G37*
%TD*%
%TO.C,HG12*%
G36*
G01*
X232426348Y-99520146D02*
X233526348Y-99520146D01*
G75*
G02*
X233776348Y-99770146I0J-250000D01*
G01*
X233776348Y-100870146D01*
G75*
G02*
X233526348Y-101120146I-250000J0D01*
G01*
X232426348Y-101120146D01*
G75*
G02*
X232176348Y-100870146I0J250000D01*
G01*
X232176348Y-99770146D01*
G75*
G02*
X232426348Y-99520146I250000J0D01*
G01*
G37*
%TD*%
%TO.C,HP11*%
G36*
G01*
X232426347Y-91709647D02*
X233526347Y-91709647D01*
G75*
G02*
X233776347Y-91959647I0J-250000D01*
G01*
X233776347Y-93059647D01*
G75*
G02*
X233526347Y-93309647I-250000J0D01*
G01*
X232426347Y-93309647D01*
G75*
G02*
X232176347Y-93059647I0J250000D01*
G01*
X232176347Y-91959647D01*
G75*
G02*
X232426347Y-91709647I250000J0D01*
G01*
G37*
%TD*%
%TO.C,HG11*%
G36*
G01*
X232426347Y-94313146D02*
X233526347Y-94313146D01*
G75*
G02*
X233776347Y-94563146I0J-250000D01*
G01*
X233776347Y-95663146D01*
G75*
G02*
X233526347Y-95913146I-250000J0D01*
G01*
X232426347Y-95913146D01*
G75*
G02*
X232176347Y-95663146I0J250000D01*
G01*
X232176347Y-94563146D01*
G75*
G02*
X232426347Y-94313146I250000J0D01*
G01*
G37*
%TD*%
%TO.C,C6*%
G36*
G01*
X96093756Y-123015802D02*
X95660744Y-122765802D01*
G75*
G02*
X95578388Y-122458446I112500J194856D01*
G01*
X95803388Y-122068734D01*
G75*
G02*
X96110744Y-121986378I194856J-112500D01*
G01*
X96543756Y-122236378D01*
G75*
G02*
X96626112Y-122543734I-112500J-194856D01*
G01*
X96401112Y-122933446D01*
G75*
G02*
X96093756Y-123015802I-194856J112500D01*
G01*
G37*
G36*
G01*
X96868756Y-121673462D02*
X96435744Y-121423462D01*
G75*
G02*
X96353388Y-121116106I112500J194856D01*
G01*
X96578388Y-120726394D01*
G75*
G02*
X96885744Y-120644038I194856J-112500D01*
G01*
X97318756Y-120894038D01*
G75*
G02*
X97401112Y-121201394I-112500J-194856D01*
G01*
X97176112Y-121591106D01*
G75*
G02*
X96868756Y-121673462I-194856J112500D01*
G01*
G37*
%TD*%
%TO.C,HP10*%
G36*
G01*
X215539569Y-64010932D02*
X216089569Y-63058304D01*
G75*
G02*
X216431075Y-62966798I216506J-125000D01*
G01*
X217383703Y-63516798D01*
G75*
G02*
X217475209Y-63858304I-125000J-216506D01*
G01*
X216925209Y-64810932D01*
G75*
G02*
X216583703Y-64902438I-216506J125000D01*
G01*
X215631075Y-64352438D01*
G75*
G02*
X215539569Y-64010932I125000J216506D01*
G01*
G37*
%TD*%
%TO.C,HG10*%
G36*
G01*
X213284871Y-62709182D02*
X213834871Y-61756554D01*
G75*
G02*
X214176377Y-61665048I216506J-125000D01*
G01*
X215129005Y-62215048D01*
G75*
G02*
X215220511Y-62556554I-125000J-216506D01*
G01*
X214670511Y-63509182D01*
G75*
G02*
X214329005Y-63600688I-216506J125000D01*
G01*
X213376377Y-63050688D01*
G75*
G02*
X213284871Y-62709182I125000J216506D01*
G01*
G37*
%TD*%
%TO.C,HP9*%
G36*
G01*
X206520780Y-58803932D02*
X207070780Y-57851304D01*
G75*
G02*
X207412286Y-57759798I216506J-125000D01*
G01*
X208364914Y-58309798D01*
G75*
G02*
X208456420Y-58651304I-125000J-216506D01*
G01*
X207906420Y-59603932D01*
G75*
G02*
X207564914Y-59695438I-216506J125000D01*
G01*
X206612286Y-59145438D01*
G75*
G02*
X206520780Y-58803932I125000J216506D01*
G01*
G37*
%TD*%
%TO.C,HG9*%
G36*
G01*
X208775477Y-60105682D02*
X209325477Y-59153054D01*
G75*
G02*
X209666983Y-59061548I216506J-125000D01*
G01*
X210619611Y-59611548D01*
G75*
G02*
X210711117Y-59953054I-125000J-216506D01*
G01*
X210161117Y-60905682D01*
G75*
G02*
X209819611Y-60997188I-216506J125000D01*
G01*
X208866983Y-60447188D01*
G75*
G02*
X208775477Y-60105682I125000J216506D01*
G01*
G37*
%TD*%
%TO.C,C5*%
G36*
G01*
X121942406Y-117701612D02*
X121509394Y-117951612D01*
G75*
G02*
X121202038Y-117869256I-112500J194856D01*
G01*
X120977038Y-117479544D01*
G75*
G02*
X121059394Y-117172188I194856J112500D01*
G01*
X121492406Y-116922188D01*
G75*
G02*
X121799762Y-117004544I112500J-194856D01*
G01*
X122024762Y-117394256D01*
G75*
G02*
X121942406Y-117701612I-194856J-112500D01*
G01*
G37*
G36*
G01*
X121167406Y-116359272D02*
X120734394Y-116609272D01*
G75*
G02*
X120427038Y-116526916I-112500J194856D01*
G01*
X120202038Y-116137204D01*
G75*
G02*
X120284394Y-115829848I194856J112500D01*
G01*
X120717406Y-115579848D01*
G75*
G02*
X121024762Y-115662204I112500J-194856D01*
G01*
X121249762Y-116051916D01*
G75*
G02*
X121167406Y-116359272I-194856J-112500D01*
G01*
G37*
%TD*%
%TO.C,D5*%
G36*
X113863344Y-117519388D02*
G01*
X114363344Y-118385414D01*
X113064306Y-119135414D01*
X112564306Y-118269388D01*
X113863344Y-117519388D01*
G37*
G36*
X115463344Y-120290670D02*
G01*
X115963344Y-121156696D01*
X114664306Y-121906696D01*
X114164306Y-121040670D01*
X115463344Y-120290670D01*
G37*
G36*
X118106868Y-115069388D02*
G01*
X118606868Y-115935414D01*
X117307830Y-116685414D01*
X116807830Y-115819388D01*
X118106868Y-115069388D01*
G37*
G36*
X119706868Y-117840670D02*
G01*
X120206868Y-118706696D01*
X118907830Y-119456696D01*
X118407830Y-118590670D01*
X119706868Y-117840670D01*
G37*
%TD*%
%TO.C,C4*%
G36*
G01*
X128904655Y-92230163D02*
X128904655Y-92730163D01*
G75*
G02*
X128679655Y-92955163I-225000J0D01*
G01*
X128229655Y-92955163D01*
G75*
G02*
X128004655Y-92730163I0J225000D01*
G01*
X128004655Y-92230163D01*
G75*
G02*
X128229655Y-92005163I225000J0D01*
G01*
X128679655Y-92005163D01*
G75*
G02*
X128904655Y-92230163I0J-225000D01*
G01*
G37*
G36*
G01*
X130454655Y-92230163D02*
X130454655Y-92730163D01*
G75*
G02*
X130229655Y-92955163I-225000J0D01*
G01*
X129779655Y-92955163D01*
G75*
G02*
X129554655Y-92730163I0J225000D01*
G01*
X129554655Y-92230163D01*
G75*
G02*
X129779655Y-92005163I225000J0D01*
G01*
X130229655Y-92005163D01*
G75*
G02*
X130454655Y-92230163I0J-225000D01*
G01*
G37*
%TD*%
D11*
%TO.C,D4*%
X129991656Y-95248762D03*
X126791656Y-95248762D03*
X129991656Y-100148762D03*
X126791656Y-100148762D03*
%TD*%
%TO.C,HP6*%
G36*
G01*
X128919356Y-64001612D02*
X129469356Y-63048984D01*
G75*
G02*
X129810862Y-62957478I216506J-125000D01*
G01*
X130763490Y-63507478D01*
G75*
G02*
X130854996Y-63848984I-125000J-216506D01*
G01*
X130304996Y-64801612D01*
G75*
G02*
X129963490Y-64893118I-216506J125000D01*
G01*
X129010862Y-64343118D01*
G75*
G02*
X128919356Y-64001612I125000J216506D01*
G01*
G37*
%TD*%
%TO.C,HG6*%
G36*
G01*
X126664659Y-62699862D02*
X127214659Y-61747234D01*
G75*
G02*
X127556165Y-61655728I216506J-125000D01*
G01*
X128508793Y-62205728D01*
G75*
G02*
X128600299Y-62547234I-125000J-216506D01*
G01*
X128050299Y-63499862D01*
G75*
G02*
X127708793Y-63591368I-216506J125000D01*
G01*
X126756165Y-63041368D01*
G75*
G02*
X126664659Y-62699862I125000J216506D01*
G01*
G37*
%TD*%
%TO.C,HP5*%
G36*
G01*
X119900568Y-58794612D02*
X120450568Y-57841984D01*
G75*
G02*
X120792074Y-57750478I216506J-125000D01*
G01*
X121744702Y-58300478D01*
G75*
G02*
X121836208Y-58641984I-125000J-216506D01*
G01*
X121286208Y-59594612D01*
G75*
G02*
X120944702Y-59686118I-216506J125000D01*
G01*
X119992074Y-59136118D01*
G75*
G02*
X119900568Y-58794612I125000J216506D01*
G01*
G37*
%TD*%
%TO.C,HG5*%
G36*
G01*
X122155265Y-60096362D02*
X122705265Y-59143734D01*
G75*
G02*
X123046771Y-59052228I216506J-125000D01*
G01*
X123999399Y-59602228D01*
G75*
G02*
X124090905Y-59943734I-125000J-216506D01*
G01*
X123540905Y-60896362D01*
G75*
G02*
X123199399Y-60987868I-216506J125000D01*
G01*
X122246771Y-60437868D01*
G75*
G02*
X122155265Y-60096362I125000J216506D01*
G01*
G37*
%TD*%
%TO.C,C3*%
G36*
G01*
X112663994Y-72347118D02*
X113097006Y-72597118D01*
G75*
G02*
X113179362Y-72904474I-112500J-194856D01*
G01*
X112954362Y-73294186D01*
G75*
G02*
X112647006Y-73376542I-194856J112500D01*
G01*
X112213994Y-73126542D01*
G75*
G02*
X112131638Y-72819186I112500J194856D01*
G01*
X112356638Y-72429474D01*
G75*
G02*
X112663994Y-72347118I194856J-112500D01*
G01*
G37*
G36*
G01*
X111888994Y-73689458D02*
X112322006Y-73939458D01*
G75*
G02*
X112404362Y-74246814I-112500J-194856D01*
G01*
X112179362Y-74636526D01*
G75*
G02*
X111872006Y-74718882I-194856J112500D01*
G01*
X111438994Y-74468882D01*
G75*
G02*
X111356638Y-74161526I112500J194856D01*
G01*
X111581638Y-73771814D01*
G75*
G02*
X111888994Y-73689458I194856J-112500D01*
G01*
G37*
%TD*%
D10*
%TO.C,D3*%
G36*
X116830443Y-79592554D02*
G01*
X117330443Y-78726528D01*
X118629481Y-79476528D01*
X118129481Y-80342554D01*
X116830443Y-79592554D01*
G37*
G36*
X118430443Y-76821272D02*
G01*
X118930443Y-75955246D01*
X120229481Y-76705246D01*
X119729481Y-77571272D01*
X118430443Y-76821272D01*
G37*
G36*
X112586919Y-77142554D02*
G01*
X113086919Y-76276528D01*
X114385957Y-77026528D01*
X113885957Y-77892554D01*
X112586919Y-77142554D01*
G37*
G36*
X114186919Y-74371272D02*
G01*
X114686919Y-73505246D01*
X115985957Y-74255246D01*
X115485957Y-75121272D01*
X114186919Y-74371272D01*
G37*
%TD*%
%TO.C,HP4*%
G36*
G01*
X87456040Y-59581912D02*
X86906040Y-58629284D01*
G75*
G02*
X86997546Y-58287778I216506J125000D01*
G01*
X87950174Y-57737778D01*
G75*
G02*
X88291680Y-57829284I125000J-216506D01*
G01*
X88841680Y-58781912D01*
G75*
G02*
X88750174Y-59123418I-216506J-125000D01*
G01*
X87797546Y-59673418D01*
G75*
G02*
X87456040Y-59581912I-125000J216506D01*
G01*
G37*
%TD*%
%TO.C,HG4*%
G36*
G01*
X85201343Y-60883662D02*
X84651343Y-59931034D01*
G75*
G02*
X84742849Y-59589528I216506J125000D01*
G01*
X85695477Y-59039528D01*
G75*
G02*
X86036983Y-59131034I125000J-216506D01*
G01*
X86586983Y-60083662D01*
G75*
G02*
X86495477Y-60425168I-216506J-125000D01*
G01*
X85542849Y-60975168D01*
G75*
G02*
X85201343Y-60883662I-125000J216506D01*
G01*
G37*
%TD*%
%TO.C,HP3*%
G36*
G01*
X78437252Y-64788912D02*
X77887252Y-63836284D01*
G75*
G02*
X77978758Y-63494778I216506J125000D01*
G01*
X78931386Y-62944778D01*
G75*
G02*
X79272892Y-63036284I125000J-216506D01*
G01*
X79822892Y-63988912D01*
G75*
G02*
X79731386Y-64330418I-216506J-125000D01*
G01*
X78778758Y-64880418D01*
G75*
G02*
X78437252Y-64788912I-125000J216506D01*
G01*
G37*
%TD*%
%TO.C,HG3*%
G36*
G01*
X80691949Y-63487162D02*
X80141949Y-62534534D01*
G75*
G02*
X80233455Y-62193028I216506J125000D01*
G01*
X81186083Y-61643028D01*
G75*
G02*
X81527589Y-61734534I125000J-216506D01*
G01*
X82077589Y-62687162D01*
G75*
G02*
X81986083Y-63028668I-216506J-125000D01*
G01*
X81033455Y-63578668D01*
G75*
G02*
X80691949Y-63487162I-125000J216506D01*
G01*
G37*
%TD*%
%TO.C,C2*%
G36*
G01*
X86839094Y-77791418D02*
X87272106Y-77541418D01*
G75*
G02*
X87579462Y-77623774I112500J-194856D01*
G01*
X87804462Y-78013486D01*
G75*
G02*
X87722106Y-78320842I-194856J-112500D01*
G01*
X87289094Y-78570842D01*
G75*
G02*
X86981738Y-78488486I-112500J194856D01*
G01*
X86756738Y-78098774D01*
G75*
G02*
X86839094Y-77791418I194856J112500D01*
G01*
G37*
G36*
G01*
X87614094Y-79133758D02*
X88047106Y-78883758D01*
G75*
G02*
X88354462Y-78966114I112500J-194856D01*
G01*
X88579462Y-79355826D01*
G75*
G02*
X88497106Y-79663182I-194856J-112500D01*
G01*
X88064094Y-79913182D01*
G75*
G02*
X87756738Y-79830826I-112500J194856D01*
G01*
X87531738Y-79441114D01*
G75*
G02*
X87614094Y-79133758I194856J112500D01*
G01*
G37*
%TD*%
%TO.C,HP2*%
G36*
G01*
X62957800Y-93306800D02*
X61857800Y-93306800D01*
G75*
G02*
X61607800Y-93056800I0J250000D01*
G01*
X61607800Y-91956800D01*
G75*
G02*
X61857800Y-91706800I250000J0D01*
G01*
X62957800Y-91706800D01*
G75*
G02*
X63207800Y-91956800I0J-250000D01*
G01*
X63207800Y-93056800D01*
G75*
G02*
X62957800Y-93306800I-250000J0D01*
G01*
G37*
%TD*%
%TO.C,HG2*%
G36*
G01*
X62957800Y-95910300D02*
X61857800Y-95910300D01*
G75*
G02*
X61607800Y-95660300I0J250000D01*
G01*
X61607800Y-94560300D01*
G75*
G02*
X61857800Y-94310300I250000J0D01*
G01*
X62957800Y-94310300D01*
G75*
G02*
X63207800Y-94560300I0J-250000D01*
G01*
X63207800Y-95660300D01*
G75*
G02*
X62957800Y-95910300I-250000J0D01*
G01*
G37*
%TD*%
%TO.C,HG1*%
G36*
G01*
X62957800Y-101117300D02*
X61857800Y-101117300D01*
G75*
G02*
X61607800Y-100867300I0J250000D01*
G01*
X61607800Y-99767300D01*
G75*
G02*
X61857800Y-99517300I250000J0D01*
G01*
X62957800Y-99517300D01*
G75*
G02*
X63207800Y-99767300I0J-250000D01*
G01*
X63207800Y-100867300D01*
G75*
G02*
X62957800Y-101117300I-250000J0D01*
G01*
G37*
%TD*%
%TO.C,HS1*%
G36*
G01*
X62957800Y-98513800D02*
X61857800Y-98513800D01*
G75*
G02*
X61607800Y-98263800I0J250000D01*
G01*
X61607800Y-97163800D01*
G75*
G02*
X61857800Y-96913800I250000J0D01*
G01*
X62957800Y-96913800D01*
G75*
G02*
X63207800Y-97163800I0J-250000D01*
G01*
X63207800Y-98263800D01*
G75*
G02*
X62957800Y-98513800I-250000J0D01*
G01*
G37*
%TD*%
%TO.C,HP1*%
G36*
G01*
X62957800Y-103720800D02*
X61857800Y-103720800D01*
G75*
G02*
X61607800Y-103470800I0J250000D01*
G01*
X61607800Y-102370800D01*
G75*
G02*
X61857800Y-102120800I250000J0D01*
G01*
X62957800Y-102120800D01*
G75*
G02*
X63207800Y-102370800I0J-250000D01*
G01*
X63207800Y-103470800D01*
G75*
G02*
X62957800Y-103720800I-250000J0D01*
G01*
G37*
%TD*%
D11*
%TO.C,JP2*%
X66893200Y-96418400D03*
X65593200Y-96418400D03*
%TD*%
%TO.C,JP1*%
X66893200Y-98958400D03*
X65593200Y-98958400D03*
%TD*%
M02*
