M48
; DRILL file {KiCad (5.1.9)-1} date 06/09/21 00:59:52
; FORMAT={-:-/ absolute / inch / decimal}
; #@! TF.CreationDate,2021-06-09T00:59:52-05:00
; #@! TF.GenerationSoftware,Kicad,Pcbnew,(5.1.9)-1
FMAT,2
INCH
T1C0.0157
T2C0.0236
%
G90
G05
T1
X2.646Y-4.097
X2.6735Y-3.64
X2.675Y-4.055
X2.705Y-3.795
X2.735Y-3.895
X3.1615Y-2.7035
X3.2135Y-4.9865
X3.22Y-2.709
X3.2285Y-4.0095
X3.346Y-4.962
X3.3655Y-5.041
X3.38Y-2.695
X3.452Y-2.613
X3.4625Y-5.0635
X3.528Y-3.168
X3.5335Y-2.646
X3.5671Y-5.1904
X3.581Y-2.496
X3.5892Y-5.2363
X3.8042Y-4.6858
X4.4055Y-2.9965
X4.6273Y-2.4492
X4.6485Y-5.192
X4.655Y-2.505
X4.684Y-4.5305
X4.6925Y-5.0645
X4.7455Y-2.63
X4.769Y-5.089
X4.8405Y-5.0135
X4.855Y-2.655
X4.873Y-2.74
X4.9925Y-3.672
X5.0045Y-4.9865
X5.01Y-2.71
X5.075Y-4.9795
X5.2095Y-3.8785
X5.456Y-3.943
X5.4856Y-3.9711
X5.4859Y-3.7169
X5.5142Y-4.0052
X5.515Y-3.679
X5.544Y-3.641
X5.544Y-4.0425
X5.574Y-4.081
X5.5749Y-3.6094
X6.055Y-4.08
X6.055Y-3.6075
X6.0845Y-3.642
X6.0847Y-4.0418
X6.1158Y-4.0063
X6.1165Y-3.6775
X6.1465Y-3.969
X6.1465Y-3.716
X6.5665Y-2.7065
X6.621Y-4.982
X6.6251Y-2.7061
X6.6385Y-4.002
X6.7635Y-4.9605
X6.7735Y-5.0355
X6.7925Y-2.678
X6.82Y-4.9525
X6.864Y-2.603
X6.8765Y-5.0595
X6.931Y-2.632
X6.9407Y-3.1642
X6.9815Y-5.19
X6.987Y-2.497
X7.0063Y-5.2392
X7.2147Y-4.6898
X7.8215Y-3.0035
X8.041Y-2.458
X8.0605Y-5.1905
X8.061Y-2.5035
X8.097Y-4.5295
X8.106Y-5.058
X8.159Y-2.627
X8.1775Y-5.088
X8.247Y-5.014
X8.264Y-2.654
X8.2725Y-2.7275
X8.4015Y-3.692
X8.411Y-4.988
X8.4191Y-2.7089
X8.4645Y-4.9915
X8.865Y-3.943
X8.8945Y-3.7965
X8.924Y-3.897
X8.954Y-3.642
X8.954Y-4.052
X8.9835Y-3.6025
T2
X2.457Y-3.642
X2.457Y-3.7445
X2.457Y-3.847
X2.457Y-3.9495
X2.457Y-4.052
X3.1045Y-2.5162
X3.1057Y-5.1768
X3.1933Y-2.465
X3.1945Y-5.2281
X3.2821Y-2.4137
X3.2833Y-5.2793
X3.3708Y-2.3625
X3.372Y-5.3306
X3.4596Y-2.3112
X3.4608Y-5.3818
X4.7586Y-2.3117
X4.7588Y-5.3803
X4.8474Y-2.363
X4.8476Y-5.329
X4.9361Y-2.4142
X4.9364Y-5.2778
X5.0249Y-2.4655
X5.0251Y-5.2265
X5.1137Y-2.5167
X5.1139Y-5.1753
X6.5145Y-2.517
X6.515Y-5.1758
X6.6032Y-2.4658
X6.6037Y-5.2271
X6.692Y-2.4145
X6.6925Y-5.2783
X6.7808Y-2.3633
X6.7813Y-5.3296
X6.8695Y-2.312
X6.87Y-5.3808
X8.1685Y-5.3803
X8.1688Y-2.3121
X8.2573Y-5.3291
X8.2576Y-2.3634
X8.346Y-5.2778
X8.3464Y-2.4146
X8.4348Y-5.2266
X8.4351Y-2.4659
X8.5236Y-5.1753
X8.5239Y-2.5171
X9.1723Y-3.6421
X9.1723Y-3.7446
X9.1723Y-3.8471
X9.1723Y-3.9496
X9.1723Y-4.0521
T0
M30
